ZephyrSans_Hairline.ufo
<glyph name="exclam" format="2">
  <advance width="618" />
  <unicode hex="0021" />
  <outline>
    <contour>
      <point x="283" y="1480" type="line" />
      <point x="337" y="1480" type="line" />
      <point x="333" y="348" type="line" />
      <point x="285" y="348" type="line" />
    </contour>
    <contour>
      <point x="309" y="72" type="curve" smooth="yes" />
      <point x="287" y="72" />
      <point x="265" y="58" />
      <point x="265" y="24" type="curve" />
      <point x="265" y="-10" />
      <point x="287" y="-24" />
      <point x="309" y="-24" type="curve" smooth="yes" />
      <point x="331" y="-24" />
      <point x="353" y="-10" />
      <point x="353" y="24" type="curve" smooth="yes" />
      <point x="353" y="58" />
      <point x="331" y="72" />
    </contour>
  </outline>
</glyph>
<glyph name="numbersign" format="2">
  <advance width="1602" />
  <unicode hex="0023" />
  <outline>
    <contour>
      <point x="645" y="1420" type="line" />
      <point x="417" y="-24" type="line" />
      <point x="471" y="-24" type="line" />
      <point x="699" y="1420" type="line" />
    </contour>
    <contour>
      <point x="1131" y="1420" type="line" />
      <point x="903" y="-24" type="line" />
      <point x="957" y="-24" type="line" />
      <point x="1185" y="1420" type="line" />
    </contour>
    <contour>
      <point x="271" y="1052" type="line" />
      <point x="263" y="1004" type="line" />
      <point x="1425" y="1004" type="line" />
      <point x="1433" y="1052" type="line" />
    </contour>
    <contour>
      <point x="177" y="392" type="line" />
      <point x="169" y="344" type="line" />
      <point x="1331" y="344" type="line" />
      <point x="1339" y="392" type="line" />
    </contour>
  </outline>
</glyph>
<glyph name="dollar" format="2">
  <advance width="1143"/>
  <unicode hex="0024"/>
  <outline>
    <contour>
      <point x="586" y="-24" type="curve" smooth="yes"/>
      <point x="884" y="-24"/>
      <point x="1047" y="156"/>
      <point x="1047" y="358" type="curve" smooth="yes"/>
      <point x="1047" y="902"/>
      <point x="200" y="698"/>
      <point x="200" y="1138" type="curve" smooth="yes"/>
      <point x="200" y="1310"/>
      <point x="303" y="1464"/>
      <point x="578" y="1464" type="curve" smooth="yes"/>
      <point x="886" y="1464"/>
      <point x="967" y="1224"/>
      <point x="969" y="1214" type="curve"/>
      <point x="1016" y="1241" type="line"/>
      <point x="1010" y="1260"/>
      <point x="908" y="1516"/>
      <point x="576" y="1516" type="curve" smooth="yes"/>
      <point x="272" y="1516"/>
      <point x="143" y="1334"/>
      <point x="143" y="1143" type="curve" smooth="yes"/>
      <point x="143" y="637"/>
      <point x="990" y="854"/>
      <point x="990" y="364" type="curve" smooth="yes"/>
      <point x="990" y="180"/>
      <point x="863" y="28"/>
      <point x="587" y="28" type="curve" smooth="yes"/>
      <point x="239" y="28"/>
      <point x="144" y="274"/>
      <point x="143" y="286" type="curve"/>
      <point x="96" y="259" type="line"/>
      <point x="97" y="247"/>
      <point x="195" y="-24"/>
    </contour>
    <contour>
      <point x="552" y="1480" type="line"/>
      <point x="605" y="1480" type="line"/>
      <point x="607" y="1729" type="line"/>
      <point x="550" y="1729" type="line"/>
    </contour>
    <contour>
      <point x="552" y="0" type="line"/>
      <point x="550" y="-237" type="line"/>
      <point x="607" y="-237" type="line"/>
      <point x="605" y="0" type="line"/>
    </contour>
  </outline>
</glyph>
<glyph name="percent" format="2">
  <advance width="1702"/>
  <unicode hex="0025"/>
  <guideline x="0" y="740" angle="0" identifier="fontra-guideline-0"/>
  <guideline x="0" y="716" angle="0" identifier="fontra-guideline-1"/>
  <guideline x="0" y="764" angle="0" identifier="fontra-guideline-2"/>
  <guideline x="403" y="0" angle="90" identifier="fontra-guideline-3"/>
  <guideline x="1299" y="0" angle="270" identifier="fontra-guideline-4"/>
  <outline>
    <contour>
      <point x="403" y="716" type="curve" smooth="yes"/>
      <point x="575" y="716"/>
      <point x="686" y="837"/>
      <point x="686" y="1110" type="curve" smooth="yes"/>
      <point x="686" y="1383"/>
      <point x="575" y="1504"/>
      <point x="403" y="1504" type="curve" smooth="yes"/>
      <point x="231" y="1504"/>
      <point x="120" y="1383"/>
      <point x="120" y="1110" type="curve" smooth="yes"/>
      <point x="120" y="837"/>
      <point x="231" y="716"/>
    </contour>
    <contour>
      <point x="403" y="768" type="curve" smooth="yes"/>
      <point x="266" y="768"/>
      <point x="177" y="862"/>
      <point x="177" y="1110" type="curve" smooth="yes"/>
      <point x="177" y="1358"/>
      <point x="266" y="1452"/>
      <point x="403" y="1452" type="curve" smooth="yes"/>
      <point x="540" y="1452"/>
      <point x="629" y="1358"/>
      <point x="629" y="1110" type="curve" smooth="yes"/>
      <point x="629" y="862"/>
      <point x="540" y="768"/>
    </contour>
    <contour>
      <point x="1299" y="-24" type="curve" smooth="yes"/>
      <point x="1471" y="-24"/>
      <point x="1582" y="97"/>
      <point x="1582" y="370" type="curve" smooth="yes"/>
      <point x="1582" y="643"/>
      <point x="1471" y="764"/>
      <point x="1299" y="764" type="curve" smooth="yes"/>
      <point x="1127" y="764"/>
      <point x="1016" y="643"/>
      <point x="1016" y="370" type="curve" smooth="yes"/>
      <point x="1016" y="97"/>
      <point x="1127" y="-24"/>
    </contour>
    <contour>
      <point x="1299" y="28" type="curve" smooth="yes"/>
      <point x="1162" y="28"/>
      <point x="1073" y="122"/>
      <point x="1073" y="370" type="curve" smooth="yes"/>
      <point x="1073" y="618"/>
      <point x="1162" y="712"/>
      <point x="1299" y="712" type="curve" smooth="yes"/>
      <point x="1436" y="712"/>
      <point x="1525" y="618"/>
      <point x="1525" y="370" type="curve" smooth="yes"/>
      <point x="1525" y="122"/>
      <point x="1436" y="28"/>
    </contour>
    <contour>
      <point x="1267" y="1480" type="line"/>
      <point x="368" y="0" type="line"/>
      <point x="400" y="0" type="line"/>
      <point x="432" y="0" type="line"/>
      <point x="1331" y="1480" type="line"/>
      <point x="1299" y="1480" type="line"/>
    </contour>
  </outline>
</glyph>
<glyph name="ampersand" format="2">
  <advance width="1363"/>
  <unicode hex="0026"/>
  <outline>
    <contour>
      <point x="574" y="-24" type="curve" smooth="yes"/>
      <point x="899" y="-24"/>
      <point x="1060" y="160"/>
      <point x="1060" y="468" type="curve" smooth="yes"/>
      <point x="1060" y="772" type="line"/>
      <point x="1042" y="747" type="line"/>
      <point x="1313" y="747" type="line"/>
      <point x="1313" y="795" type="line"/>
      <point x="630" y="795" type="line" smooth="yes"/>
      <point x="346" y="795"/>
      <point x="255" y="923"/>
      <point x="255" y="1103" type="curve" smooth="yes"/>
      <point x="255" y="1310"/>
      <point x="407" y="1433"/>
      <point x="608" y="1433" type="curve" smooth="yes"/>
      <point x="840" y="1433"/>
      <point x="933" y="1286"/>
      <point x="933" y="1099" type="curve"/>
      <point x="987" y="1100" type="line"/>
      <point x="987" y="1321"/>
      <point x="846" y="1481"/>
      <point x="615" y="1481" type="curve" smooth="yes"/>
      <point x="367" y="1481"/>
      <point x="201" y="1321"/>
      <point x="201" y="1095" type="curve" smooth="yes"/>
      <point x="201" y="911"/>
      <point x="332" y="761"/>
      <point x="538" y="761" type="curve"/>
      <point x="558" y="778" type="line"/>
      <point x="279" y="778"/>
      <point x="120" y="610"/>
      <point x="120" y="382" type="curve" smooth="yes"/>
      <point x="120" y="133"/>
      <point x="305" y="-24"/>
    </contour>
    <contour>
      <point x="597" y="24" type="curve" smooth="yes"/>
      <point x="322" y="23"/>
      <point x="174" y="148"/>
      <point x="174" y="392" type="curve" smooth="yes"/>
      <point x="174" y="590"/>
      <point x="312" y="747"/>
      <point x="607" y="747" type="curve" smooth="yes"/>
      <point x="1025" y="747" type="line"/>
      <point x="1006" y="771" type="line"/>
      <point x="1006" y="490" type="line" smooth="yes"/>
      <point x="1006" y="197"/>
      <point x="877" y="25"/>
    </contour>
  </outline>
</glyph>
<glyph name="quotesingle" format="2">
  <advance width="177" />
  <unicode hex="0027" />
  <outline>
    <contour>
      <point x="75" y="775" type="line" />
      <point x="102" y="775" type="line" />
      <point x="100" y="550" type="line" />
      <point x="76" y="550" type="line" />
    </contour>
  </outline>
</glyph>
<glyph name="parenleft" format="2">
  <advance width="764" />
  <unicode hex="0028" />
  <guideline x="1173" y="622" angle="120" name="-30deg" />
  <outline>
    <contour>
      <point x="227" y="622" type="curve" smooth="yes" />
      <point x="227" y="1272" />
      <point x="641" y="1544" />
      <point x="641" y="1544" type="curve" />
      <point x="617" y="1586" type="line" />
      <point x="617" y="1586" />
      <point x="173" y="1310" />
      <point x="173" y="622" type="curve" smooth="yes" />
      <point x="173" y="-66" />
      <point x="617" y="-342" />
      <point x="617" y="-342" type="curve" />
      <point x="641" y="-300" type="line" />
      <point x="641" y="-300" />
      <point x="227" y="-28" />
    </contour>
  </outline>
</glyph>
<glyph name="comma" format="2">
  <advance width="358"/>
  <unicode hex="002C"/>
  <guideline x="202" y="406" angle="85" name="l"/>
  <outline>
    <contour>
      <point x="149" y="93" type="line"/>
      <point x="121" y="-294" type="line"/>
      <point x="161" y="-294" type="line"/>
      <point x="203" y="45" type="line"/>
      <point x="203" y="93" type="line"/>
    </contour>
  </outline>
</glyph>
<glyph name="hyphen" format="2">
  <advance width="648" />
  <unicode hex="002D" />
  <outline>
    <contour>
      <point x="104" y="600" type="line" />
      <point x="544" y="600" type="line" />
      <point x="544" y="552" type="line" />
      <point x="104" y="552" type="line" />
    </contour>
  </outline>
</glyph>
<glyph name="period" format="2">
  <advance width="388" />
  <unicode hex="002E" />
  <outline>
    <contour>
      <point x="238" y="24" type="curve" smooth="yes" />
      <point x="238" y="58" />
      <point x="216" y="72" />
      <point x="194" y="72" type="curve" smooth="yes" />
      <point x="172" y="72" />
      <point x="150" y="58" />
      <point x="150" y="24" type="curve" />
      <point x="150" y="-10" />
      <point x="172" y="-24" />
      <point x="194" y="-24" type="curve" smooth="yes" />
      <point x="216" y="-24" />
      <point x="238" y="-10" />
    </contour>
  </outline>
</glyph>
<glyph name="slash" format="2">
  <advance width="552"/>
  <unicode hex="002F"/>
  <guideline x="0" y="-322" angle="75"/>
  <outline>
    <contour>
      <point x="502" y="1550" type="line"/>
      <point x="0" y="-322" type="line"/>
      <point x="50" y="-322" type="line"/>
      <point x="552" y="1550" type="line"/>
    </contour>
  </outline>
</glyph>
<glyph name="zero" format="2">
  <advance width="1260"/>
  <unicode hex="0030"/>
  <outline>
    <contour>
      <point x="630" y="1516" type="curve" smooth="yes"/>
      <point x="310" y="1516"/>
      <point x="130" y="1246"/>
      <point x="130" y="746" type="curve" smooth="yes"/>
      <point x="130" y="246"/>
      <point x="310" y="-24"/>
      <point x="630" y="-24" type="curve" smooth="yes"/>
      <point x="950" y="-24"/>
      <point x="1130" y="246"/>
      <point x="1130" y="746" type="curve" smooth="yes"/>
      <point x="1130" y="1246"/>
      <point x="950" y="1516"/>
    </contour>
    <contour>
      <point x="630" y="1468" type="curve" smooth="yes"/>
      <point x="920" y="1468"/>
      <point x="1076" y="1216"/>
      <point x="1076" y="746" type="curve" smooth="yes"/>
      <point x="1076" y="276"/>
      <point x="920" y="24"/>
      <point x="630" y="24" type="curve" smooth="yes"/>
      <point x="340" y="24"/>
      <point x="184" y="276"/>
      <point x="184" y="746" type="curve" smooth="yes"/>
      <point x="184" y="1216"/>
      <point x="340" y="1468"/>
    </contour>
  </outline>
</glyph>
<glyph name="one" format="2">
  <advance width="826"/>
  <unicode hex="0031"/>
  <outline>
    <contour>
      <point x="552" y="0" type="line"/>
      <point x="606" y="0" type="line"/>
      <point x="606" y="1480" type="line"/>
      <point x="557" y="1480" type="line"/>
      <point x="304" y="1227"/>
      <point x="84" y="1140"/>
      <point x="80" y="1138" type="curve"/>
      <point x="80" y="1087" type="line"/>
      <point x="84" y="1089"/>
      <point x="332" y="1185"/>
      <point x="588" y="1446" type="curve"/>
      <point x="562" y="1450" type="line"/>
      <point x="562" y="1430"/>
      <point x="552" y="1297"/>
      <point x="552" y="1100" type="curve" smooth="yes"/>
    </contour>
  </outline>
</glyph>
<glyph name="three" format="2">
  <advance width="1260"/>
  <unicode hex="0033"/>
  <outline>
    <contour>
      <point x="639" y="-24" type="curve" smooth="yes"/>
      <point x="938" y="-24"/>
      <point x="1090" y="158"/>
      <point x="1090" y="384" type="curve" smooth="yes"/>
      <point x="1090" y="548"/>
      <point x="1002" y="780"/>
      <point x="511" y="780" type="curve"/>
      <point x="511" y="760" type="line"/>
      <point x="937" y="760"/>
      <point x="1041" y="968"/>
      <point x="1041" y="1132" type="curve" smooth="yes"/>
      <point x="1041" y="1356"/>
      <point x="884" y="1516"/>
      <point x="619" y="1516" type="curve" smooth="yes"/>
      <point x="282" y="1516"/>
      <point x="212" y="1258"/>
      <point x="212" y="1256" type="curve"/>
      <point x="251" y="1223" type="line"/>
      <point x="251" y="1225"/>
      <point x="317" y="1465"/>
      <point x="610" y="1464" type="curve" smooth="yes"/>
      <point x="800" y="1463"/>
      <point x="987" y="1366"/>
      <point x="987" y="1140" type="curve" smooth="yes"/>
      <point x="987" y="924"/>
      <point x="820" y="793"/>
      <point x="505" y="793" type="curve"/>
      <point x="505" y="741" type="line"/>
      <point x="820" y="742"/>
      <point x="1036" y="640"/>
      <point x="1036" y="395" type="curve" smooth="yes"/>
      <point x="1036" y="138"/>
      <point x="853" y="29"/>
      <point x="631" y="28" type="curve" smooth="yes"/>
      <point x="307" y="27"/>
      <point x="207" y="271"/>
      <point x="206" y="273" type="curve"/>
      <point x="168" y="239" type="line"/>
      <point x="168" y="237"/>
      <point x="272" y="-24"/>
    </contour>
    <contour>
      <point x="197" y="-119" type="line"/>
      <point x="243" y="-278" type="line"/>
      <point x="271" y="-283" type="line"/>
      <point x="309" y="-157" type="line"/>
      <point x="319" y="-155" type="line"/>
      <point x="347" y="-289" type="line"/>
      <point x="394" y="-296" type="line"/>
      <point x="436" y="-127" type="line"/>
      <point x="395" y="-125" type="line"/>
      <point x="370" y="-269" type="line"/>
      <point x="359" y="-269" type="line"/>
      <point x="327" y="-132" type="line"/>
      <point x="301" y="-131" type="line"/>
      <point x="267" y="-256" type="line"/>
      <point x="260" y="-254" type="line"/>
      <point x="226" y="-116" type="line"/>
    </contour>
    <contour>
      <point x="492" y="-129" type="line"/>
      <point x="490" y="-141" type="line"/>
      <point x="541" y="-152" type="line"/>
      <point x="531" y="-294" type="line"/>
      <point x="474" y="-282" type="line"/>
      <point x="476" y="-301" type="line"/>
      <point x="602" y="-317" type="line"/>
      <point x="609" y="-304" type="line"/>
      <point x="555" y="-297" type="line"/>
      <point x="565" y="-159" type="line"/>
      <point x="625" y="-165" type="line"/>
      <point x="623" y="-154" type="line"/>
    </contour>
    <contour>
      <point x="666" y="-129" type="line"/>
      <point x="679" y="-310" type="line"/>
      <point x="707" y="-316" type="line"/>
      <point x="699" y="-239" type="line"/>
      <point x="780" y="-247" type="line"/>
      <point x="809" y="-235" type="line"/>
      <point x="823" y="-195" type="line"/>
      <point x="799" y="-146" type="line"/>
      <point x="757" y="-126" type="line"/>
      <point x="716" y="-122" type="line"/>
    </contour>
    <contour>
      <point x="691" y="-153" type="line"/>
      <point x="735" y="-151" type="line"/>
      <point x="771" y="-158" type="line"/>
      <point x="793" y="-184" type="line"/>
      <point x="791" y="-212" type="line"/>
      <point x="751" y="-221" type="line"/>
      <point x="694" y="-208" type="line"/>
    </contour>
  </outline>
</glyph>
<glyph name="four" format="2">
  <advance width="1144"/>
  <unicode hex="0034"/>
  <outline>
    <contour>
      <point x="815" y="1480" type="line"/>
      <point x="140" y="482" type="line"/>
      <point x="140" y="434" type="line"/>
      <point x="810" y="434" type="line"/>
      <point x="810" y="0" type="line"/>
      <point x="864" y="0" type="line"/>
      <point x="864" y="434" type="line"/>
      <point x="1110" y="434" type="line"/>
      <point x="1110" y="482" type="line"/>
      <point x="864" y="482" type="line"/>
      <point x="864" y="1480" type="line"/>
    </contour>
    <contour>
      <point x="810" y="1434" type="line"/>
      <point x="810" y="458" type="line"/>
      <point x="836" y="482" type="line"/>
      <point x="162" y="482" type="line"/>
      <point x="186" y="458" type="line"/>
      <point x="839" y="1428" type="line"/>
    </contour>
  </outline>
</glyph>
<glyph name="five" format="2">
  <advance width="1170"/>
  <unicode hex="0035"/>
  <guideline x="8" y="838" angle="0"/>
  <guideline x="404" y="432" angle="30"/>
  <guideline x="842" y="956" angle="0"/>
  <outline>
    <contour>
      <point x="574" y="-24" type="curve" smooth="yes"/>
      <point x="880" y="-24"/>
      <point x="1031" y="175"/>
      <point x="1031" y="455" type="curve" smooth="yes"/>
      <point x="1031" y="735"/>
      <point x="878" y="933"/>
      <point x="588" y="933" type="curve" smooth="yes"/>
      <point x="316" y="933"/>
      <point x="201" y="740"/>
      <point x="193" y="729" type="curve"/>
      <point x="207" y="729" type="line"/>
      <point x="250" y="1432" type="line"/>
      <point x="994" y="1432" type="line"/>
      <point x="994" y="1480" type="line"/>
      <point x="198" y="1480" type="line"/>
      <point x="156" y="694" type="line"/>
      <point x="206" y="694" type="line"/>
      <point x="208" y="696"/>
      <point x="308" y="885"/>
      <point x="578" y="885" type="curve" smooth="yes"/>
      <point x="866" y="885"/>
      <point x="977" y="695"/>
      <point x="977" y="455" type="curve" smooth="yes"/>
      <point x="977" y="215"/>
      <point x="850" y="24"/>
      <point x="570" y="24" type="curve" smooth="yes"/>
      <point x="282" y="24"/>
      <point x="174" y="296"/>
      <point x="172" y="298" type="curve"/>
      <point x="130" y="274" type="line"/>
      <point x="132" y="272"/>
      <point x="232" y="-24"/>
    </contour>
    <contour>
      <point x="197" y="-119" type="line"/>
      <point x="243" y="-278" type="line"/>
      <point x="271" y="-283" type="line"/>
      <point x="309" y="-157" type="line"/>
      <point x="319" y="-155" type="line"/>
      <point x="347" y="-289" type="line"/>
      <point x="394" y="-296" type="line"/>
      <point x="436" y="-127" type="line"/>
      <point x="395" y="-125" type="line"/>
      <point x="370" y="-269" type="line"/>
      <point x="359" y="-269" type="line"/>
      <point x="327" y="-132" type="line"/>
      <point x="301" y="-131" type="line"/>
      <point x="267" y="-256" type="line"/>
      <point x="260" y="-254" type="line"/>
      <point x="226" y="-116" type="line"/>
    </contour>
    <contour>
      <point x="492" y="-129" type="line"/>
      <point x="490" y="-141" type="line"/>
      <point x="541" y="-152" type="line"/>
      <point x="531" y="-294" type="line"/>
      <point x="474" y="-282" type="line"/>
      <point x="476" y="-301" type="line"/>
      <point x="602" y="-317" type="line"/>
      <point x="609" y="-304" type="line"/>
      <point x="555" y="-297" type="line"/>
      <point x="565" y="-159" type="line"/>
      <point x="625" y="-165" type="line"/>
      <point x="623" y="-154" type="line"/>
    </contour>
    <contour>
      <point x="666" y="-129" type="line"/>
      <point x="679" y="-310" type="line"/>
      <point x="707" y="-316" type="line"/>
      <point x="699" y="-239" type="line"/>
      <point x="780" y="-247" type="line"/>
      <point x="809" y="-235" type="line"/>
      <point x="823" y="-195" type="line"/>
      <point x="799" y="-146" type="line"/>
      <point x="757" y="-126" type="line"/>
      <point x="716" y="-122" type="line"/>
    </contour>
    <contour>
      <point x="691" y="-153" type="line"/>
      <point x="735" y="-151" type="line"/>
      <point x="771" y="-158" type="line"/>
      <point x="793" y="-184" type="line"/>
      <point x="791" y="-212" type="line"/>
      <point x="751" y="-221" type="line"/>
      <point x="694" y="-208" type="line"/>
    </contour>
  </outline>
</glyph>
<glyph name="six" format="2">
  <advance width="1320"/>
  <unicode hex="0036"/>
  <guideline x="0" y="826" angle="0" identifier="fontra-guideline-0"/>
  <outline>
    <contour>
      <point x="660" y="874" type="curve" smooth="yes"/>
      <point x="400" y="874"/>
      <point x="214" y="742"/>
      <point x="143" y="540" type="curve"/>
      <point x="181" y="521" type="line"/>
      <point x="176" y="571"/>
      <point x="174" y="622"/>
      <point x="174" y="694" type="curve"/>
      <point x="174" y="1047"/>
      <point x="271" y="1468"/>
      <point x="660" y="1468" type="curve"/>
      <point x="842" y="1468"/>
      <point x="965" y="1358"/>
      <point x="1026" y="1261" type="curve"/>
      <point x="1057" y="1302" type="line"/>
      <point x="997" y="1414"/>
      <point x="822" y="1516"/>
      <point x="660" y="1516" type="curve"/>
      <point x="149" y="1516"/>
      <point x="120" y="864"/>
      <point x="120" y="694" type="curve" smooth="yes"/>
      <point x="120" y="135"/>
      <point x="340" y="-24"/>
      <point x="660" y="-24" type="curve" smooth="yes"/>
      <point x="980" y="-24"/>
      <point x="1200" y="155"/>
      <point x="1200" y="435" type="curve" smooth="yes"/>
      <point x="1200" y="715"/>
      <point x="980" y="874"/>
    </contour>
    <contour>
      <point x="660" y="826" type="curve" smooth="yes"/>
      <point x="880" y="826"/>
      <point x="1146" y="715"/>
      <point x="1146" y="435" type="curve" smooth="yes"/>
      <point x="1146" y="155"/>
      <point x="880" y="24"/>
      <point x="660" y="24" type="curve" smooth="yes"/>
      <point x="440" y="24"/>
      <point x="174" y="155"/>
      <point x="174" y="435" type="curve" smooth="yes"/>
      <point x="174" y="715"/>
      <point x="440" y="826"/>
    </contour>
  </outline>
</glyph>
<glyph name="seven" format="2">
  <advance width="1164"/>
  <unicode hex="0037"/>
  <outline>
    <contour>
      <point x="476" y="0" type="curve"/>
      <point x="530" y="0" type="line"/>
      <point x="540" y="852"/>
      <point x="1032" y="1431"/>
      <point x="1034" y="1431" type="curve"/>
      <point x="1034" y="1480" type="line"/>
      <point x="130" y="1480" type="line"/>
      <point x="130" y="1431" type="line"/>
      <point x="1010" y="1431" type="line"/>
      <point x="1002" y="1454" type="line"/>
      <point x="1000" y="1454"/>
      <point x="486" y="870"/>
    </contour>
    <contour>
      <point x="197" y="-119" type="line"/>
      <point x="243" y="-278" type="line"/>
      <point x="271" y="-283" type="line"/>
      <point x="309" y="-157" type="line"/>
      <point x="319" y="-155" type="line"/>
      <point x="347" y="-289" type="line"/>
      <point x="394" y="-296" type="line"/>
      <point x="436" y="-127" type="line"/>
      <point x="395" y="-125" type="line"/>
      <point x="370" y="-269" type="line"/>
      <point x="359" y="-269" type="line"/>
      <point x="327" y="-132" type="line"/>
      <point x="301" y="-131" type="line"/>
      <point x="267" y="-256" type="line"/>
      <point x="260" y="-254" type="line"/>
      <point x="226" y="-116" type="line"/>
    </contour>
    <contour>
      <point x="492" y="-129" type="line"/>
      <point x="490" y="-141" type="line"/>
      <point x="541" y="-152" type="line"/>
      <point x="531" y="-294" type="line"/>
      <point x="474" y="-282" type="line"/>
      <point x="476" y="-301" type="line"/>
      <point x="602" y="-317" type="line"/>
      <point x="609" y="-304" type="line"/>
      <point x="555" y="-297" type="line"/>
      <point x="565" y="-159" type="line"/>
      <point x="625" y="-165" type="line"/>
      <point x="623" y="-154" type="line"/>
    </contour>
    <contour>
      <point x="666" y="-129" type="line"/>
      <point x="679" y="-310" type="line"/>
      <point x="707" y="-316" type="line"/>
      <point x="699" y="-239" type="line"/>
      <point x="780" y="-247" type="line"/>
      <point x="809" y="-235" type="line"/>
      <point x="823" y="-195" type="line"/>
      <point x="799" y="-146" type="line"/>
      <point x="757" y="-126" type="line"/>
      <point x="716" y="-122" type="line"/>
    </contour>
    <contour>
      <point x="691" y="-153" type="line"/>
      <point x="735" y="-151" type="line"/>
      <point x="771" y="-158" type="line"/>
      <point x="793" y="-184" type="line"/>
      <point x="791" y="-212" type="line"/>
      <point x="751" y="-221" type="line"/>
      <point x="694" y="-208" type="line"/>
    </contour>
  </outline>
</glyph>
<glyph name="eight" format="2">
  <advance width="1320"/>
  <unicode hex="0038"/>
  <guideline x="10" y="956" angle="0" name="nsub"/>
  <guideline x="10" y="812" angle="0" name="nsubsub"/>
  <outline>
    <contour>
      <point x="660" y="-24" type="curve" smooth="yes"/>
      <point x="340" y="-24"/>
      <point x="160" y="148"/>
      <point x="160" y="386" type="curve" smooth="yes"/>
      <point x="160" y="636"/>
      <point x="377" y="770"/>
      <point x="585" y="770" type="curve"/>
      <point x="585" y="756" type="line"/>
      <point x="396" y="756"/>
      <point x="220" y="908"/>
      <point x="220" y="1128" type="curve" smooth="yes"/>
      <point x="220" y="1348"/>
      <point x="380" y="1516"/>
      <point x="660" y="1516" type="curve" smooth="yes"/>
      <point x="940" y="1516"/>
      <point x="1100" y="1348"/>
      <point x="1100" y="1128" type="curve" smooth="yes"/>
      <point x="1100" y="908"/>
      <point x="924" y="756"/>
      <point x="735" y="756" type="curve"/>
      <point x="735" y="770" type="line"/>
      <point x="943" y="770"/>
      <point x="1160" y="636"/>
      <point x="1160" y="386" type="curve" smooth="yes"/>
      <point x="1160" y="148"/>
      <point x="980" y="-24"/>
    </contour>
    <contour>
      <point x="660" y="739" type="curve" smooth="yes"/>
      <point x="410" y="739"/>
      <point x="214" y="616"/>
      <point x="214" y="386" type="curve" smooth="yes"/>
      <point x="214" y="186"/>
      <point x="370" y="24"/>
      <point x="660" y="24" type="curve" smooth="yes"/>
      <point x="950" y="24"/>
      <point x="1106" y="186"/>
      <point x="1106" y="386" type="curve" smooth="yes"/>
      <point x="1106" y="616"/>
      <point x="910" y="739"/>
    </contour>
    <contour>
      <point x="660" y="1468" type="curve" smooth="yes"/>
      <point x="410" y="1468"/>
      <point x="274" y="1318"/>
      <point x="274" y="1128" type="curve" smooth="yes"/>
      <point x="274" y="938"/>
      <point x="410" y="787"/>
      <point x="660" y="787" type="curve" smooth="yes"/>
      <point x="910" y="787"/>
      <point x="1046" y="938"/>
      <point x="1046" y="1128" type="curve" smooth="yes"/>
      <point x="1046" y="1318"/>
      <point x="910" y="1468"/>
    </contour>
  </outline>
</glyph>
<glyph name="colon" format="2">
  <advance width="358"/>
  <unicode hex="003A"/>
  <outline>
    <contour>
      <point x="179" y="82" type="curve" smooth="yes"/>
      <point x="157" y="82"/>
      <point x="135" y="68"/>
      <point x="135" y="34" type="curve"/>
      <point x="135" y="0"/>
      <point x="157" y="-14"/>
      <point x="179" y="-14" type="curve" smooth="yes"/>
      <point x="201" y="-14"/>
      <point x="223" y="0"/>
      <point x="223" y="34" type="curve" smooth="yes"/>
      <point x="223" y="68"/>
      <point x="201" y="82"/>
    </contour>
    <contour>
      <point x="179" y="1070" type="curve" smooth="yes"/>
      <point x="157" y="1070"/>
      <point x="135" y="1056"/>
      <point x="135" y="1022" type="curve"/>
      <point x="135" y="988"/>
      <point x="157" y="974"/>
      <point x="179" y="974" type="curve" smooth="yes"/>
      <point x="201" y="974"/>
      <point x="223" y="988"/>
      <point x="223" y="1022" type="curve" smooth="yes"/>
      <point x="223" y="1056"/>
      <point x="201" y="1070"/>
    </contour>
  </outline>
</glyph>
<glyph name="question" format="2">
  <advance width="975"/>
  <unicode hex="003F"/>
  <outline>
    <contour>
      <point x="419" y="348" type="line"/>
      <point x="467" y="348" type="line"/>
      <point x="467" y="386" type="line" smooth="yes"/>
      <point x="467" y="868"/>
      <point x="840" y="798"/>
      <point x="840" y="1161" type="curve" smooth="yes"/>
      <point x="840" y="1398"/>
      <point x="663" y="1505"/>
      <point x="479" y="1505" type="curve" smooth="yes"/>
      <point x="211" y="1505"/>
      <point x="104" y="1314"/>
      <point x="96" y="1300" type="curve"/>
      <point x="130" y="1270" type="line"/>
      <point x="143" y="1280"/>
      <point x="231" y="1457"/>
      <point x="479" y="1457" type="curve" smooth="yes"/>
      <point x="639" y="1457"/>
      <point x="790" y="1368"/>
      <point x="790" y="1157" type="curve" smooth="yes"/>
      <point x="790" y="839"/>
      <point x="419" y="883"/>
      <point x="419" y="386" type="curve" smooth="yes"/>
    </contour>
    <contour>
      <point x="443" y="72" type="curve" smooth="yes"/>
      <point x="421" y="72"/>
      <point x="399" y="58"/>
      <point x="399" y="24" type="curve"/>
      <point x="399" y="-10"/>
      <point x="421" y="-24"/>
      <point x="443" y="-24" type="curve" smooth="yes"/>
      <point x="465" y="-24"/>
      <point x="487" y="-10"/>
      <point x="487" y="24" type="curve" smooth="yes"/>
      <point x="487" y="58"/>
      <point x="465" y="72"/>
    </contour>
    <contour>
      <point x="312" y="-335" type="line"/>
      <point x="337" y="-420" type="line"/>
      <point x="352" y="-423" type="line"/>
      <point x="372" y="-355" type="line"/>
      <point x="378" y="-354" type="line"/>
      <point x="393" y="-426" type="line"/>
      <point x="418" y="-430" type="line"/>
      <point x="440" y="-339" type="line"/>
      <point x="418" y="-338" type="line"/>
      <point x="405" y="-415" type="line"/>
      <point x="399" y="-415" type="line"/>
      <point x="382" y="-342" type="line"/>
      <point x="368" y="-341" type="line"/>
      <point x="350" y="-408" type="line"/>
      <point x="346" y="-407" type="line"/>
      <point x="328" y="-333" type="line"/>
    </contour>
    <contour>
      <point x="470" y="-340" type="line"/>
      <point x="469" y="-347" type="line"/>
      <point x="497" y="-353" type="line"/>
      <point x="491" y="-429" type="line"/>
      <point x="461" y="-422" type="line"/>
      <point x="462" y="-432" type="line"/>
      <point x="529" y="-441" type="line"/>
      <point x="533" y="-434" type="line"/>
      <point x="504" y="-430" type="line"/>
      <point x="509" y="-356" type="line"/>
      <point x="542" y="-360" type="line"/>
      <point x="540" y="-354" type="line"/>
    </contour>
    <contour>
      <point x="564" y="-340" type="line"/>
      <point x="570" y="-437" type="line"/>
      <point x="585" y="-440" type="line"/>
      <point x="581" y="-399" type="line"/>
      <point x="625" y="-404" type="line"/>
      <point x="640" y="-397" type="line"/>
      <point x="648" y="-376" type="line"/>
      <point x="635" y="-349" type="line"/>
      <point x="612" y="-339" type="line"/>
      <point x="590" y="-337" type="line"/>
    </contour>
    <contour>
      <point x="577" y="-353" type="line"/>
      <point x="600" y="-352" type="line"/>
      <point x="620" y="-356" type="line"/>
      <point x="631" y="-370" type="line"/>
      <point x="630" y="-385" type="line"/>
      <point x="609" y="-390" type="line"/>
      <point x="578" y="-383" type="line"/>
    </contour>
  </outline>
</glyph>
<glyph name="at" format="2">
  <advance width="2406" />
  <unicode hex="0040" />
  <outline>
    <contour>
      <point x="2203" y="512" type="curve" smooth="yes" />
      <point x="2203" y="1114" />
      <point x="1777" y="1516" />
      <point x="1219" y="1516" type="curve" smooth="yes" />
      <point x="669" y="1516" />
      <point x="233" y="1094" />
      <point x="233" y="492" type="curve" smooth="yes" />
      <point x="233" y="-86" />
      <point x="711" y="-456" />
      <point x="1203" y="-456" type="curve" smooth="yes" />
      <point x="1547" y="-456" />
      <point x="1705" y="-328" />
      <point x="1705" y="-328" type="curve" />
      <point x="1677" y="-284" type="line" />
      <point x="1677" y="-284" />
      <point x="1545" y="-408" />
      <point x="1199" y="-408" type="curve" smooth="yes" />
      <point x="747" y="-408" />
      <point x="287" y="-60" />
      <point x="287" y="492" type="curve" smooth="yes" />
      <point x="287" y="1064" />
      <point x="693" y="1468" />
      <point x="1219" y="1468" type="curve" smooth="yes" />
      <point x="1753" y="1468" />
      <point x="2149" y="1080" />
      <point x="2149" y="512" type="curve" smooth="yes" />
      <point x="2149" y="160" />
      <point x="2027" y="24" />
      <point x="1877" y="24" type="curve" smooth="yes" />
      <point x="1727" y="24" />
      <point x="1643" y="126" />
      <point x="1643" y="400" type="curve" smooth="yes" />
      <point x="1643" y="714" type="line" smooth="yes" />
      <point x="1643" y="970" />
      <point x="1495" y="1124" />
      <point x="1219" y="1124" type="curve" smooth="yes" />
      <point x="933" y="1124" />
      <point x="811" y="918" />
      <point x="811" y="918" type="curve" />
      <point x="855" y="886" type="line" />
      <point x="855" y="886" />
      <point x="953" y="1076" />
      <point x="1221" y="1076" type="curve" smooth="yes" />
      <point x="1479" y="1076" />
      <point x="1589" y="936" />
      <point x="1589" y="720" type="curve" smooth="yes" />
      <point x="1589" y="400" type="line" smooth="yes" />
      <point x="1589" y="86" />
      <point x="1717" y="-24" />
      <point x="1877" y="-24" type="curve" smooth="yes" />
      <point x="2037" y="-24" />
      <point x="2203" y="132" />
    </contour>
    <contour>
      <point x="1133" y="24" type="curve" smooth="yes" />
      <point x="981" y="24" />
      <point x="817" y="90" />
      <point x="817" y="276" type="curve" smooth="yes" />
      <point x="817" y="534" />
      <point x="1143" y="608" />
      <point x="1595" y="608" type="curve" />
      <point x="1595" y="656" type="line" />
      <point x="1129" y="656" />
      <point x="763" y="584" />
      <point x="763" y="262" type="curve" smooth="yes" />
      <point x="763" y="84" />
      <point x="933" y="-24" />
      <point x="1125" y="-24" type="curve" smooth="yes" />
      <point x="1513" y="-24" />
      <point x="1613" y="350" />
      <point x="1613" y="550" type="curve" />
      <point x="1589" y="574" type="line" />
      <point x="1589" y="288" />
      <point x="1429" y="24" />
    </contour>
  </outline>
</glyph>
<glyph name="A" format="2">
  <advance width="1260"/>
  <unicode hex="0041"/>
  <outline>
    <contour>
      <point x="40" y="0" type="line"/>
      <point x="98" y="0" type="line"/>
      <point x="303" y="543" type="line"/>
      <point x="263" y="522" type="line"/>
      <point x="997" y="522" type="line"/>
      <point x="956" y="543" type="line"/>
      <point x="1161" y="0" type="line"/>
      <point x="1220" y="0" type="line"/>
      <point x="656" y="1480" type="line"/>
      <point x="604" y="1480" type="line"/>
    </contour>
    <contour>
      <point x="953" y="551" type="line"/>
      <point x="974" y="575" type="line"/>
      <point x="285" y="575" type="line"/>
      <point x="306" y="551" type="line"/>
      <point x="588" y="1296" type="line"/>
      <point x="611" y="1357"/>
      <point x="642" y="1448"/>
      <point x="642" y="1463" type="curve"/>
      <point x="618" y="1463" type="line"/>
      <point x="618" y="1448"/>
      <point x="649" y="1357"/>
      <point x="672" y="1296" type="curve"/>
    </contour>
  </outline>
</glyph>
<glyph name="B" format="2">
  <advance width="1314"/>
  <unicode hex="0042"/>
  <outline>
    <contour>
      <point x="193" y="0" type="line"/>
      <point x="250" y="0" type="line"/>
      <point x="250" y="1480" type="line"/>
      <point x="193" y="1480" type="line"/>
    </contour>
    <contour>
      <point x="693" y="0" type="line"/>
      <point x="983" y="0"/>
      <point x="1218" y="96"/>
      <point x="1218" y="420" type="curve" smooth="yes"/>
      <point x="1218" y="680"/>
      <point x="997" y="771"/>
      <point x="743" y="770" type="curve"/>
      <point x="743" y="766" type="line"/>
      <point x="921" y="766"/>
      <point x="1158" y="840"/>
      <point x="1158" y="1115" type="curve" smooth="yes"/>
      <point x="1158" y="1350"/>
      <point x="993" y="1480"/>
      <point x="703" y="1480" type="curve"/>
      <point x="234" y="1480" type="line"/>
      <point x="234" y="1428" type="line"/>
      <point x="683" y="1428" type="line"/>
      <point x="953" y="1428"/>
      <point x="1101" y="1336"/>
      <point x="1101" y="1115" type="curve" smooth="yes"/>
      <point x="1101" y="840"/>
      <point x="853" y="791"/>
      <point x="663" y="791" type="curve"/>
      <point x="234" y="791" type="line"/>
      <point x="234" y="739" type="line"/>
      <point x="693" y="739" type="line"/>
      <point x="1023" y="739"/>
      <point x="1161" y="621"/>
      <point x="1161" y="420" type="curve" smooth="yes"/>
      <point x="1161" y="136"/>
      <point x="959" y="52"/>
      <point x="693" y="52" type="curve"/>
      <point x="234" y="52" type="line"/>
      <point x="234" y="0" type="line"/>
    </contour>
  </outline>
</glyph>
<glyph name="C" format="2">
  <advance width="1381"/>
  <unicode hex="0043"/>
  <guideline x="512" y="746" angle="30" identifier="fontra-guideline-0"/>
  <guideline x="512" y="746" angle="150" identifier="fontra-guideline-1"/>
  <outline>
    <contour>
      <point x="750" y="-24" type="curve" smooth="yes"/>
      <point x="1165" y="-24"/>
      <point x="1284" y="297"/>
      <point x="1285" y="300" type="curve"/>
      <point x="1239" y="326" type="line"/>
      <point x="1237" y="321"/>
      <point x="1140" y="28"/>
      <point x="750" y="28" type="curve" smooth="yes"/>
      <point x="462" y="28"/>
      <point x="177" y="216"/>
      <point x="177" y="746" type="curve" smooth="yes"/>
      <point x="177" y="1276"/>
      <point x="462" y="1464"/>
      <point x="750" y="1464" type="curve" smooth="yes"/>
      <point x="1120" y="1464"/>
      <point x="1217" y="1172"/>
      <point x="1219" y="1167" type="curve"/>
      <point x="1265" y="1191" type="line"/>
      <point x="1264" y="1194"/>
      <point x="1145" y="1516"/>
      <point x="750" y="1516" type="curve" smooth="yes"/>
      <point x="436" y="1516"/>
      <point x="120" y="1304"/>
      <point x="120" y="746" type="curve" smooth="yes"/>
      <point x="120" y="188"/>
      <point x="436" y="-24"/>
    </contour>
  </outline>
</glyph>
<glyph name="D" format="2">
  <advance width="1453"/>
  <unicode hex="0044"/>
  <outline>
    <contour>
      <point x="193" y="1480" type="curve"/>
      <point x="193" y="3" type="line"/>
      <point x="250" y="-1"/>
      <point x="392" y="-7"/>
      <point x="561" y="-7" type="curve" smooth="yes"/>
      <point x="949" y="-7"/>
      <point x="1333" y="132"/>
      <point x="1333" y="742" type="curve" smooth="yes"/>
      <point x="1333" y="1352"/>
      <point x="949" y="1490"/>
      <point x="561" y="1490" type="curve" smooth="yes"/>
      <point x="392" y="1490"/>
      <point x="250" y="1484"/>
    </contour>
    <contour>
      <point x="573" y="1438" type="curve" smooth="yes"/>
      <point x="1043" y="1438"/>
      <point x="1276" y="1222"/>
      <point x="1276" y="742" type="curve" smooth="yes"/>
      <point x="1276" y="262"/>
      <point x="1043" y="45"/>
      <point x="573" y="45" type="curve" smooth="yes"/>
      <point x="370" y="45"/>
      <point x="250" y="51"/>
      <point x="225" y="55" type="curve"/>
      <point x="250" y="30" type="line"/>
      <point x="250" y="1453" type="line"/>
      <point x="225" y="1428" type="line"/>
      <point x="250" y="1432"/>
      <point x="370" y="1438"/>
    </contour>
  </outline>
</glyph>
<glyph name="E" format="2">
  <advance width="1239"/>
  <unicode hex="0045"/>
  <outline>
    <contour>
      <point x="193" y="0" type="line"/>
      <point x="1143" y="0" type="line"/>
      <point x="1143" y="52" type="line"/>
      <point x="250" y="52" type="line"/>
      <point x="250" y="726" type="line"/>
      <point x="1043" y="726" type="line"/>
      <point x="1043" y="778" type="line"/>
      <point x="250" y="778" type="line"/>
      <point x="250" y="1428" type="line"/>
      <point x="1103" y="1428" type="line"/>
      <point x="1103" y="1480" type="line"/>
      <point x="193" y="1480" type="line"/>
    </contour>
  </outline>
</glyph>
<glyph name="F" format="2">
  <advance width="1169"/>
  <unicode hex="0046"/>
  <outline>
    <contour>
      <point x="193" y="1480" type="line"/>
      <point x="1073" y="1480" type="line"/>
      <point x="1073" y="1428" type="line"/>
      <point x="250" y="1428" type="line"/>
      <point x="250" y="768" type="line"/>
      <point x="1013" y="768" type="line"/>
      <point x="1013" y="716" type="line"/>
      <point x="250" y="716" type="line"/>
      <point x="250" y="0" type="line"/>
      <point x="193" y="0" type="line"/>
    </contour>
  </outline>
</glyph>
<glyph name="G" format="2">
  <advance width="1426"/>
  <unicode hex="0047"/>
  <outline>
    <contour>
      <point x="750" y="1516" type="curve" smooth="yes"/>
      <point x="436" y="1516"/>
      <point x="120" y="1304"/>
      <point x="120" y="716" type="curve" smooth="yes"/>
      <point x="120" y="208"/>
      <point x="436" y="-24"/>
      <point x="746" y="-24" type="curve" smooth="yes"/>
      <point x="1215" y="-24"/>
      <point x="1260" y="410"/>
      <point x="1260" y="438" type="curve"/>
      <point x="1234" y="513" type="line"/>
      <point x="1234" y="392"/>
      <point x="1170" y="28"/>
      <point x="746" y="28" type="curve" smooth="yes"/>
      <point x="462" y="28"/>
      <point x="177" y="236"/>
      <point x="177" y="716" type="curve" smooth="yes"/>
      <point x="177" y="1276"/>
      <point x="462" y="1464"/>
      <point x="750" y="1464" type="curve" smooth="yes"/>
      <point x="1120" y="1464"/>
      <point x="1217" y="1172"/>
      <point x="1219" y="1167" type="curve"/>
      <point x="1265" y="1191" type="line"/>
      <point x="1264" y="1194"/>
      <point x="1145" y="1516"/>
    </contour>
    <contour>
      <point x="800" y="726" type="line"/>
      <point x="800" y="674" type="line"/>
      <point x="1260" y="674" type="line"/>
      <point x="1234" y="702" type="line"/>
      <point x="1234" y="400" type="line"/>
      <point x="1240" y="0" type="line"/>
      <point x="1291" y="0" type="line"/>
      <point x="1291" y="726" type="line"/>
    </contour>
  </outline>
</glyph>
<glyph name="H" format="2">
  <advance width="1466"/>
  <unicode hex="0048"/>
  <outline>
    <contour>
      <point x="193" y="0" type="line"/>
      <point x="250" y="0" type="line"/>
      <point x="250" y="726" type="line"/>
      <point x="1216" y="726" type="line"/>
      <point x="1216" y="0" type="line"/>
      <point x="1273" y="0" type="line"/>
      <point x="1273" y="1480" type="line"/>
      <point x="1216" y="1480" type="line"/>
      <point x="1216" y="778" type="line"/>
      <point x="250" y="778" type="line"/>
      <point x="250" y="1480" type="line"/>
      <point x="193" y="1480" type="line"/>
    </contour>
  </outline>
</glyph>
<glyph name="I" format="2">
  <advance width="443"/>
  <unicode hex="0049"/>
  <outline>
    <contour>
      <point x="193" y="0" type="line"/>
      <point x="193" y="1480" type="line"/>
      <point x="250" y="1480" type="line"/>
      <point x="250" y="0" type="line"/>
    </contour>
  </outline>
</glyph>
<glyph name="J" format="2">
  <advance width="751"/>
  <unicode hex="004A"/>
  <outline>
    <contour>
      <point x="501" y="1480" type="line"/>
      <point x="501" y="112" type="line" smooth="yes"/>
      <point x="501" y="-105"/>
      <point x="391" y="-148"/>
      <point x="229" y="-148" type="curve" smooth="yes"/>
      <point x="123" y="-148"/>
      <point x="49" y="-130"/>
      <point x="45" y="-128" type="curve"/>
      <point x="40" y="-180" type="line"/>
      <point x="44" y="-182"/>
      <point x="103" y="-200"/>
      <point x="238" y="-200" type="curve" smooth="yes"/>
      <point x="405" y="-200"/>
      <point x="558" y="-132"/>
      <point x="558" y="88" type="curve" smooth="yes"/>
      <point x="558" y="1480" type="line"/>
    </contour>
  </outline>
</glyph>
<glyph name="L" format="2">
  <advance width="1113"/>
  <unicode hex="004C"/>
  <outline>
    <contour>
      <point x="193" y="0" type="line"/>
      <point x="1073" y="0" type="line"/>
      <point x="1073" y="52" type="line"/>
      <point x="250" y="52" type="line"/>
      <point x="250" y="1480" type="line"/>
      <point x="193" y="1480" type="line"/>
    </contour>
  </outline>
</glyph>
<glyph name="M" format="2">
  <advance width="1564"/>
  <unicode hex="004D"/>
  <outline>
    <contour>
      <point x="135" y="0" type="line"/>
      <point x="192" y="0" type="line"/>
      <point x="192" y="1100" type="line"/>
      <point x="192" y="1297"/>
      <point x="182" y="1430"/>
      <point x="182" y="1450" type="curve"/>
      <point x="171" y="1420" type="line"/>
      <point x="570" y="684" type="line"/>
      <point x="737" y="396" type="line"/>
      <point x="769" y="396" type="line"/>
      <point x="936" y="684" type="line"/>
      <point x="1335" y="1420" type="line"/>
      <point x="1324" y="1450" type="line"/>
      <point x="1324" y="1430"/>
      <point x="1314" y="1297"/>
      <point x="1314" y="1100" type="curve"/>
      <point x="1314" y="0" type="line"/>
      <point x="1371" y="0" type="line"/>
      <point x="1371" y="1480" type="line"/>
      <point x="1317" y="1480" type="line"/>
      <point x="1316" y="1478"/>
      <point x="1241" y="1356"/>
      <point x="1150" y="1188" type="curve"/>
      <point x="895" y="717" type="line"/>
      <point x="741" y="443" type="line"/>
      <point x="765" y="443" type="line"/>
      <point x="611" y="717" type="line"/>
      <point x="356" y="1188" type="line"/>
      <point x="265" y="1356"/>
      <point x="190" y="1478"/>
      <point x="189" y="1480" type="curve"/>
      <point x="135" y="1480" type="line"/>
    </contour>
  </outline>
</glyph>
<glyph name="N" format="2">
  <advance width="1350"/>
  <unicode hex="004E"/>
  <guideline x="362" y="1428" angle="0"/>
  <outline>
    <contour>
      <point x="135" y="0" type="line"/>
      <point x="192" y="0" type="line"/>
      <point x="187" y="1100" type="line"/>
      <point x="187" y="1297"/>
      <point x="182" y="1430"/>
      <point x="182" y="1450" type="curve"/>
      <point x="171" y="1416" type="line"/>
      <point x="1160" y="0" type="line"/>
      <point x="1215" y="0" type="line"/>
      <point x="1215" y="1480" type="line"/>
      <point x="1158" y="1480" type="line"/>
      <point x="1158" y="380" type="line"/>
      <point x="1158" y="183"/>
      <point x="1168" y="50"/>
      <point x="1168" y="30" type="curve"/>
      <point x="1179" y="64" type="line"/>
      <point x="190" y="1480" type="line"/>
      <point x="135" y="1480" type="line"/>
    </contour>
  </outline>
</glyph>
<glyph name="O" format="2">
  <advance width="1500"/>
  <unicode hex="004F"/>
  <outline>
    <contour>
      <point x="750" y="1516" type="curve" smooth="yes"/>
      <point x="436" y="1516"/>
      <point x="120" y="1296"/>
      <point x="120" y="746" type="curve" smooth="yes"/>
      <point x="120" y="196"/>
      <point x="436" y="-24"/>
      <point x="750" y="-24" type="curve" smooth="yes"/>
      <point x="1064" y="-24"/>
      <point x="1380" y="196"/>
      <point x="1380" y="746" type="curve"/>
      <point x="1380" y="1296"/>
      <point x="1064" y="1516"/>
    </contour>
    <contour>
      <point x="750" y="1464" type="curve" smooth="yes"/>
      <point x="1040" y="1464"/>
      <point x="1323" y="1276"/>
      <point x="1323" y="746" type="curve" smooth="yes"/>
      <point x="1323" y="216"/>
      <point x="1040" y="28"/>
      <point x="750" y="28" type="curve" smooth="yes"/>
      <point x="460" y="28"/>
      <point x="177" y="216"/>
      <point x="177" y="746" type="curve" smooth="yes"/>
      <point x="177" y="1276"/>
      <point x="460" y="1464"/>
    </contour>
  </outline>
</glyph>
<glyph name="P" format="2">
  <advance width="1269"/>
  <unicode hex="0050"/>
  <outline>
    <contour>
      <point x="193" y="1480" type="line"/>
      <point x="707" y="1480" type="line" smooth="yes"/>
      <point x="979" y="1480"/>
      <point x="1149" y="1330"/>
      <point x="1149" y="1062" type="curve" smooth="yes"/>
      <point x="1149" y="826"/>
      <point x="979" y="662"/>
      <point x="707" y="662" type="curve" smooth="yes"/>
      <point x="250" y="662" type="line"/>
      <point x="250" y="0" type="line"/>
      <point x="193" y="0" type="line"/>
    </contour>
    <contour>
      <point x="250" y="1428" type="line"/>
      <point x="250" y="714" type="line"/>
      <point x="673" y="714" type="line"/>
      <point x="933" y="714"/>
      <point x="1092" y="832"/>
      <point x="1092" y="1072" type="curve" smooth="yes"/>
      <point x="1092" y="1322"/>
      <point x="933" y="1428"/>
      <point x="673" y="1428" type="curve"/>
    </contour>
  </outline>
</glyph>
<glyph name="Q" format="2">
  <advance width="1500"/>
  <unicode hex="0051"/>
  <guideline x="938" y="-422" angle="15" name="-15x3"/>
  <guideline x="954" y="34" angle="22.52056560289691"/>
  <outline>
    <contour>
      <point x="947" y="31" type="line"/>
      <point x="1287" y="-329" type="line"/>
      <point x="1342" y="-314" type="line"/>
      <point x="990" y="49" type="line"/>
    </contour>
    <component base="O"/>
  </outline>
</glyph>
<glyph name="R" format="2">
  <advance width="1246"/>
  <unicode hex="0052"/>
  <outline>
    <contour>
      <point x="656" y="670" type="line"/>
      <point x="978" y="660"/>
      <point x="1158" y="806"/>
      <point x="1158" y="1066" type="curve" smooth="yes"/>
      <point x="1158" y="1316"/>
      <point x="979" y="1480"/>
      <point x="666" y="1480" type="curve"/>
      <point x="193" y="1480" type="line"/>
      <point x="193" y="0" type="line"/>
      <point x="250" y="0" type="line"/>
      <point x="250" y="652" type="line"/>
      <point x="645" y="652" type="line"/>
      <point x="849" y="652"/>
      <point x="972" y="540"/>
      <point x="1043" y="324" type="curve" smooth="yes"/>
      <point x="1149" y="0" type="line"/>
      <point x="1206" y="0" type="line"/>
      <point x="1097" y="334" type="line" smooth="yes"/>
      <point x="1009" y="606"/>
      <point x="840" y="682"/>
      <point x="656" y="682" type="curve"/>
    </contour>
    <contour>
      <point x="250" y="1428" type="line"/>
      <point x="672" y="1428" type="line"/>
      <point x="939" y="1428"/>
      <point x="1101" y="1296"/>
      <point x="1101" y="1066" type="curve" smooth="yes"/>
      <point x="1101" y="826"/>
      <point x="942" y="704"/>
      <point x="672" y="704" type="curve"/>
      <point x="250" y="704" type="line"/>
    </contour>
  </outline>
</glyph>
<glyph name="S" format="2">
  <advance width="1291"/>
  <unicode hex="0053"/>
  <guideline x="512" y="856" angle="30"/>
  <guideline x="512" y="480" angle="30"/>
  <guideline x="512" y="785" angle="165"/>
  <guideline x="196" y="1354" angle="90"/>
  <outline>
    <contour>
      <point x="675" y="-24" type="curve" smooth="yes"/>
      <point x="1005" y="-24"/>
      <point x="1171" y="156"/>
      <point x="1171" y="364" type="curve" smooth="yes"/>
      <point x="1171" y="883"/>
      <point x="234" y="626"/>
      <point x="234" y="1120" type="curve" smooth="yes"/>
      <point x="234" y="1300"/>
      <point x="350" y="1464"/>
      <point x="655" y="1464" type="curve" smooth="yes"/>
      <point x="1013" y="1464"/>
      <point x="1081" y="1224"/>
      <point x="1083" y="1214" type="curve"/>
      <point x="1130" y="1241" type="line"/>
      <point x="1124" y="1260"/>
      <point x="1035" y="1516"/>
      <point x="653" y="1516" type="curve" smooth="yes"/>
      <point x="319" y="1516"/>
      <point x="177" y="1334"/>
      <point x="177" y="1118" type="curve" smooth="yes"/>
      <point x="177" y="575"/>
      <point x="1114" y="816"/>
      <point x="1114" y="360" type="curve" smooth="yes"/>
      <point x="1114" y="180"/>
      <point x="983" y="28"/>
      <point x="673" y="28" type="curve" smooth="yes"/>
      <point x="305" y="28"/>
      <point x="188" y="264"/>
      <point x="187" y="276" type="curve"/>
      <point x="140" y="249" type="line"/>
      <point x="141" y="237"/>
      <point x="261" y="-24"/>
    </contour>
  </outline>
</glyph>
<glyph name="T" format="2">
  <advance width="1217"/>
  <unicode hex="0054"/>
  <outline>
    <contour>
      <point x="40" y="1480" type="line"/>
      <point x="1177" y="1480" type="line"/>
      <point x="1177" y="1428" type="line"/>
      <point x="637" y="1428" type="line"/>
      <point x="637" y="0" type="line"/>
      <point x="580" y="0" type="line"/>
      <point x="580" y="1428" type="line"/>
      <point x="40" y="1428" type="line"/>
    </contour>
  </outline>
</glyph>
<glyph name="U" format="2">
  <advance width="1378"/>
  <unicode hex="0055"/>
  <outline>
    <contour>
      <point x="193" y="1480" type="line"/>
      <point x="193" y="518" type="line" smooth="yes"/>
      <point x="193" y="140"/>
      <point x="411" y="-24"/>
      <point x="734" y="-24" type="curve" smooth="yes"/>
      <point x="1056" y="-24"/>
      <point x="1275" y="140"/>
      <point x="1275" y="518" type="curve" smooth="yes"/>
      <point x="1275" y="1480" type="line"/>
      <point x="1218" y="1480" type="line"/>
      <point x="1218" y="530" type="line" smooth="yes"/>
      <point x="1218" y="179"/>
      <point x="1049" y="28"/>
      <point x="734" y="28" type="curve" smooth="yes"/>
      <point x="428" y="28"/>
      <point x="250" y="179"/>
      <point x="250" y="530" type="curve" smooth="yes"/>
      <point x="250" y="1480" type="line"/>
    </contour>
  </outline>
</glyph>
<glyph name="V" format="2">
  <advance width="1340"/>
  <unicode hex="0056"/>
  <outline>
    <contour>
      <point x="40" y="1479" type="line"/>
      <point x="644" y="0" type="line"/>
      <point x="696" y="0" type="line"/>
      <point x="1300" y="1480" type="line"/>
      <point x="1244" y="1480" type="line"/>
      <point x="661" y="27" type="line"/>
      <point x="679" y="27" type="line"/>
      <point x="96" y="1479" type="line"/>
    </contour>
  </outline>
</glyph>
<glyph name="W" format="2">
  <advance width="1880"/>
  <unicode hex="0057"/>
  <guideline x="541" y="0" angle="74.00009899802154"/>
  <guideline x="1140" y="694" angle="285.99990100197846"/>
  <outline>
    <contour>
      <point x="40" y="1480" type="line"/>
      <point x="466" y="0" type="line"/>
      <point x="541" y="0" type="line"/>
      <point x="891" y="1221" type="line"/>
      <point x="925" y="1339"/>
      <point x="946" y="1441"/>
      <point x="946" y="1463" type="curve"/>
      <point x="934" y="1463" type="line"/>
      <point x="934" y="1441"/>
      <point x="955" y="1339"/>
      <point x="989" y="1221" type="curve"/>
      <point x="1339" y="0" type="line"/>
      <point x="1414" y="0" type="line"/>
      <point x="1840" y="1480" type="line"/>
      <point x="1783" y="1480" type="line"/>
      <point x="1515" y="550" type="line"/>
      <point x="1458" y="352"/>
      <point x="1370" y="39"/>
      <point x="1370" y="17" type="curve"/>
      <point x="1382" y="17" type="line"/>
      <point x="1382" y="29"/>
      <point x="1278" y="406"/>
      <point x="1195" y="694" type="curve"/>
      <point x="967" y="1480" type="line"/>
      <point x="940" y="1480" type="line"/>
      <point x="913" y="1480" type="line"/>
      <point x="685" y="694" type="line"/>
      <point x="602" y="406"/>
      <point x="498" y="29"/>
      <point x="498" y="17" type="curve"/>
      <point x="510" y="17" type="line"/>
      <point x="510" y="39"/>
      <point x="422" y="352"/>
      <point x="365" y="550" type="curve"/>
      <point x="97" y="1480" type="line"/>
    </contour>
  </outline>
</glyph>
<glyph name="X" format="2">
  <advance width="1280"/>
  <unicode hex="0058"/>
  <guideline x="640" y="1480" angle="90"/>
  <guideline x="-2" y="746" angle="0"/>
  <outline>
    <contour>
      <point x="79" y="1480" type="line"/>
      <point x="1173" y="0" type="line"/>
      <point x="1240" y="0" type="line"/>
      <point x="146" y="1480" type="line"/>
    </contour>
    <contour>
      <point x="40" y="0" type="line"/>
      <point x="110" y="0" type="line"/>
      <point x="682" y="748" type="line"/>
      <point x="623" y="748" type="line"/>
    </contour>
    <contour>
      <point x="685" y="744" type="line"/>
      <point x="1216" y="1480" type="line"/>
      <point x="1149" y="1480" type="line"/>
      <point x="624" y="744" type="line"/>
    </contour>
  </outline>
</glyph>
<glyph name="Y" format="2">
  <advance width="1240"/>
  <unicode hex="0059"/>
  <guideline x="620" y="1200" angle="90"/>
  <outline>
    <contour>
      <point x="30" y="1480" type="line"/>
      <point x="591" y="592" type="line"/>
      <point x="591" y="0" type="line"/>
      <point x="648" y="0" type="line"/>
      <point x="648" y="592" type="line"/>
      <point x="1210" y="1480" type="line"/>
      <point x="1145" y="1480" type="line"/>
      <point x="803" y="940" type="line"/>
      <point x="696" y="771"/>
      <point x="605" y="623"/>
      <point x="605" y="613" type="curve"/>
      <point x="634" y="613" type="line"/>
      <point x="634" y="623"/>
      <point x="544" y="771"/>
      <point x="437" y="940" type="curve"/>
      <point x="95" y="1480" type="line"/>
    </contour>
  </outline>
</glyph>
<glyph name="Z" format="2">
  <advance width="1275"/>
  <unicode hex="005A"/>
  <outline>
    <contour>
      <point x="96" y="0" type="line"/>
      <point x="1179" y="0" type="line"/>
      <point x="1179" y="52" type="line"/>
      <point x="136" y="52" type="line"/>
      <point x="143" y="24" type="line"/>
      <point x="1139" y="1433" type="line"/>
      <point x="1139" y="1480" type="line"/>
      <point x="126" y="1480" type="line"/>
      <point x="126" y="1428" type="line"/>
      <point x="1099" y="1428" type="line"/>
      <point x="1092" y="1456" type="line"/>
      <point x="96" y="47" type="line"/>
    </contour>
  </outline>
</glyph>
<glyph name="bracketleft" format="2">
  <advance width="613" />
  <unicode hex="005B" />
  <outline>
    <contour>
      <point x="223" y="-274" type="line" />
      <point x="223" y="1502" type="line" />
      <point x="509" y="1502" type="line" />
      <point x="509" y="1550" type="line" />
      <point x="169" y="1550" type="line" />
      <point x="169" y="-322" type="line" />
      <point x="509" y="-322" type="line" />
      <point x="509" y="-274" type="line" />
    </contour>
  </outline>
</glyph>
<glyph name="underscore" format="2">
  <advance width="944"/>
  <unicode hex="005F"/>
  <outline>
    <contour>
      <point x="34" y="0" type="line"/>
      <point x="34" y="-48" type="line"/>
      <point x="910" y="-48" type="line"/>
      <point x="910" y="0" type="line"/>
    </contour>
  </outline>
</glyph>
<glyph name="a" format="2">
  <advance width="1256"/>
  <unicode hex="0061"/>
  <guideline x="53" y="1042" angle="145" identifier="fontra-guideline-0"/>
  <anchor x="639" y="1316" name="top"/>
  <outline>
    <contour>
      <point x="653" y="1124" type="curve" smooth="yes"/>
      <point x="935" y="1124"/>
      <point x="1063" y="960"/>
      <point x="1063" y="714" type="curve" smooth="yes"/>
      <point x="1063" y="0" type="line"/>
      <point x="1015" y="0" type="line"/>
      <point x="1009" y="400" type="line"/>
      <point x="1009" y="720" type="line"/>
      <point x="1009" y="926"/>
      <point x="919" y="1076"/>
      <point x="655" y="1076" type="curve" smooth="yes"/>
      <point x="373" y="1076"/>
      <point x="273" y="888"/>
      <point x="273" y="888" type="curve"/>
      <point x="231" y="918" type="line"/>
      <point x="231" y="918"/>
      <point x="353" y="1124"/>
    </contour>
    <contour>
      <point x="553" y="24" type="curve" smooth="yes"/>
      <point x="849" y="24"/>
      <point x="1009" y="288"/>
      <point x="1009" y="574" type="curve"/>
      <point x="1033" y="550" type="line"/>
      <point x="1033" y="350"/>
      <point x="933" y="-24"/>
      <point x="545" y="-24" type="curve" smooth="yes"/>
      <point x="353" y="-24"/>
      <point x="183" y="84"/>
      <point x="183" y="262" type="curve" smooth="yes"/>
      <point x="183" y="584"/>
      <point x="549" y="656"/>
      <point x="1015" y="656" type="curve"/>
      <point x="1015" y="608" type="line"/>
      <point x="563" y="608"/>
      <point x="237" y="534"/>
      <point x="237" y="276" type="curve" smooth="yes"/>
      <point x="237" y="90"/>
      <point x="401" y="24"/>
    </contour>
  </outline>
</glyph>
<glyph name="b" format="2">
  <advance width="1274" />
  <unicode hex="0062" />
  <outline>
    <contour>
      <point x="193" y="1550" type="line" />
      <point x="193" y="0" type="line" />
      <point x="243" y="0" type="line" />
      <point x="249" y="400" type="line" />
      <point x="219" y="554" type="line" />
      <point x="247" y="790" type="line" />
      <point x="247" y="1550" type="line" />
    </contour>
    <contour>
      <point x="657" y="1124" type="curve" smooth="yes" />
      <point x="461" y="1124" />
      <point x="209" y="970" />
      <point x="209" y="554" type="curve" smooth="yes" />
      <point x="209" y="130" />
      <point x="461" y="-24" />
      <point x="657" y="-24" type="curve" smooth="yes" />
      <point x="837" y="-24" />
      <point x="1121" y="106" />
      <point x="1121" y="554" type="curve" smooth="yes" />
      <point x="1121" y="990" />
      <point x="837" y="1124" />
    </contour>
    <contour>
      <point x="657" y="1076" type="curve" smooth="yes" />
      <point x="855" y="1076" />
      <point x="1073" y="904" />
      <point x="1073" y="554" type="curve" smooth="yes" />
      <point x="1073" y="188" />
      <point x="855" y="24" />
      <point x="657" y="24" type="curve" smooth="yes" />
      <point x="413" y="24" />
      <point x="237" y="230" />
      <point x="237" y="554" type="curve" smooth="yes" />
      <point x="237" y="878" />
      <point x="409" y="1076" />
    </contour>
  </outline>
</glyph>
<glyph name="c" format="2">
  <advance width="1216" />
  <unicode hex="0063" />
  <guideline x="447" y="550" angle="30" />
  <guideline x="447" y="550" angle="150" />
  <guideline x="447" y="838" angle="0" />
  <guideline x="447" y="262" angle="0" />
  <outline>
    <contour>
      <point x="207" y="550" type="curve" smooth="yes" />
      <point x="207" y="170" />
      <point x="433" y="24" />
      <point x="673" y="24" type="curve" smooth="yes" />
      <point x="943" y="24" />
      <point x="1033" y="212" />
      <point x="1033" y="212" type="curve" />
      <point x="1073" y="188" type="line" />
      <point x="1073" y="188" />
      <point x="963" y="-24" />
      <point x="673" y="-24" type="curve" smooth="yes" />
      <point x="413" y="-24" />
      <point x="153" y="134" />
      <point x="153" y="550" type="curve" smooth="yes" />
      <point x="153" y="966" />
      <point x="413" y="1124" />
      <point x="673" y="1124" type="curve" smooth="yes" />
      <point x="963" y="1124" />
      <point x="1073" y="912" />
      <point x="1073" y="912" type="curve" />
      <point x="1033" y="888" type="line" />
      <point x="1033" y="888" />
      <point x="943" y="1076" />
      <point x="673" y="1076" type="curve" smooth="yes" />
      <point x="433" y="1076" />
      <point x="207" y="930" />
    </contour>
  </outline>
</glyph>
<glyph name="d" format="2">
  <advance width="1188" />
  <unicode hex="0064" />
  <outline>
    <contour>
      <point x="984" y="1550" type="line" />
      <point x="984" y="790" type="line" />
      <point x="1012" y="554" type="line" />
      <point x="982" y="400" type="line" />
      <point x="988" y="0" type="line" />
      <point x="1038" y="0" type="line" />
      <point x="1038" y="1550" type="line" />
    </contour>
    <contour>
      <point x="574" y="1124" type="curve" smooth="yes" />
      <point x="394" y="1124" />
      <point x="110" y="990" />
      <point x="110" y="554" type="curve" smooth="yes" />
      <point x="110" y="106" />
      <point x="394" y="-24" />
      <point x="574" y="-24" type="curve" smooth="yes" />
      <point x="770" y="-24" />
      <point x="1022" y="130" />
      <point x="1022" y="554" type="curve" smooth="yes" />
      <point x="1022" y="970" />
      <point x="770" y="1124" />
    </contour>
    <contour>
      <point x="574" y="1076" type="curve" smooth="yes" />
      <point x="822" y="1076" />
      <point x="994" y="878" />
      <point x="994" y="554" type="curve" smooth="yes" />
      <point x="994" y="230" />
      <point x="818" y="24" />
      <point x="574" y="24" type="curve" smooth="yes" />
      <point x="376" y="24" />
      <point x="158" y="188" />
      <point x="158" y="554" type="curve" smooth="yes" />
      <point x="158" y="904" />
      <point x="376" y="1076" />
    </contour>
  </outline>
</glyph>
<glyph name="e" format="2">
  <advance width="1146" />
  <unicode hex="0065" />
  <guideline x="404" y="550" angle="150" />
  <guideline x="404" y="550" angle="30" />
  <guideline x="404" y="262" angle="0" />
  <outline>
    <contour>
      <point x="992" y="694" type="line" />
      <point x="992" y="898" />
      <point x="842" y="1076" />
      <point x="600" y="1076" type="curve" smooth="yes" />
      <point x="360" y="1076" />
      <point x="164" y="908" />
      <point x="164" y="540" type="curve" />
      <point x="164" y="518" type="line" />
      <point x="164" y="158" />
      <point x="374" y="24" />
      <point x="616" y="24" type="curve" smooth="yes" />
      <point x="900" y="24" />
      <point x="990" y="212" />
      <point x="990" y="212" type="curve" />
      <point x="1030" y="188" type="line" />
      <point x="1030" y="188" />
      <point x="940" y="-24" />
      <point x="610" y="-24" type="curve" smooth="yes" />
      <point x="370" y="-24" />
      <point x="110" y="114" />
      <point x="110" y="540" type="curve" />
      <point x="110" y="966" />
      <point x="362" y="1124" />
      <point x="600" y="1124" type="curve" />
      <point x="864" y="1124" />
      <point x="1046" y="920" />
      <point x="1046" y="668" type="curve" smooth="yes" />
      <point x="1046" y="614" />
      <point x="1042" y="588" />
      <point x="1042" y="586" type="curve" />
      <point x="144" y="586" type="line" />
      <point x="144" y="634" type="line" />
      <point x="1012" y="634" type="line" />
      <point x="992" y="614" type="line" />
    </contour>
  </outline>
</glyph>
<glyph name="f" format="2">
  <advance width="950" />
  <unicode hex="0066" />
  <guideline x="515" y="-450" angle="80" />
  <outline>
    <contour>
      <point x="153" y="1100" type="line" />
      <point x="809" y="1100" type="line" />
      <point x="809" y="1052" type="line" />
      <point x="153" y="1052" type="line" />
    </contour>
    <contour>
      <point x="409" y="0" type="line" />
      <point x="355" y="0" type="line" />
      <point x="355" y="1256" type="line" />
      <point x="355" y="1460" />
      <point x="475" y="1586" />
      <point x="699" y="1586" type="curve" smooth="yes" />
      <point x="807" y="1586" />
      <point x="867" y="1548" />
      <point x="867" y="1548" type="curve" />
      <point x="859" y="1500" type="line" />
      <point x="857" y="1502" />
      <point x="799" y="1538" />
      <point x="703" y="1538" type="curve" smooth="yes" />
      <point x="493" y="1538" />
      <point x="409" y="1430" />
      <point x="409" y="1250" type="curve" />
    </contour>
  </outline>
</glyph>
<glyph name="g" format="2">
  <advance width="1337" />
  <unicode hex="0067" />
  <guideline x="1265" y="550" angle="95" name="5deg" />
  <guideline x="1265" y="550" angle="85" name="-5deg" />
  <guideline x="443" y="262" angle="0" />
  <guideline x="443" y="92" angle="177" name="-3deg" />
  <outline>
    <contour>
      <point x="223" y="-202" type="curve" smooth="yes" />
      <point x="223" y="-298" />
      <point x="301" y="-414" />
      <point x="703" y="-414" type="curve" smooth="yes" />
      <point x="1053" y="-414" />
      <point x="1179" y="-314" />
      <point x="1179" y="-184" type="curve" smooth="yes" />
      <point x="1179" y="-26" />
      <point x="969" y="-4" />
      <point x="705" y="2" type="curve" smooth="yes" />
      <point x="449" y="6" />
      <point x="223" y="-26" />
    </contour>
    <contour>
      <point x="1107" y="752" type="curve" smooth="yes" />
      <point x="1107" y="550" />
      <point x="943" y="394" />
      <point x="683" y="394" type="curve" smooth="yes" />
      <point x="423" y="394" />
      <point x="251" y="550" />
      <point x="251" y="752" type="curve" smooth="yes" />
      <point x="251" y="1008" />
      <point x="459" y="1124" />
      <point x="683" y="1124" type="curve" smooth="yes" />
      <point x="899" y="1124" />
      <point x="1107" y="1008" />
    </contour>
    <contour>
      <point x="305" y="756" type="curve" smooth="yes" />
      <point x="305" y="566" />
      <point x="449" y="442" />
      <point x="683" y="442" type="curve" smooth="yes" />
      <point x="917" y="442" />
      <point x="1053" y="566" />
      <point x="1053" y="756" type="curve" smooth="yes" />
      <point x="1053" y="972" />
      <point x="877" y="1076" />
      <point x="683" y="1076" type="curve" smooth="yes" />
      <point x="489" y="1076" />
      <point x="305" y="976" />
    </contour>
    <contour>
      <point x="727" y="24" type="line" />
      <point x="707" y="24" />
      <point x="251" y="-20" />
      <point x="251" y="226" type="curve" smooth="yes" />
      <point x="251" y="340" />
      <point x="359" y="468" />
      <point x="695" y="424" type="curve" />
      <point x="703" y="398" type="line" />
      <point x="533" y="418" />
      <point x="299" y="398" />
      <point x="299" y="228" type="curve" smooth="yes" />
      <point x="299" y="54" />
      <point x="581" y="62" />
      <point x="757" y="54" type="curve" smooth="yes" />
      <point x="951" y="46" />
      <point x="1233" y="28" />
      <point x="1233" y="-190" type="curve" smooth="yes" />
      <point x="1233" y="-376" />
      <point x="1001" y="-462" />
      <point x="703" y="-462" type="curve" smooth="yes" />
      <point x="369" y="-462" />
      <point x="169" y="-374" />
      <point x="169" y="-206" type="curve" smooth="yes" />
      <point x="169" y="-24" />
      <point x="383" y="46" />
      <point x="719" y="32" type="curve" />
    </contour>
    <contour>
      <point x="927" y="1040" type="line" />
      <point x="927" y="1040" />
      <point x="1021" y="1172" />
      <point x="1211" y="1172" type="curve" />
      <point x="1215" y="1124" type="line" />
      <point x="1199" y="1124" type="line" />
      <point x="1029" y="1124" />
      <point x="951" y="1016" />
      <point x="951" y="1016" type="curve" />
    </contour>
    <contour>
      <point x="251" y="528" type="move" />
    </contour>
  </outline>
</glyph>
<glyph name="h" format="2">
  <advance width="614" />
  <unicode hex="0068" />
  <outline>
    <contour>
      <point x="80" y="775" type="line" />
      <point x="80" y="0" type="line" />
      <point x="107" y="0" type="line" />
      <point x="107" y="775" type="line" />
    </contour>
    <contour>
      <point x="345" y="562" type="curve" smooth="yes" />
      <point x="141" y="562" />
      <point x="99" y="351" />
      <point x="99" y="331" type="curve" />
      <point x="107" y="273" type="line" />
      <point x="107" y="376" />
      <point x="173" y="538" />
      <point x="343" y="538" type="curve" smooth="yes" />
      <point x="464" y="538" />
      <point x="518" y="472" />
      <point x="518" y="359" type="curve" smooth="yes" />
      <point x="518" y="0" type="line" />
      <point x="544" y="0" type="line" />
      <point x="544" y="360" type="line" smooth="yes" />
      <point x="544" y="491" />
      <point x="471" y="562" />
    </contour>
  </outline>
</glyph>
<glyph name="j" format="2">
  <advance width="374" />
  <unicode hex="006A" />
  <guideline x="120" y="1550" angle="85" />
  <outline>
    <contour>
      <point x="234" y="1460" type="curve" smooth="yes" />
      <point x="234" y="1494" />
      <point x="212" y="1508" />
      <point x="190" y="1508" type="curve" smooth="yes" />
      <point x="168" y="1508" />
      <point x="146" y="1494" />
      <point x="146" y="1460" type="curve" />
      <point x="146" y="1426" />
      <point x="168" y="1412" />
      <point x="190" y="1412" type="curve" smooth="yes" />
      <point x="212" y="1412" />
      <point x="234" y="1426" />
    </contour>
    <contour>
      <point x="-44" y="-442" type="line" />
      <point x="-44" y="-442" />
      <point x="-12" y="-462" />
      <point x="62" y="-462" type="curve" smooth="yes" />
      <point x="170" y="-462" />
      <point x="214" y="-394" />
      <point x="214" y="-314" type="curve" smooth="yes" />
      <point x="214" y="1100" type="line" />
      <point x="160" y="1100" type="line" />
      <point x="160" y="-310" type="line" smooth="yes" />
      <point x="160" y="-372" />
      <point x="136" y="-414" />
      <point x="58" y="-414" type="curve" smooth="yes" />
      <point x="-12" y="-414" />
      <point x="-40" y="-394" />
      <point x="-40" y="-394" type="curve" />
    </contour>
  </outline>
</glyph>
<glyph name="k" format="2">
  <advance width="1164" />
  <unicode hex="006B" />
  <outline>
    <contour>
      <point x="262" y="0" type="line" />
      <point x="208" y="0" type="line" />
      <point x="208" y="1550" type="line" />
      <point x="262" y="1550" type="line" />
    </contour>
    <contour>
      <point x="258" y="406" type="line" />
      <point x="958" y="1100" type="line" />
      <point x="1032" y="1100" type="line" />
      <point x="512" y="592" type="line" />
      <point x="262" y="346" type="line" />
      <point x="238" y="346" type="line" />
    </contour>
    <contour>
      <point x="1060" y="0" type="line" />
      <point x="990" y="0" type="line" />
      <point x="484" y="586" type="line" />
      <point x="520" y="620" type="line" />
    </contour>
  </outline>
</glyph>
<glyph name="l" format="2">
  <advance width="611" />
  <unicode hex="006C" />
  <guideline x="438" y="1550" angle="95" />
  <outline>
    <contour>
      <point x="572" y="10" type="line" />
      <point x="572" y="10" />
      <point x="534" y="-10" />
      <point x="450" y="-10" type="curve" smooth="yes" />
      <point x="310" y="-10" />
      <point x="208" y="58" />
      <point x="208" y="230" type="curve" smooth="yes" />
      <point x="208" y="1550" type="line" />
      <point x="262" y="1550" type="line" />
      <point x="262" y="238" type="line" smooth="yes" />
      <point x="262" y="80" />
      <point x="334" y="38" />
      <point x="454" y="38" type="curve" smooth="yes" />
      <point x="534" y="38" />
      <point x="568" y="58" />
      <point x="568" y="58" type="curve" />
    </contour>
  </outline>
</glyph>
<glyph name="m" format="2">
  <advance width="1939" />
  <unicode hex="006D" />
  <outline>
    <contour>
      <point x="195" y="1100" type="line" />
      <point x="195" y="0" type="line" />
      <point x="249" y="0" type="line" />
      <point x="249" y="700" type="line" />
      <point x="243" y="1100" type="line" />
    </contour>
    <contour>
      <point x="665" y="1124" type="curve" smooth="yes" />
      <point x="277" y="1124" />
      <point x="233" y="702" />
      <point x="233" y="662" type="curve" />
      <point x="249" y="546" type="line" />
      <point x="249" y="752" />
      <point x="341" y="1076" />
      <point x="661" y="1076" type="curve" smooth="yes" />
      <point x="903" y="1076" />
      <point x="951" y="884" />
      <point x="951" y="738" type="curve" smooth="yes" />
      <point x="951" y="0" type="line" />
      <point x="1003" y="0" type="line" />
      <point x="1003" y="740" type="line" smooth="yes" />
      <point x="1003" y="922" />
      <point x="917" y="1124" />
    </contour>
    <contour>
      <point x="1419" y="1124" type="curve" smooth="yes" />
      <point x="1031" y="1124" />
      <point x="987" y="702" />
      <point x="987" y="662" type="curve" />
      <point x="1003" y="546" type="line" />
      <point x="1003" y="752" />
      <point x="1095" y="1076" />
      <point x="1415" y="1076" type="curve" smooth="yes" />
      <point x="1657" y="1076" />
      <point x="1705" y="884" />
      <point x="1705" y="738" type="curve" smooth="yes" />
      <point x="1705" y="0" type="line" />
      <point x="1757" y="0" type="line" />
      <point x="1757" y="740" type="line" smooth="yes" />
      <point x="1757" y="922" />
      <point x="1671" y="1124" />
    </contour>
  </outline>
</glyph>
<glyph name="n" format="2">
  <advance width="1218" />
  <unicode hex="006E" />
  <outline>
    <contour>
      <point x="150" y="1100" type="line" />
      <point x="150" y="0" type="line" />
      <point x="204" y="0" type="line" />
      <point x="204" y="700" type="line" />
      <point x="198" y="1100" type="line" />
    </contour>
    <contour>
      <point x="680" y="1124" type="curve" smooth="yes" />
      <point x="272" y="1124" />
      <point x="188" y="702" />
      <point x="188" y="662" type="curve" />
      <point x="204" y="546" type="line" />
      <point x="204" y="752" />
      <point x="336" y="1076" />
      <point x="676" y="1076" type="curve" smooth="yes" />
      <point x="918" y="1076" />
      <point x="1026" y="944" />
      <point x="1026" y="718" type="curve" smooth="yes" />
      <point x="1026" y="0" type="line" />
      <point x="1078" y="0" type="line" />
      <point x="1078" y="720" type="line" smooth="yes" />
      <point x="1078" y="982" />
      <point x="932" y="1124" />
    </contour>
  </outline>
</glyph>
<glyph name="o" format="2">
  <advance width="1220" />
  <unicode hex="006F" />
  <outline>
    <contour>
      <point x="610" y="-24" type="curve" smooth="yes" />
      <point x="342" y="-24" />
      <point x="110" y="154" />
      <point x="110" y="550" type="curve" smooth="yes" />
      <point x="110" y="946" />
      <point x="342" y="1124" />
      <point x="610" y="1124" type="curve" smooth="yes" />
      <point x="878" y="1124" />
      <point x="1110" y="946" />
      <point x="1110" y="550" type="curve" smooth="yes" />
      <point x="1110" y="154" />
      <point x="878" y="-24" />
    </contour>
    <contour>
      <point x="1056" y="550" type="curve" smooth="yes" />
      <point x="1056" y="926" />
      <point x="846" y="1076" />
      <point x="610" y="1076" type="curve" smooth="yes" />
      <point x="374" y="1076" />
      <point x="164" y="926" />
      <point x="164" y="550" type="curve" smooth="yes" />
      <point x="164" y="174" />
      <point x="374" y="24" />
      <point x="610" y="24" type="curve" smooth="yes" />
      <point x="846" y="24" />
      <point x="1056" y="174" />
    </contour>
  </outline>
</glyph>
<glyph name="p" format="2">
  <advance width="1279" />
  <unicode hex="0070" />
  <outline>
    <contour>
      <point x="208" y="1100" type="line" />
      <point x="208" y="-450" type="line" />
      <point x="262" y="-450" type="line" />
      <point x="262" y="310" type="line" />
      <point x="234" y="546" type="line" />
      <point x="264" y="700" type="line" />
      <point x="258" y="1100" type="line" />
    </contour>
    <contour>
      <point x="672" y="1124" type="curve" smooth="yes" />
      <point x="476" y="1124" />
      <point x="224" y="970" />
      <point x="224" y="546" type="curve" smooth="yes" />
      <point x="224" y="130" />
      <point x="476" y="-24" />
      <point x="672" y="-24" type="curve" smooth="yes" />
      <point x="852" y="-24" />
      <point x="1136" y="110" />
      <point x="1136" y="546" type="curve" smooth="yes" />
      <point x="1136" y="994" />
      <point x="852" y="1124" />
    </contour>
    <contour>
      <point x="672" y="1076" type="curve" smooth="yes" />
      <point x="870" y="1076" />
      <point x="1088" y="912" />
      <point x="1088" y="546" type="curve" smooth="yes" />
      <point x="1088" y="196" />
      <point x="870" y="24" />
      <point x="672" y="24" type="curve" smooth="yes" />
      <point x="424" y="24" />
      <point x="252" y="222" />
      <point x="252" y="546" type="curve" smooth="yes" />
      <point x="252" y="870" />
      <point x="428" y="1076" />
    </contour>
  </outline>
</glyph>
<glyph name="q" format="2">
  <advance width="1218"/>
  <unicode hex="0071"/>
  <anchor x="614" y="0" name="bottom"/>
  <anchor x="614" y="1100" name="top"/>
  <outline>
    <contour>
      <point x="1006" y="1100" type="line"/>
      <point x="1000" y="700" type="line"/>
      <point x="1030" y="546" type="line"/>
      <point x="1002" y="310" type="line"/>
      <point x="1002" y="-450" type="line"/>
      <point x="1056" y="-450" type="line"/>
      <point x="1056" y="1100" type="line"/>
    </contour>
    <contour>
      <point x="592" y="1124" type="curve" smooth="yes"/>
      <point x="412" y="1124"/>
      <point x="128" y="994"/>
      <point x="128" y="546" type="curve" smooth="yes"/>
      <point x="128" y="110"/>
      <point x="412" y="-24"/>
      <point x="592" y="-24" type="curve" smooth="yes"/>
      <point x="788" y="-24"/>
      <point x="1040" y="130"/>
      <point x="1040" y="546" type="curve" smooth="yes"/>
      <point x="1040" y="970"/>
      <point x="788" y="1124"/>
    </contour>
    <contour>
      <point x="592" y="1076" type="curve" smooth="yes"/>
      <point x="836" y="1076"/>
      <point x="1012" y="870"/>
      <point x="1012" y="546" type="curve" smooth="yes"/>
      <point x="1012" y="222"/>
      <point x="840" y="24"/>
      <point x="592" y="24" type="curve" smooth="yes"/>
      <point x="394" y="24"/>
      <point x="182" y="196"/>
      <point x="182" y="546" type="curve" smooth="yes"/>
      <point x="182" y="912"/>
      <point x="394" y="1076"/>
    </contour>
  </outline>
</glyph>
<glyph name="r" format="2">
  <advance width="429" />
  <unicode hex="0072" />
  <guideline x="372" y="275" angle="85" />
  <outline>
    <contour>
      <point x="75" y="550" type="line" />
      <point x="75" y="0" type="line" />
      <point x="102" y="0" type="line" />
      <point x="102" y="350" type="line" />
      <point x="99" y="550" type="line" />
    </contour>
    <contour>
      <point x="319" y="562" type="curve" smooth="yes" />
      <point x="149" y="562" />
      <point x="94" y="353" />
      <point x="94" y="333" type="curve" />
      <point x="102" y="275" type="line" />
      <point x="102" y="378" />
      <point x="183" y="538" />
      <point x="314" y="538" type="curve" smooth="yes" />
      <point x="367" y="538" />
      <point x="393" y="526" />
      <point x="394" y="525" type="curve" />
      <point x="396" y="547" type="line" />
      <point x="396" y="547" type="line" />
      <point x="395" y="548" />
      <point x="367" y="562" />
    </contour>
  </outline>
</glyph>
<glyph name="s" format="2">
  <advance width="1152" />
  <unicode hex="0073" />
  <guideline x="603" y="550" angle="45" />
  <guideline x="603" y="550" angle="40" />
  <guideline x="603" y="550" angle="50" />
  <outline>
    <contour>
      <point x="969" y="988" type="curve" />
      <point x="935" y="948" type="line" />
      <point x="935" y="948" />
      <point x="821" y="1076" />
      <point x="601" y="1076" type="curve" smooth="yes" />
      <point x="381" y="1076" />
      <point x="241" y="976" />
      <point x="241" y="816" type="curve" smooth="yes" />
      <point x="241" y="496" />
      <point x="1009" y="658" />
      <point x="1009" y="282" type="curve" smooth="yes" />
      <point x="1009" y="94" />
      <point x="861" y="-24" />
      <point x="595" y="-24" type="curve" smooth="yes" />
      <point x="271" y="-24" />
      <point x="153" y="174" />
      <point x="153" y="174" type="curve" />
      <point x="193" y="208" type="line" />
      <point x="195" y="206" />
      <point x="321" y="24" />
      <point x="603" y="24" type="curve" smooth="yes" />
      <point x="823" y="24" />
      <point x="955" y="124" />
      <point x="955" y="284" type="curve" smooth="yes" />
      <point x="955" y="600" />
      <point x="187" y="442" />
      <point x="187" y="818" type="curve" smooth="yes" />
      <point x="187" y="998" />
      <point x="337" y="1124" />
      <point x="591" y="1124" type="curve" smooth="yes" />
      <point x="847" y="1124" />
      <point x="969" y="988" />
    </contour>
  </outline>
</glyph>
<glyph name="t" format="2">
  <advance width="918" />
  <unicode hex="0074" />
  <guideline x="696" y="1550" angle="95" name="-5deg" />
  <guideline x="10" y="1388" angle="0" />
  <guideline x="10" y="1340" angle="0" />
  <outline>
    <contour>
      <point x="80" y="1100" type="line" />
      <point x="814" y="1100" type="line" />
      <point x="814" y="1052" type="line" />
      <point x="80" y="1052" type="line" />
    </contour>
    <contour>
      <point x="336" y="1388" type="line" />
      <point x="336" y="314" type="line" smooth="yes" />
      <point x="336" y="128" />
      <point x="422" y="36" />
      <point x="620" y="36" type="curve" smooth="yes" />
      <point x="756" y="36" />
      <point x="824" y="94" />
      <point x="824" y="94" type="curve" />
      <point x="828" y="46" type="line" />
      <point x="828" y="46" />
      <point x="752" y="-12" />
      <point x="616" y="-12" type="curve" smooth="yes" />
      <point x="380" y="-12" />
      <point x="282" y="118" />
      <point x="282" y="312" type="curve" smooth="yes" />
      <point x="282" y="1100" type="line" />
      <point x="288" y="1388" type="line" />
    </contour>
  </outline>
</glyph>
<glyph name="u" format="2">
  <advance width="1294" />
  <unicode hex="0075" />
  <outline>
    <contour>
      <point x="1057" y="1100" type="line" />
      <point x="1057" y="400" type="line" />
      <point x="1063" y="0" type="line" />
      <point x="1111" y="0" type="line" />
      <point x="1111" y="1100" type="line" />
    </contour>
    <contour>
      <point x="183" y="1100" type="line" />
      <point x="183" y="380" type="line" smooth="yes" />
      <point x="183" y="118" />
      <point x="329" y="-24" />
      <point x="581" y="-24" type="curve" smooth="yes" />
      <point x="989" y="-24" />
      <point x="1073" y="398" />
      <point x="1073" y="438" type="curve" />
      <point x="1057" y="554" type="line" />
      <point x="1057" y="348" />
      <point x="925" y="24" />
      <point x="585" y="24" type="curve" smooth="yes" />
      <point x="343" y="24" />
      <point x="235" y="156" />
      <point x="235" y="382" type="curve" smooth="yes" />
      <point x="235" y="1100" type="line" />
    </contour>
  </outline>
</glyph>
<glyph name="v" format="2">
  <advance width="1178" />
  <unicode hex="0076" />
  <outline>
    <contour>
      <point x="573" y="0" type="line" />
      <point x="123" y="1100" type="line" />
      <point x="175" y="1100" type="line" />
      <point x="595" y="66" type="line" />
      <point x="585" y="66" type="line" />
      <point x="999" y="1100" type="line" />
      <point x="1055" y="1100" type="line" />
      <point x="605" y="0" type="line" />
    </contour>
  </outline>
</glyph>
<glyph name="w" format="2">
  <advance width="1580"/>
  <unicode hex="0077"/>
  <outline>
    <contour>
      <point x="832" y="1100" type="line"/>
      <point x="1154" y="66" type="line"/>
      <point x="1144" y="66" type="line"/>
      <point x="1476" y="1100" type="line"/>
      <point x="1540" y="1100" type="line"/>
      <point x="1168" y="0" type="line"/>
      <point x="1128" y="0" type="line"/>
      <point x="792" y="1068" type="line"/>
      <point x="802" y="1068" type="line"/>
      <point x="470" y="0" type="line"/>
      <point x="430" y="0" type="line"/>
      <point x="40" y="1100" type="line"/>
      <point x="92" y="1100" type="line"/>
      <point x="454" y="66" type="line"/>
      <point x="444" y="66" type="line"/>
      <point x="760" y="1100" type="line"/>
    </contour>
  </outline>
</glyph>
<glyph name="x" format="2">
  <advance width="1034" />
  <unicode hex="0078" />
  <outline>
    <contour>
      <point x="104" y="1100" type="line" />
      <point x="496" y="540" type="line" />
      <point x="496" y="558" type="line" />
      <point x="80" y="0" type="line" />
      <point x="138" y="0" type="line" />
      <point x="530" y="530" type="line" />
      <point x="512" y="530" type="line" />
      <point x="888" y="0" type="line" />
      <point x="954" y="0" type="line" />
      <point x="546" y="558" type="line" />
      <point x="546" y="540" type="line" />
      <point x="930" y="1100" type="line" />
      <point x="874" y="1100" type="line" />
      <point x="512" y="568" type="line" />
      <point x="530" y="568" type="line" />
      <point x="162" y="1100" type="line" />
    </contour>
  </outline>
</glyph>
<glyph name="y" format="2">
  <advance width="1000"/>
  <unicode hex="0079"/>
  <anchor x="504" y="1100" name="top"/>
  <anchor x="504" y="0" name="bottom"/>
  <outline>
    <contour>
      <point x="300" y="-450" type="line"/>
      <point x="496" y="30" type="line"/>
      <point x="496" y="-30" type="line"/>
      <point x="34" y="1100" type="line"/>
      <point x="86" y="1100" type="line"/>
      <point x="520" y="32" type="line"/>
      <point x="496" y="32" type="line"/>
      <point x="910" y="1100" type="line"/>
      <point x="966" y="1100" type="line"/>
      <point x="356" y="-450" type="line"/>
    </contour>
  </outline>
</glyph>
<glyph name="z" format="2">
  <advance width="1040" />
  <unicode hex="007A" />
  <outline>
    <contour>
      <point x="100" y="1100" type="line" />
      <point x="100" y="1052" type="line" />
      <point x="916" y="1052" type="line" />
      <point x="916" y="1088" type="line" />
      <point x="80" y="42" type="line" />
      <point x="80" y="0" type="line" />
      <point x="960" y="0" type="line" />
      <point x="960" y="48" type="line" />
      <point x="112" y="48" type="line" />
      <point x="112" y="12" type="line" />
      <point x="948" y="1058" type="line" />
      <point x="948" y="1100" type="line" />
    </contour>
  </outline>
</glyph>
<glyph name="braceleft" format="2">
  <advance width="846" />
  <unicode hex="007B" />
  <guideline x="563" y="614" angle="105" name="l" identifier="fontra-guideline-0" />
  <guideline x="471" y="614" angle="75" name="r" identifier="fontra-guideline-1" />
  <guideline x="405" y="614" angle="105" identifier="fontra-guideline-2" />
  <outline>
    <contour>
      <point x="711" y="1506" type="curve" />
      <point x="723" y="1554" type="line" />
      <point x="723" y="1554" />
      <point x="653" y="1586" />
      <point x="537" y="1586" type="curve" smooth="yes" />
      <point x="371" y="1586" />
      <point x="277" y="1486" />
      <point x="277" y="1330" type="curve" smooth="yes" />
      <point x="277" y="1164" />
      <point x="429" y="922" />
      <point x="429" y="760" type="curve" smooth="yes" />
      <point x="429" y="674" />
      <point x="385" y="646" />
      <point x="275" y="646" type="curve" smooth="yes" />
      <point x="173" y="646" type="line" />
      <point x="173" y="622" type="line" />
      <point x="303" y="622" type="line" />
      <point x="423" y="622" />
      <point x="483" y="658" />
      <point x="483" y="770" type="curve" smooth="yes" />
      <point x="483" y="924" />
      <point x="331" y="1144" />
      <point x="331" y="1336" type="curve" smooth="yes" />
      <point x="331" y="1448" />
      <point x="393" y="1538" />
      <point x="551" y="1538" type="curve" smooth="yes" />
      <point x="643" y="1538" />
      <point x="707" y="1508" />
    </contour>
    <contour>
      <point x="711" y="-262" type="curve" />
      <point x="723" y="-310" type="line" />
      <point x="723" y="-310" />
      <point x="653" y="-342" />
      <point x="537" y="-342" type="curve" smooth="yes" />
      <point x="371" y="-342" />
      <point x="277" y="-242" />
      <point x="277" y="-86" type="curve" smooth="yes" />
      <point x="277" y="80" />
      <point x="429" y="322" />
      <point x="429" y="484" type="curve" smooth="yes" />
      <point x="429" y="570" />
      <point x="385" y="598" />
      <point x="275" y="598" type="curve" smooth="yes" />
      <point x="173" y="598" type="line" />
      <point x="173" y="622" type="line" />
      <point x="303" y="622" type="line" />
      <point x="423" y="622" />
      <point x="483" y="586" />
      <point x="483" y="474" type="curve" smooth="yes" />
      <point x="483" y="320" />
      <point x="331" y="100" />
      <point x="331" y="-92" type="curve" smooth="yes" />
      <point x="331" y="-204" />
      <point x="393" y="-294" />
      <point x="551" y="-294" type="curve" smooth="yes" />
      <point x="643" y="-294" />
      <point x="707" y="-264" />
    </contour>
  </outline>
</glyph>
<glyph name="bar" format="2">
  <advance width="660" />
  <unicode hex="007C" />
  <outline>
    <contour>
      <point x="358" y="1550" type="line" />
      <point x="358" y="-372" type="line" />
      <point x="304" y="-372" type="line" />
      <point x="304" y="1550" type="line" />
    </contour>
  </outline>
</glyph>
<glyph name="asciitilde" format="2">
  <advance width="1170"/>
  <unicode hex="007E"/>
  <outline>
    <contour>
      <point x="361" y="651" type="curve" smooth="yes"/>
      <point x="201" y="651"/>
      <point x="155" y="550"/>
      <point x="155" y="460" type="curve"/>
      <point x="203" y="460" type="line"/>
      <point x="205" y="520"/>
      <point x="237" y="597"/>
      <point x="357" y="597" type="curve" smooth="yes"/>
      <point x="497" y="597"/>
      <point x="659" y="449"/>
      <point x="809" y="449" type="curve" smooth="yes"/>
      <point x="969" y="449"/>
      <point x="1015" y="550"/>
      <point x="1015" y="640" type="curve"/>
      <point x="967" y="640" type="line"/>
      <point x="965" y="580"/>
      <point x="933" y="503"/>
      <point x="813" y="503" type="curve" smooth="yes"/>
      <point x="653" y="503"/>
      <point x="521" y="651"/>
    </contour>
  </outline>
</glyph>
<glyph name="cent" format="2">
  <advance width="1163"/>
  <unicode hex="00A2"/>
  <outline>
    <contour>
      <point x="612" y="1088" type="line"/>
      <point x="660" y="1088" type="line"/>
      <point x="663" y="1337" type="line"/>
      <point x="609" y="1337" type="line"/>
    </contour>
    <contour>
      <point x="612" y="0" type="line"/>
      <point x="609" y="-237" type="line"/>
      <point x="663" y="-237" type="line"/>
      <point x="660" y="0" type="line"/>
    </contour>
    <component base="c"/>
  </outline>
</glyph>
<glyph name="sterling" format="2">
  <advance width="1168"/>
  <unicode hex="00A3"/>
  <outline>
    <contour>
      <point x="116" y="0" type="line"/>
      <point x="1070" y="0" type="line"/>
      <point x="1070" y="52" type="line"/>
      <point x="385" y="52" type="line" smooth="yes"/>
      <point x="268" y="52"/>
      <point x="174" y="43"/>
      <point x="170" y="42" type="curve"/>
      <point x="191" y="32" type="line"/>
      <point x="195" y="33"/>
      <point x="445" y="150"/>
      <point x="352" y="569" type="curve" smooth="yes"/>
      <point x="324" y="694" type="line"/>
      <point x="276" y="911" type="line" smooth="yes"/>
      <point x="178" y="1352"/>
      <point x="414" y="1464"/>
      <point x="632" y="1464" type="curve" smooth="yes"/>
      <point x="922" y="1464"/>
      <point x="1023" y="1218"/>
      <point x="1024" y="1214" type="curve"/>
      <point x="1072" y="1241" type="line"/>
      <point x="1071" y="1245"/>
      <point x="958" y="1516"/>
      <point x="627" y="1516" type="curve" smooth="yes"/>
      <point x="369" y="1516"/>
      <point x="116" y="1378"/>
      <point x="218" y="889" type="curve" smooth="yes"/>
      <point x="259" y="694" type="line"/>
      <point x="285" y="574" type="line" smooth="yes"/>
      <point x="381" y="124"/>
      <point x="120" y="49"/>
      <point x="116" y="47" type="curve"/>
    </contour>
    <contour>
      <point x="96" y="696" type="line"/>
      <point x="942" y="696" type="line"/>
      <point x="942" y="748" type="line"/>
      <point x="96" y="748" type="line"/>
    </contour>
  </outline>
</glyph>
<glyph name="yen" format="2">
  <advance width="1079"/>
  <unicode hex="00A5"/>
  <outline>
    <contour>
      <point x="511" y="0" type="line"/>
      <point x="568" y="0" type="line"/>
      <point x="568" y="592" type="line"/>
      <point x="1049" y="1480" type="line"/>
      <point x="981" y="1480" type="line"/>
      <point x="750" y="1046" type="line"/>
      <point x="530" y="619" type="line"/>
      <point x="549" y="619" type="line"/>
      <point x="329" y="1046" type="line"/>
      <point x="98" y="1480" type="line"/>
      <point x="30" y="1480" type="line"/>
      <point x="511" y="592" type="line"/>
    </contour>
    <contour>
      <point x="165" y="592" type="line"/>
      <point x="524" y="592" type="line"/>
      <point x="524" y="639" type="line"/>
      <point x="520" y="640"/>
      <point x="444" y="644"/>
      <point x="354" y="644" type="curve" smooth="yes"/>
      <point x="165" y="644" type="line"/>
    </contour>
    <contour>
      <point x="555" y="592" type="line"/>
      <point x="914" y="592" type="line"/>
      <point x="914" y="644" type="line"/>
      <point x="725" y="644" type="line" smooth="yes"/>
      <point x="635" y="644"/>
      <point x="559" y="640"/>
      <point x="555" y="639" type="curve"/>
    </contour>
    <contour>
      <point x="165" y="354" type="line"/>
      <point x="914" y="354" type="line"/>
      <point x="914" y="406" type="line"/>
      <point x="165" y="406" type="line"/>
    </contour>
  </outline>
</glyph>
<glyph name="copyright" format="2">
  <advance width="2292"/>
  <unicode hex="00A9"/>
  <outline>
    <contour>
      <point x="1146" y="-232" type="curve" smooth="yes"/>
      <point x="1691" y="-232"/>
      <point x="2072" y="150"/>
      <point x="2072" y="694" type="curve" smooth="yes"/>
      <point x="2072" y="1240"/>
      <point x="1691" y="1620"/>
      <point x="1146" y="1620" type="curve" smooth="yes"/>
      <point x="601" y="1620"/>
      <point x="220" y="1240"/>
      <point x="220" y="694" type="curve" smooth="yes"/>
      <point x="220" y="150"/>
      <point x="601" y="-232"/>
    </contour>
    <contour>
      <point x="1146" y="-184" type="curve" smooth="yes"/>
      <point x="634" y="-184"/>
      <point x="274" y="183"/>
      <point x="274" y="694" type="curve" smooth="yes"/>
      <point x="274" y="1207"/>
      <point x="634" y="1572"/>
      <point x="1146" y="1572" type="curve" smooth="yes"/>
      <point x="1658" y="1572"/>
      <point x="2018" y="1207"/>
      <point x="2018" y="694" type="curve" smooth="yes"/>
      <point x="2018" y="183"/>
      <point x="1658" y="-184"/>
    </contour>
    <component base="c" xOffset="525" yOffset="141"/>
  </outline>
</glyph>
<glyph name="paragraph" format="2">
  <advance width="1125"/>
  <unicode hex="00B6"/>
  <outline>
    <contour>
      <point x="610" y="1516" type="curve" smooth="yes"/>
      <point x="293" y="1516"/>
      <point x="120" y="1315"/>
      <point x="120" y="1029" type="curve" smooth="yes"/>
      <point x="120" y="743"/>
      <point x="293" y="542"/>
      <point x="630" y="542" type="curve" smooth="yes"/>
      <point x="704" y="542"/>
      <point x="757" y="548"/>
      <point x="761" y="550" type="curve"/>
      <point x="761" y="1453" type="line"/>
      <point x="799" y="1450"/>
      <point x="837" y="1445"/>
      <point x="875" y="1437" type="curve"/>
      <point x="875" y="0" type="line"/>
      <point x="932" y="0" type="line"/>
      <point x="932" y="1480" type="line"/>
      <point x="926" y="1481"/>
      <point x="797" y="1516"/>
    </contour>
  </outline>
</glyph>
<glyph name="multiply" format="2">
  <advance width="1096" />
  <unicode hex="00D7" />
  <outline>
    <contour>
      <point x="182" y="344" type="line" />
      <point x="218" y="308" type="line" />
      <point x="906" y="1036" type="line" />
      <point x="870" y="1072" type="line" />
    </contour>
    <contour>
      <point x="226" y="1070" type="line" />
      <point x="190" y="1034" type="line" />
      <point x="878" y="308" type="line" />
      <point x="914" y="344" type="line" />
    </contour>
  </outline>
</glyph>
<glyph name="germandbls" format="2">
  <advance width="1280"/>
  <unicode hex="00DF"/>
  <guideline x="494" y="0" angle="85"/>
  <outline>
    <contour>
      <point x="610" y="1586" type="curve" smooth="yes"/>
      <point x="355" y="1586"/>
      <point x="175" y="1461"/>
      <point x="175" y="1121" type="curve" smooth="yes"/>
      <point x="175" y="1" type="line"/>
      <point x="229" y="1" type="line"/>
      <point x="229" y="1135" type="line" smooth="yes"/>
      <point x="229" y="1441"/>
      <point x="381" y="1538"/>
      <point x="606" y="1538" type="curve" smooth="yes"/>
      <point x="821" y="1538"/>
      <point x="957" y="1428"/>
      <point x="957" y="1215" type="curve" smooth="yes"/>
      <point x="957" y="979"/>
      <point x="762" y="877"/>
      <point x="550" y="877" type="curve"/>
      <point x="550" y="829" type="line"/>
      <point x="551" y="829"/>
      <point x="571" y="834"/>
      <point x="629" y="839" type="curve" smooth="yes"/>
      <point x="909" y="864"/>
      <point x="1136" y="752"/>
      <point x="1136" y="422" type="curve" smooth="yes"/>
      <point x="1136" y="154"/>
      <point x="983" y="24"/>
      <point x="725" y="24" type="curve" smooth="yes"/>
      <point x="565" y="24"/>
      <point x="523" y="58"/>
      <point x="519" y="61" type="curve"/>
      <point x="515" y="9" type="line"/>
      <point x="522" y="4"/>
      <point x="578" y="-24"/>
      <point x="732" y="-24" type="curve" smooth="yes"/>
      <point x="997" y="-24"/>
      <point x="1190" y="122"/>
      <point x="1190" y="415" type="curve"/>
      <point x="1190" y="873"/>
      <point x="777" y="910"/>
      <point x="596" y="867" type="curve"/>
      <point x="596" y="847" type="line"/>
      <point x="845" y="857"/>
      <point x="1011" y="999"/>
      <point x="1011" y="1224" type="curve" smooth="yes"/>
      <point x="1011" y="1453"/>
      <point x="835" y="1586"/>
    </contour>
  </outline>
</glyph>
<glyph name="ccedilla" format="2">
  <advance width="1216" />
  <unicode hex="00E7" />
  <guideline x="353" y="1100" angle="90" name="cedilla left" />
  <guideline x="873" y="1100" angle="90" name="right cedilla" />
  <guideline x="353" y="-450" angle="75" name="left diag" />
  <guideline x="873" y="-450" angle="105" name="right diag" />
  <guideline x="613" y="540" angle="90" name="center" />
  <outline>
    <contour>
      <point x="583" y="-16" type="curve" />
      <point x="583" y="10" type="line" />
      <point x="585" y="10" />
      <point x="895" y="-20" />
      <point x="895" y="-240" type="curve" smooth="yes" />
      <point x="895" y="-376" />
      <point x="763" y="-454" />
      <point x="613" y="-454" type="curve" smooth="yes" />
      <point x="453" y="-454" />
      <point x="369" y="-392" />
      <point x="369" y="-392" type="curve" />
      <point x="381" y="-348" type="line" />
      <point x="383" y="-348" />
      <point x="465" y="-408" />
      <point x="613" y="-408" type="curve" smooth="yes" />
      <point x="751" y="-408" />
      <point x="841" y="-350" />
      <point x="841" y="-234" type="curve" smooth="yes" />
      <point x="841" y="-42" />
      <point x="585" y="-16" />
    </contour>
    <component base="c" xOffset="10" />
  </outline>
</glyph>
<glyph name="idotless" format="2">
  <advance width="391"/>
  <unicode hex="0131"/>
  <anchor x="202" y="1100" name="top"/>
  <anchor x="202" y="0" name="bottom"/>
  <outline>
    <contour>
      <point x="175" y="1100" type="line"/>
      <point x="175" y="0" type="line"/>
      <point x="229" y="0" type="line"/>
      <point x="229" y="1100" type="line"/>
    </contour>
  </outline>
</glyph>
<glyph name="jdotless" format="2">
  <advance width="378"/>
  <unicode hex="0237"/>
  <guideline x="91" y="1550" angle="85"/>
  <anchor x="189" y="1100" name="top"/>
  <anchor x="85" y="-450" name="bottom"/>
  <outline>
    <contour>
      <point x="162" y="-217" type="line" smooth="yes"/>
      <point x="162" y="-354"/>
      <point x="118" y="-406"/>
      <point x="18" y="-406" type="curve" smooth="yes"/>
      <point x="-40" y="-406"/>
      <point x="-78" y="-386"/>
      <point x="-78" y="-386" type="curve"/>
      <point x="-83" y="-434" type="line"/>
      <point x="-83" y="-434"/>
      <point x="-50" y="-454"/>
      <point x="20" y="-454" type="curve" smooth="yes"/>
      <point x="152" y="-454"/>
      <point x="216" y="-376"/>
      <point x="216" y="-226" type="curve" smooth="yes"/>
      <point x="216" y="1100" type="line"/>
      <point x="162" y="1100" type="line"/>
    </contour>
  </outline>
</glyph>
<glyph name="dotaccentcomb" format="2">
  <advance width="168"/>
  <unicode hex="0307"/>
  <outline>
    <contour>
      <point x="128" y="1460" type="curve" smooth="yes"/>
      <point x="128" y="1494"/>
      <point x="106" y="1508"/>
      <point x="84" y="1508" type="curve" smooth="yes"/>
      <point x="62" y="1508"/>
      <point x="40" y="1494"/>
      <point x="40" y="1460" type="curve"/>
      <point x="40" y="1426"/>
      <point x="62" y="1412"/>
      <point x="84" y="1412" type="curve" smooth="yes"/>
      <point x="106" y="1412"/>
      <point x="128" y="1426"/>
    </contour>
  </outline>
</glyph>
<glyph name="Dje-cy" format="2">
  <advance width="1550"/>
  <unicode hex="0402"/>
  <outline>
    <contour>
      <point x="860" y="830" type="curve" smooth="yes"/>
      <point x="646" y="830"/>
      <point x="452" y="769"/>
      <point x="448" y="768" type="curve"/>
      <point x="477" y="753" type="line"/>
      <point x="477" y="1453" type="line"/>
      <point x="452" y="1428" type="line"/>
      <point x="1017" y="1428" type="line"/>
      <point x="1017" y="1480" type="line"/>
      <point x="40" y="1480" type="line"/>
      <point x="40" y="1428" type="line"/>
      <point x="445" y="1428" type="line"/>
      <point x="420" y="1453" type="line"/>
      <point x="420" y="0" type="line"/>
      <point x="477" y="0" type="line"/>
      <point x="477" y="742" type="line"/>
      <point x="448" y="716" type="line"/>
      <point x="452" y="717"/>
      <point x="636" y="778"/>
      <point x="860" y="778" type="curve" smooth="yes"/>
      <point x="1205" y="778"/>
      <point x="1353" y="611"/>
      <point x="1353" y="305" type="curve" smooth="yes"/>
      <point x="1353" y="-30"/>
      <point x="1195" y="-148"/>
      <point x="913" y="-148" type="curve" smooth="yes"/>
      <point x="836" y="-148"/>
      <point x="784" y="-143"/>
      <point x="780" y="-142" type="curve"/>
      <point x="780" y="-194" type="line"/>
      <point x="784" y="-195"/>
      <point x="822" y="-200"/>
      <point x="911" y="-200" type="curve" smooth="yes"/>
      <point x="1260" y="-200"/>
      <point x="1410" y="-23"/>
      <point x="1410" y="315" type="curve" smooth="yes"/>
      <point x="1410" y="635"/>
      <point x="1222" y="830"/>
    </contour>
  </outline>
</glyph>
<glyph name="E-cy" format="2">
  <advance width="1381"/>
  <unicode hex="0404"/>
  <outline>
    <contour>
      <point x="760" y="-24" type="curve" smooth="yes"/>
      <point x="1155" y="-24"/>
      <point x="1284" y="297"/>
      <point x="1285" y="300" type="curve"/>
      <point x="1239" y="326" type="line"/>
      <point x="1237" y="321"/>
      <point x="1120" y="28"/>
      <point x="760" y="28" type="curve" smooth="yes"/>
      <point x="432" y="28"/>
      <point x="177" y="206"/>
      <point x="177" y="746" type="curve" smooth="yes"/>
      <point x="177" y="1286"/>
      <point x="432" y="1464"/>
      <point x="760" y="1464" type="curve" smooth="yes"/>
      <point x="1100" y="1464"/>
      <point x="1217" y="1172"/>
      <point x="1219" y="1167" type="curve"/>
      <point x="1265" y="1191" type="line"/>
      <point x="1264" y="1194"/>
      <point x="1135" y="1516"/>
      <point x="760" y="1516" type="curve" smooth="yes"/>
      <point x="411" y="1516"/>
      <point x="120" y="1304"/>
      <point x="120" y="746" type="curve" smooth="yes"/>
      <point x="120" y="188"/>
      <point x="411" y="-24"/>
    </contour>
    <contour>
      <point x="155" y="726" type="line"/>
      <point x="985" y="726" type="line"/>
      <point x="985" y="778" type="line"/>
      <point x="155" y="778" type="line"/>
    </contour>
  </outline>
</glyph>
<glyph name="Lje-cy" format="2">
  <advance width="2174"/>
  <unicode hex="0409"/>
  <outline>
    <contour>
      <point x="1113" y="0" type="line"/>
      <point x="1566" y="0" type="line" smooth="yes"/>
      <point x="1908" y="0"/>
      <point x="2078" y="119"/>
      <point x="2078" y="389" type="curve" smooth="yes"/>
      <point x="2078" y="659"/>
      <point x="1908" y="778"/>
      <point x="1566" y="778" type="curve" smooth="yes"/>
      <point x="1170" y="778" type="line"/>
      <point x="1170" y="1480" type="line"/>
      <point x="388" y="1480" type="line"/>
      <point x="365" y="1130" type="line" smooth="yes"/>
      <point x="305" y="219"/>
      <point x="227" y="51"/>
      <point x="0" y="51" type="curve"/>
      <point x="0" y="-6" type="line"/>
      <point x="259" y="-6"/>
      <point x="359" y="142"/>
      <point x="423" y="1100" type="curve" smooth="yes"/>
      <point x="445" y="1428" type="line"/>
      <point x="1113" y="1428" type="line"/>
    </contour>
    <contour>
      <point x="1170" y="52" type="line"/>
      <point x="1170" y="726" type="line"/>
      <point x="1562" y="726" type="line" smooth="yes"/>
      <point x="1859" y="726"/>
      <point x="2021" y="649"/>
      <point x="2021" y="389" type="curve" smooth="yes"/>
      <point x="2021" y="129"/>
      <point x="1859" y="52"/>
      <point x="1562" y="52" type="curve" smooth="yes"/>
    </contour>
  </outline>
</glyph>
<glyph name="Nje-cy" format="2">
  <advance width="2217"/>
  <unicode hex="040A"/>
  <outline>
    <contour>
      <point x="193" y="0" type="line"/>
      <point x="250" y="0" type="line"/>
      <point x="250" y="726" type="line"/>
      <point x="1156" y="726" type="line"/>
      <point x="1156" y="0" type="line"/>
      <point x="1609" y="0" type="line" smooth="yes"/>
      <point x="1951" y="0"/>
      <point x="2121" y="119"/>
      <point x="2121" y="389" type="curve" smooth="yes"/>
      <point x="2121" y="659"/>
      <point x="1951" y="778"/>
      <point x="1609" y="778" type="curve" smooth="yes"/>
      <point x="1213" y="778" type="line"/>
      <point x="1213" y="1480" type="line"/>
      <point x="1156" y="1480" type="line"/>
      <point x="1156" y="778" type="line"/>
      <point x="250" y="778" type="line"/>
      <point x="250" y="1480" type="line"/>
      <point x="193" y="1480" type="line"/>
    </contour>
    <contour>
      <point x="1213" y="52" type="line"/>
      <point x="1213" y="726" type="line"/>
      <point x="1605" y="726" type="line" smooth="yes"/>
      <point x="1902" y="726"/>
      <point x="2064" y="649"/>
      <point x="2064" y="389" type="curve" smooth="yes"/>
      <point x="2064" y="129"/>
      <point x="1902" y="52"/>
      <point x="1605" y="52" type="curve" smooth="yes"/>
    </contour>
  </outline>
</glyph>
<glyph name="Tshe-cy" format="2">
  <advance width="1550"/>
  <unicode hex="040B"/>
  <outline>
    <contour>
      <point x="850" y="830" type="curve" smooth="yes"/>
      <point x="646" y="830"/>
      <point x="452" y="769"/>
      <point x="448" y="768" type="curve"/>
      <point x="477" y="753" type="line"/>
      <point x="477" y="1453" type="line"/>
      <point x="452" y="1428" type="line"/>
      <point x="1017" y="1428" type="line"/>
      <point x="1017" y="1480" type="line"/>
      <point x="40" y="1480" type="line"/>
      <point x="40" y="1428" type="line"/>
      <point x="445" y="1428" type="line"/>
      <point x="420" y="1453" type="line"/>
      <point x="420" y="0" type="line"/>
      <point x="477" y="0" type="line"/>
      <point x="477" y="742" type="line"/>
      <point x="448" y="716" type="line"/>
      <point x="452" y="717"/>
      <point x="636" y="778"/>
      <point x="850" y="778" type="curve" smooth="yes"/>
      <point x="1215" y="778"/>
      <point x="1353" y="681"/>
      <point x="1353" y="315" type="curve" smooth="yes"/>
      <point x="1353" y="0" type="line"/>
      <point x="1410" y="0" type="line"/>
      <point x="1410" y="325" type="line" smooth="yes"/>
      <point x="1410" y="715"/>
      <point x="1232" y="830"/>
    </contour>
  </outline>
</glyph>
<glyph name="Dzhe-cy" format="2">
  <advance width="1446"/>
  <unicode hex="040F"/>
  <outline>
    <contour>
      <point x="193" y="0" type="line"/>
      <point x="1253" y="0" type="line"/>
      <point x="1253" y="1480" type="line"/>
      <point x="1196" y="1480" type="line"/>
      <point x="1196" y="52" type="line"/>
      <point x="250" y="52" type="line"/>
      <point x="250" y="1480" type="line"/>
      <point x="193" y="1480" type="line"/>
    </contour>
    <contour>
      <point x="695" y="52" type="line"/>
      <point x="698" y="-322" type="line"/>
      <point x="749" y="-322" type="line"/>
      <point x="752" y="52" type="line"/>
    </contour>
  </outline>
</glyph>
<glyph name="Ge-cy" format="2">
  <advance width="1139"/>
  <unicode hex="0413"/>
  <outline>
    <contour>
      <point x="193" y="0" type="line"/>
      <point x="250" y="0" type="line"/>
      <point x="250" y="1428" type="line"/>
      <point x="1043" y="1428" type="line"/>
      <point x="1043" y="1480" type="line"/>
      <point x="193" y="1480" type="line"/>
    </contour>
  </outline>
</glyph>
<glyph name="De-cy" format="2">
  <advance width="1455"/>
  <unicode hex="0414"/>
  <outline>
    <contour>
      <point x="0" y="-322" type="line"/>
      <point x="51" y="-322" type="line"/>
      <point x="57" y="0" type="line"/>
      <point x="1358" y="0" type="line"/>
      <point x="1364" y="-322" type="line"/>
      <point x="1415" y="-322" type="line"/>
      <point x="1415" y="52" type="line"/>
      <point x="1230" y="52" type="line"/>
      <point x="1230" y="1480" type="line"/>
      <point x="350" y="1480" type="line"/>
      <point x="336" y="1140" type="line" smooth="yes"/>
      <point x="301" y="298"/>
      <point x="230" y="51"/>
      <point x="0" y="51" type="curve"/>
    </contour>
    <contour>
      <point x="55" y="27" type="line"/>
      <point x="262" y="27"/>
      <point x="355" y="221"/>
      <point x="393" y="1100" type="curve" smooth="yes"/>
      <point x="407" y="1428" type="line"/>
      <point x="1173" y="1428" type="line"/>
      <point x="1173" y="52" type="line"/>
      <point x="299" y="52" type="line"/>
      <point x="196" y="52"/>
      <point x="69" y="43"/>
      <point x="55" y="42" type="curve"/>
    </contour>
  </outline>
</glyph>
<glyph name="Zhe-cy" format="2">
  <advance width="1811"/>
  <unicode hex="0416"/>
  <guideline x="0" y="740" angle="0" identifier="fontra-guideline-0"/>
  <outline>
    <contour>
      <point x="877" y="0" type="line"/>
      <point x="934" y="0" type="line"/>
      <point x="934" y="1480" type="line"/>
      <point x="877" y="1480" type="line"/>
    </contour>
    <contour>
      <point x="1697" y="0" type="line"/>
      <point x="1771" y="0" type="line"/>
      <point x="1190" y="759" type="line"/>
      <point x="1190" y="722" type="line"/>
      <point x="1741" y="1480" type="line"/>
      <point x="1667" y="1480" type="line"/>
      <point x="1159" y="766" type="line"/>
      <point x="918" y="766" type="line"/>
      <point x="918" y="714" type="line"/>
      <point x="1158" y="714" type="line"/>
    </contour>
    <contour>
      <point x="40" y="0" type="line"/>
      <point x="114" y="0" type="line"/>
      <point x="653" y="714" type="line"/>
      <point x="893" y="714" type="line"/>
      <point x="893" y="766" type="line"/>
      <point x="652" y="766" type="line"/>
      <point x="144" y="1480" type="line"/>
      <point x="70" y="1480" type="line"/>
      <point x="621" y="722" type="line"/>
      <point x="621" y="759" type="line"/>
    </contour>
  </outline>
</glyph>
<glyph name="Ze-cy" format="2">
  <advance width="1270"/>
  <unicode hex="0417"/>
  <outline>
    <contour>
      <point x="649" y="-24" type="curve" smooth="yes"/>
      <point x="949" y="-24"/>
      <point x="1174" y="127"/>
      <point x="1174" y="377" type="curve" smooth="yes"/>
      <point x="1174" y="567"/>
      <point x="1074" y="757"/>
      <point x="592" y="757" type="curve"/>
      <point x="592" y="743" type="line"/>
      <point x="999" y="743"/>
      <point x="1119" y="938"/>
      <point x="1119" y="1113" type="curve" smooth="yes"/>
      <point x="1119" y="1353"/>
      <point x="929" y="1516"/>
      <point x="633" y="1516" type="curve" smooth="yes"/>
      <point x="264" y="1516"/>
      <point x="148" y="1258"/>
      <point x="148" y="1256" type="curve"/>
      <point x="190" y="1225" type="line"/>
      <point x="190" y="1227"/>
      <point x="299" y="1466"/>
      <point x="633" y="1464" type="curve" smooth="yes"/>
      <point x="854" y="1463"/>
      <point x="1062" y="1365"/>
      <point x="1062" y="1115" type="curve" smooth="yes"/>
      <point x="1062" y="865"/>
      <point x="845" y="778"/>
      <point x="565" y="778" type="curve" smooth="yes"/>
      <point x="414" y="778" type="line"/>
      <point x="414" y="726" type="line"/>
      <point x="565" y="726" type="line" smooth="yes"/>
      <point x="865" y="726"/>
      <point x="1113" y="651"/>
      <point x="1113" y="381" type="curve" smooth="yes"/>
      <point x="1113" y="121"/>
      <point x="874" y="29"/>
      <point x="649" y="28" type="curve" smooth="yes"/>
      <point x="299" y="26"/>
      <point x="165" y="271"/>
      <point x="164" y="273" type="curve"/>
      <point x="120" y="239" type="line"/>
      <point x="120" y="237"/>
      <point x="269" y="-24"/>
    </contour>
  </outline>
</glyph>
<glyph name="Ka-cy" format="2">
  <advance width="1253"/>
  <unicode hex="041A"/>
  <outline>
    <contour>
      <point x="193" y="0" type="line"/>
      <point x="250" y="0" type="line"/>
      <point x="250" y="1480" type="line"/>
      <point x="193" y="1480" type="line"/>
    </contour>
    <contour>
      <point x="1141" y="0" type="line"/>
      <point x="1213" y="0" type="line"/>
      <point x="573" y="771" type="line"/>
      <point x="573" y="734" type="line"/>
      <point x="1181" y="1480" type="line"/>
      <point x="1111" y="1480" type="line"/>
      <point x="541" y="778" type="line"/>
      <point x="234" y="778" type="line"/>
      <point x="234" y="726" type="line"/>
      <point x="540" y="726" type="line"/>
    </contour>
  </outline>
</glyph>
<glyph name="El-cy" format="2">
  <advance width="1423"/>
  <unicode hex="041B"/>
  <outline>
    <contour>
      <point x="0" y="-6" type="line"/>
      <point x="259" y="-6"/>
      <point x="378" y="140"/>
      <point x="413" y="1100" type="curve" smooth="yes"/>
      <point x="425" y="1428" type="line"/>
      <point x="1173" y="1428" type="line"/>
      <point x="1173" y="0" type="line"/>
      <point x="1230" y="0" type="line"/>
      <point x="1230" y="1480" type="line"/>
      <point x="368" y="1480" type="line"/>
      <point x="355" y="1130" type="line" smooth="yes"/>
      <point x="321" y="218"/>
      <point x="227" y="51"/>
      <point x="0" y="51" type="curve"/>
    </contour>
  </outline>
</glyph>
<glyph name="Pe-cy" format="2">
  <advance width="1330"/>
  <unicode hex="041F"/>
  <outline>
    <contour>
      <point x="135" y="0" type="line"/>
      <point x="192" y="0" type="line"/>
      <point x="192" y="1428" type="line"/>
      <point x="1138" y="1428" type="line"/>
      <point x="1138" y="0" type="line"/>
      <point x="1195" y="0" type="line"/>
      <point x="1195" y="1480" type="line"/>
      <point x="135" y="1480" type="line"/>
    </contour>
  </outline>
</glyph>
<glyph name="U-cy" format="2">
  <advance width="1226.9861651660217"/>
  <unicode hex="0423"/>
  <outline>
    <contour>
      <point x="231" y="-6" type="line"/>
      <point x="411" y="-6"/>
      <point x="469" y="46"/>
      <point x="559" y="217" type="curve" smooth="yes"/>
      <point x="568" y="234" type="line"/>
      <point x="1186.9861651660217" y="1480.0055123507339" type="line"/>
      <point x="1122.5290896135932" y="1480" type="line"/>
      <point x="608" y="411" type="line"/>
      <point x="635" y="411" type="line"/>
      <point x="101.52908961359324" y="1480" type="line"/>
      <point x="40" y="1480.0055123507339" type="line"/>
      <point x="606" y="351" type="line"/>
      <point x="601" y="409" type="line"/>
      <point x="521" y="258" type="line"/>
      <point x="512" y="241" type="line" smooth="yes"/>
      <point x="426" y="78"/>
      <point x="383" y="46"/>
      <point x="231" y="46" type="curve"/>
    </contour>
  </outline>
</glyph>
<glyph name="Ef-cy" format="2">
  <advance width="1680"/>
  <unicode hex="0424"/>
  <guideline x="0" y="1300" angle="0"/>
  <guideline x="0" y="1332" angle="0"/>
  <outline>
    <contour>
      <point x="811" y="-24" type="line"/>
      <point x="869" y="-24" type="line"/>
      <point x="869" y="1516" type="line"/>
      <point x="811" y="1516" type="line"/>
    </contour>
    <contour>
      <point x="840" y="161" type="line"/>
      <point x="869" y="160" type="line" smooth="yes"/>
      <point x="1214" y="148"/>
      <point x="1560" y="296"/>
      <point x="1560" y="746" type="curve" smooth="yes"/>
      <point x="1560" y="1196"/>
      <point x="1214" y="1344"/>
      <point x="869" y="1332" type="curve" smooth="yes"/>
      <point x="840" y="1331" type="line"/>
      <point x="811" y="1332" type="line" smooth="yes"/>
      <point x="466" y="1344"/>
      <point x="120" y="1196"/>
      <point x="120" y="746" type="curve" smooth="yes"/>
      <point x="120" y="296"/>
      <point x="466" y="148"/>
      <point x="811" y="160" type="curve" smooth="yes"/>
    </contour>
    <contour>
      <point x="840" y="213" type="line"/>
      <point x="811" y="212" type="line" smooth="yes"/>
      <point x="499" y="201"/>
      <point x="177" y="316"/>
      <point x="177" y="746" type="curve" smooth="yes"/>
      <point x="177" y="1176"/>
      <point x="499" y="1291"/>
      <point x="811" y="1280" type="curve" smooth="yes"/>
      <point x="840" y="1279" type="line"/>
      <point x="869" y="1280" type="line" smooth="yes"/>
      <point x="1181" y="1291"/>
      <point x="1503" y="1176"/>
      <point x="1503" y="746" type="curve" smooth="yes"/>
      <point x="1503" y="316"/>
      <point x="1181" y="201"/>
      <point x="869" y="212" type="curve" smooth="yes"/>
    </contour>
  </outline>
</glyph>
<glyph name="Tse-cy" format="2">
  <advance width="1498"/>
  <unicode hex="0426"/>
  <outline>
    <contour>
      <point x="193" y="0" type="line"/>
      <point x="1253" y="0" type="line"/>
      <point x="1253" y="1480" type="line"/>
      <point x="1196" y="1480" type="line"/>
      <point x="1196" y="52" type="line"/>
      <point x="250" y="52" type="line"/>
      <point x="250" y="1480" type="line"/>
      <point x="193" y="1480" type="line"/>
    </contour>
    <contour>
      <point x="1224" y="0" type="line"/>
      <point x="1401" y="0" type="line"/>
      <point x="1407" y="-322" type="line"/>
      <point x="1458" y="-322" type="line"/>
      <point x="1458" y="52" type="line"/>
      <point x="1224" y="52" type="line"/>
    </contour>
  </outline>
</glyph>
<glyph name="Che-cy" format="2">
  <advance width="1323"/>
  <unicode hex="0427"/>
  <outline>
    <contour>
      <point x="710" y="640" type="curve" smooth="yes"/>
      <point x="914" y="640"/>
      <point x="1098" y="689"/>
      <point x="1102" y="690" type="curve"/>
      <point x="1073" y="705" type="line"/>
      <point x="1073" y="0" type="line"/>
      <point x="1130" y="0" type="line"/>
      <point x="1130" y="1480" type="line"/>
      <point x="1073" y="1480" type="line"/>
      <point x="1073" y="716" type="line"/>
      <point x="1102" y="742" type="line"/>
      <point x="1098" y="741"/>
      <point x="924" y="692"/>
      <point x="710" y="692" type="curve" smooth="yes"/>
      <point x="295" y="692"/>
      <point x="177" y="799"/>
      <point x="177" y="1145" type="curve" smooth="yes"/>
      <point x="177" y="1480" type="line"/>
      <point x="120" y="1480" type="line"/>
      <point x="120" y="1155" type="line" smooth="yes"/>
      <point x="120" y="765"/>
      <point x="278" y="640"/>
    </contour>
  </outline>
</glyph>
<glyph name="Sha-cy" format="2">
  <advance width="2149"/>
  <unicode hex="0428"/>
  <outline>
    <contour>
      <point x="1956" y="0" type="line"/>
      <point x="1956" y="1480" type="line"/>
      <point x="1899" y="1480" type="line"/>
      <point x="1899" y="52" type="line"/>
      <point x="1103" y="52" type="line"/>
      <point x="1103" y="1480" type="line"/>
      <point x="1046" y="1480" type="line"/>
      <point x="1046" y="52" type="line"/>
      <point x="250" y="52" type="line"/>
      <point x="250" y="1480" type="line"/>
      <point x="193" y="1480" type="line"/>
      <point x="193" y="0" type="line"/>
    </contour>
  </outline>
</glyph>
<glyph name="Shcha-cy" format="2">
  <advance width="2201"/>
  <unicode hex="0429"/>
  <outline>
    <contour>
      <point x="1927" y="0" type="line"/>
      <point x="2104" y="0" type="line"/>
      <point x="2110" y="-322" type="line"/>
      <point x="2161" y="-322" type="line"/>
      <point x="2161" y="52" type="line"/>
      <point x="1927" y="52" type="line"/>
    </contour>
    <component base="Sha-cy"/>
  </outline>
</glyph>
<glyph name="Hardsign-cy" format="2">
  <advance width="1526"/>
  <unicode hex="042A"/>
  <outline>
    <contour>
      <point x="434" y="1480" type="line"/>
      <point x="40" y="1480" type="line"/>
      <point x="40" y="1428" type="line"/>
      <point x="434" y="1428" type="line"/>
    </contour>
    <component base="Softsign-cy" xOffset="212"/>
  </outline>
</glyph>
<glyph name="Softsign-cy" format="2">
  <advance width="1314"/>
  <unicode hex="042C"/>
  <outline>
    <contour>
      <point x="193" y="0" type="line"/>
      <point x="706" y="0" type="line" smooth="yes"/>
      <point x="1048" y="0"/>
      <point x="1218" y="145"/>
      <point x="1218" y="415" type="curve" smooth="yes"/>
      <point x="1218" y="685"/>
      <point x="1048" y="830"/>
      <point x="706" y="830" type="curve" smooth="yes"/>
      <point x="250" y="830" type="line"/>
      <point x="250" y="1480" type="line"/>
      <point x="193" y="1480" type="line"/>
    </contour>
    <contour>
      <point x="250" y="52" type="line"/>
      <point x="250" y="778" type="line"/>
      <point x="702" y="778" type="line" smooth="yes"/>
      <point x="999" y="778"/>
      <point x="1161" y="675"/>
      <point x="1161" y="415" type="curve" smooth="yes"/>
      <point x="1161" y="155"/>
      <point x="999" y="52"/>
      <point x="702" y="52" type="curve" smooth="yes"/>
    </contour>
  </outline>
</glyph>
<glyph name="Yu-cy" format="2">
  <advance width="1890"/>
  <unicode hex="042E"/>
  <outline>
    <contour>
      <point x="193" y="0" type="line"/>
      <point x="250" y="0" type="line"/>
      <point x="250" y="726" type="line"/>
      <point x="590" y="726" type="line"/>
      <point x="590" y="778" type="line"/>
      <point x="250" y="778" type="line"/>
      <point x="250" y="1480" type="line"/>
      <point x="193" y="1480" type="line"/>
    </contour>
    <contour>
      <point x="1170" y="-24" type="curve" smooth="yes"/>
      <point x="1520" y="-24"/>
      <point x="1770" y="226"/>
      <point x="1770" y="746" type="curve" smooth="yes"/>
      <point x="1770" y="1266"/>
      <point x="1520" y="1516"/>
      <point x="1170" y="1516" type="curve" smooth="yes"/>
      <point x="820" y="1516"/>
      <point x="570" y="1266"/>
      <point x="570" y="746" type="curve" smooth="yes"/>
      <point x="570" y="226"/>
      <point x="820" y="-24"/>
    </contour>
    <contour>
      <point x="1170" y="28" type="curve" smooth="yes"/>
      <point x="850" y="28"/>
      <point x="627" y="256"/>
      <point x="627" y="746" type="curve" smooth="yes"/>
      <point x="627" y="1236"/>
      <point x="850" y="1464"/>
      <point x="1170" y="1464" type="curve" smooth="yes"/>
      <point x="1490" y="1464"/>
      <point x="1713" y="1236"/>
      <point x="1713" y="746" type="curve" smooth="yes"/>
      <point x="1713" y="256"/>
      <point x="1490" y="28"/>
    </contour>
  </outline>
</glyph>
<glyph name="be-cy" format="2">
  <advance width="1243"/>
  <unicode hex="0431"/>
  <outline>
    <contour>
      <point x="655" y="-24" type="curve" smooth="yes"/>
      <point x="905" y="-24"/>
      <point x="1115" y="158"/>
      <point x="1115" y="508" type="curve" smooth="yes"/>
      <point x="1115" y="818"/>
      <point x="935" y="1040"/>
      <point x="662" y="1040" type="curve" smooth="yes"/>
      <point x="359" y="1040"/>
      <point x="152" y="805"/>
      <point x="193" y="373" type="curve"/>
      <point x="213" y="393" type="line"/>
      <point x="190" y="468"/>
      <point x="182" y="529"/>
      <point x="182" y="673" type="curve" smooth="yes"/>
      <point x="182" y="1408"/>
      <point x="509" y="1457"/>
      <point x="990" y="1516" type="curve" smooth="yes"/>
      <point x="1039" y="1522" type="line"/>
      <point x="1033" y="1574" type="line"/>
      <point x="974" y="1567" type="line" smooth="yes"/>
      <point x="480" y="1508"/>
      <point x="128" y="1433"/>
      <point x="128" y="672" type="curve" smooth="yes"/>
      <point x="128" y="114"/>
      <point x="416" y="-24"/>
    </contour>
    <contour>
      <point x="655" y="23" type="curve" smooth="yes"/>
      <point x="420" y="18"/>
      <point x="225" y="162"/>
      <point x="225" y="472" type="curve" smooth="yes"/>
      <point x="225" y="782"/>
      <point x="400" y="992"/>
      <point x="655" y="992" type="curve" smooth="yes"/>
      <point x="895" y="992"/>
      <point x="1061" y="808"/>
      <point x="1061" y="508" type="curve" smooth="yes"/>
      <point x="1061" y="168"/>
      <point x="865" y="28"/>
    </contour>
    <contour>
      <point x="197" y="-119" type="line"/>
      <point x="243" y="-278" type="line"/>
      <point x="271" y="-283" type="line"/>
      <point x="309" y="-157" type="line"/>
      <point x="319" y="-155" type="line"/>
      <point x="347" y="-289" type="line"/>
      <point x="394" y="-296" type="line"/>
      <point x="436" y="-127" type="line"/>
      <point x="395" y="-125" type="line"/>
      <point x="370" y="-269" type="line"/>
      <point x="359" y="-269" type="line"/>
      <point x="327" y="-132" type="line"/>
      <point x="301" y="-131" type="line"/>
      <point x="267" y="-256" type="line"/>
      <point x="260" y="-254" type="line"/>
      <point x="226" y="-116" type="line"/>
    </contour>
    <contour>
      <point x="492" y="-129" type="line"/>
      <point x="490" y="-141" type="line"/>
      <point x="541" y="-152" type="line"/>
      <point x="531" y="-294" type="line"/>
      <point x="474" y="-282" type="line"/>
      <point x="476" y="-301" type="line"/>
      <point x="602" y="-317" type="line"/>
      <point x="609" y="-304" type="line"/>
      <point x="555" y="-297" type="line"/>
      <point x="565" y="-159" type="line"/>
      <point x="625" y="-165" type="line"/>
      <point x="623" y="-154" type="line"/>
    </contour>
    <contour>
      <point x="666" y="-129" type="line"/>
      <point x="679" y="-310" type="line"/>
      <point x="707" y="-316" type="line"/>
      <point x="699" y="-239" type="line"/>
      <point x="780" y="-247" type="line"/>
      <point x="809" y="-235" type="line"/>
      <point x="823" y="-195" type="line"/>
      <point x="799" y="-146" type="line"/>
      <point x="757" y="-126" type="line"/>
      <point x="716" y="-122" type="line"/>
    </contour>
    <contour>
      <point x="691" y="-153" type="line"/>
      <point x="735" y="-151" type="line"/>
      <point x="771" y="-158" type="line"/>
      <point x="793" y="-184" type="line"/>
      <point x="791" y="-212" type="line"/>
      <point x="751" y="-221" type="line"/>
      <point x="694" y="-208" type="line"/>
    </contour>
  </outline>
</glyph>
<glyph name="ve-cy" format="2">
  <advance width="1063"/>
  <unicode hex="0432"/>
  <outline>
    <contour>
      <point x="162" y="0" type="line"/>
      <point x="565" y="0" type="line" smooth="yes"/>
      <point x="782" y="0"/>
      <point x="948" y="97"/>
      <point x="948" y="317" type="curve" smooth="yes"/>
      <point x="948" y="537"/>
      <point x="782" y="610"/>
      <point x="583" y="609" type="curve"/>
      <point x="583" y="591" type="line"/>
      <point x="726" y="591"/>
      <point x="893" y="625"/>
      <point x="893" y="829" type="curve" smooth="yes"/>
      <point x="893" y="1004"/>
      <point x="769" y="1100"/>
      <point x="553" y="1100" type="curve" smooth="yes"/>
      <point x="162" y="1100" type="line"/>
    </contour>
    <contour>
      <point x="216" y="48" type="line"/>
      <point x="216" y="576" type="line"/>
      <point x="545" y="576" type="line" smooth="yes"/>
      <point x="811" y="576"/>
      <point x="894" y="467"/>
      <point x="894" y="317" type="curve" smooth="yes"/>
      <point x="894" y="127"/>
      <point x="764" y="48"/>
      <point x="565" y="48" type="curve" smooth="yes"/>
    </contour>
    <contour>
      <point x="216" y="624" type="line"/>
      <point x="216" y="1052" type="line"/>
      <point x="538" y="1052" type="line" smooth="yes"/>
      <point x="739" y="1052"/>
      <point x="839" y="993"/>
      <point x="839" y="829" type="curve" smooth="yes"/>
      <point x="839" y="625"/>
      <point x="625" y="624"/>
      <point x="525" y="624" type="curve" smooth="yes"/>
    </contour>
  </outline>
</glyph>
<glyph name="ge-cy" format="2">
  <advance width="917"/>
  <unicode hex="0433"/>
  <outline>
    <contour>
      <point x="162" y="0" type="line"/>
      <point x="216" y="0" type="line"/>
      <point x="216" y="1076" type="line"/>
      <point x="189" y="1052" type="line"/>
      <point x="883" y="1052" type="line"/>
      <point x="883" y="1100" type="line"/>
      <point x="162" y="1100" type="line"/>
    </contour>
  </outline>
</glyph>
<glyph name="de-cy" format="2">
  <advance width="1143"/>
  <unicode hex="0434"/>
  <outline>
    <contour>
      <point x="0" y="-239" type="line"/>
      <point x="43" y="-239" type="line"/>
      <point x="48" y="0" type="line"/>
      <point x="1061" y="0" type="line"/>
      <point x="1066" y="-239" type="line"/>
      <point x="1109" y="-239" type="line"/>
      <point x="1109" y="48" type="line"/>
      <point x="965" y="48" type="line"/>
      <point x="965" y="1100" type="line"/>
      <point x="303" y="1100" type="line"/>
      <point x="281" y="848" type="line" smooth="yes"/>
      <point x="225" y="204"/>
      <point x="181" y="48"/>
      <point x="0" y="48" type="curve"/>
    </contour>
    <contour>
      <point x="42" y="19" type="line"/>
      <point x="207" y="19"/>
      <point x="276" y="147"/>
      <point x="333" y="818" type="curve" smooth="yes"/>
      <point x="353" y="1052" type="line"/>
      <point x="911" y="1052" type="line"/>
      <point x="911" y="48" type="line"/>
      <point x="275" y="48" type="line" smooth="yes"/>
      <point x="165" y="48"/>
      <point x="54" y="42"/>
      <point x="42" y="41" type="curve"/>
    </contour>
  </outline>
</glyph>
<glyph name="zhe-cy" format="2">
  <advance width="1353"/>
  <unicode hex="0436"/>
  <outline>
    <contour>
      <point x="650" y="0" type="line"/>
      <point x="704" y="0" type="line"/>
      <point x="704" y="1100" type="line"/>
      <point x="650" y="1100" type="line"/>
    </contour>
    <contour>
      <point x="1256" y="0" type="line"/>
      <point x="1319" y="0" type="line"/>
      <point x="903" y="567" type="line"/>
      <point x="903" y="534" type="line"/>
      <point x="1297" y="1100" type="line"/>
      <point x="1234" y="1100" type="line"/>
      <point x="872" y="575" type="line"/>
      <point x="688" y="575" type="line"/>
      <point x="688" y="527" type="line"/>
      <point x="871" y="527" type="line"/>
    </contour>
    <contour>
      <point x="34" y="0" type="line"/>
      <point x="97" y="0" type="line"/>
      <point x="482" y="527" type="line"/>
      <point x="665" y="527" type="line"/>
      <point x="665" y="575" type="line"/>
      <point x="481" y="575" type="line"/>
      <point x="119" y="1100" type="line"/>
      <point x="56" y="1100" type="line"/>
      <point x="450" y="534" type="line"/>
      <point x="450" y="567" type="line"/>
    </contour>
  </outline>
</glyph>
<glyph name="ze-cy" format="2">
  <advance width="1076"/>
  <unicode hex="0437"/>
  <outline>
    <contour>
      <point x="541" y="-24" type="curve" smooth="yes"/>
      <point x="810" y="-24"/>
      <point x="948" y="112"/>
      <point x="948" y="273" type="curve" smooth="yes"/>
      <point x="948" y="432"/>
      <point x="869" y="564"/>
      <point x="409" y="564" type="curve"/>
      <point x="409" y="549" type="line"/>
      <point x="809" y="549"/>
      <point x="905" y="686"/>
      <point x="905" y="838" type="curve" smooth="yes"/>
      <point x="905" y="1005"/>
      <point x="770" y="1124"/>
      <point x="529" y="1124" type="curve" smooth="yes"/>
      <point x="225" y="1124"/>
      <point x="137" y="932"/>
      <point x="137" y="930" type="curve"/>
      <point x="172" y="906" type="line"/>
      <point x="172" y="907"/>
      <point x="258" y="1077"/>
      <point x="523" y="1076" type="curve" smooth="yes"/>
      <point x="694" y="1075"/>
      <point x="851" y="1012"/>
      <point x="851" y="844" type="curve" smooth="yes"/>
      <point x="851" y="668"/>
      <point x="704" y="579"/>
      <point x="427" y="579" type="curve"/>
      <point x="347" y="579" type="line"/>
      <point x="347" y="531" type="line"/>
      <point x="427" y="531" type="line"/>
      <point x="704" y="532"/>
      <point x="902" y="486"/>
      <point x="902" y="281" type="curve" smooth="yes"/>
      <point x="902" y="97"/>
      <point x="734" y="25"/>
      <point x="533" y="24" type="curve" smooth="yes"/>
      <point x="250" y="23"/>
      <point x="151" y="196"/>
      <point x="150" y="197" type="curve"/>
      <point x="115" y="172" type="line"/>
      <point x="115" y="171"/>
      <point x="218" y="-24"/>
    </contour>
  </outline>
</glyph>
<glyph name="iishort-cy" format="2">
  <advance width="1176"/>
  <unicode hex="0439"/>
  <outline>
    <contour>
      <point x="342" y="1378" type="line"/>
      <point x="343" y="1378"/>
      <point x="405" y="1249"/>
      <point x="573" y="1249" type="curve" smooth="yes"/>
      <point x="741" y="1249"/>
      <point x="802" y="1378"/>
      <point x="803" y="1378" type="curve"/>
      <point x="846" y="1357" type="line"/>
      <point x="845" y="1356"/>
      <point x="768" y="1204"/>
      <point x="573" y="1204" type="curve" smooth="yes"/>
      <point x="378" y="1204"/>
      <point x="300" y="1356"/>
      <point x="299" y="1357" type="curve"/>
    </contour>
    <component base="ii-cy"/>
  </outline>
</glyph>
<glyph name="ka-cy" format="2">
  <advance width="1007"/>
  <unicode hex="043A"/>
  <outline>
    <contour>
      <point x="176" y="0" type="line"/>
      <point x="230" y="0" type="line"/>
      <point x="230" y="1100" type="line"/>
      <point x="176" y="1100" type="line"/>
    </contour>
    <contour>
      <point x="904" y="0" type="line"/>
      <point x="973" y="0" type="line"/>
      <point x="563" y="573" type="line"/>
      <point x="563" y="546" type="line"/>
      <point x="946" y="1100" type="line"/>
      <point x="881" y="1100" type="line"/>
      <point x="528" y="583" type="line"/>
      <point x="214" y="583" type="line"/>
      <point x="214" y="535" type="line"/>
      <point x="530" y="535" type="line"/>
    </contour>
  </outline>
</glyph>
<glyph name="el-cy" format="2">
  <advance width="1092"/>
  <unicode hex="043B"/>
  <outline>
    <contour>
      <point x="0" y="-6" type="line"/>
      <point x="175" y="-6"/>
      <point x="252" y="105"/>
      <point x="310" y="818" type="curve" smooth="yes"/>
      <point x="329" y="1052" type="line"/>
      <point x="876" y="1052" type="line"/>
      <point x="876" y="-2" type="line"/>
      <point x="930" y="-2" type="line"/>
      <point x="930" y="1100" type="line"/>
      <point x="280" y="1100" type="line"/>
      <point x="259" y="840" type="line" smooth="yes"/>
      <point x="204" y="163"/>
      <point x="149" y="42"/>
      <point x="0" y="42" type="curve"/>
    </contour>
  </outline>
</glyph>
<glyph name="em-cy" format="2">
  <advance width="1298"/>
  <unicode hex="043C"/>
  <outline>
    <contour>
      <point x="224" y="-119" type="line"/>
      <point x="270" y="-278" type="line"/>
      <point x="298" y="-283" type="line"/>
      <point x="336" y="-157" type="line"/>
      <point x="346" y="-155" type="line"/>
      <point x="374" y="-289" type="line"/>
      <point x="421" y="-296" type="line"/>
      <point x="463" y="-127" type="line"/>
      <point x="422" y="-125" type="line"/>
      <point x="397" y="-269" type="line"/>
      <point x="386" y="-269" type="line"/>
      <point x="354" y="-132" type="line"/>
      <point x="328" y="-131" type="line"/>
      <point x="294" y="-256" type="line"/>
      <point x="287" y="-254" type="line"/>
      <point x="253" y="-116" type="line"/>
    </contour>
    <contour>
      <point x="519" y="-129" type="line"/>
      <point x="517" y="-141" type="line"/>
      <point x="568" y="-152" type="line"/>
      <point x="558" y="-294" type="line"/>
      <point x="501" y="-282" type="line"/>
      <point x="503" y="-301" type="line"/>
      <point x="629" y="-317" type="line"/>
      <point x="636" y="-304" type="line"/>
      <point x="582" y="-297" type="line"/>
      <point x="592" y="-159" type="line"/>
      <point x="652" y="-165" type="line"/>
      <point x="650" y="-154" type="line"/>
    </contour>
    <contour>
      <point x="693" y="-129" type="line"/>
      <point x="706" y="-310" type="line"/>
      <point x="734" y="-316" type="line"/>
      <point x="726" y="-239" type="line"/>
      <point x="807" y="-247" type="line"/>
      <point x="836" y="-235" type="line"/>
      <point x="850" y="-195" type="line"/>
      <point x="826" y="-146" type="line"/>
      <point x="784" y="-126" type="line"/>
      <point x="743" y="-122" type="line"/>
    </contour>
    <contour>
      <point x="718" y="-153" type="line"/>
      <point x="762" y="-151" type="line"/>
      <point x="798" y="-158" type="line"/>
      <point x="820" y="-184" type="line"/>
      <point x="818" y="-212" type="line"/>
      <point x="778" y="-221" type="line"/>
      <point x="721" y="-208" type="line"/>
    </contour>
    <contour>
      <point x="162" y="0" type="line"/>
      <point x="216" y="0" type="line"/>
      <point x="216" y="818" type="line"/>
      <point x="211" y="1078" type="line"/>
      <point x="191" y="1036" type="line"/>
      <point x="637" y="274" type="line"/>
      <point x="661" y="274" type="line"/>
      <point x="1107" y="1036" type="line"/>
      <point x="1087" y="1078" type="line"/>
      <point x="1082" y="818" type="line"/>
      <point x="1082" y="0" type="line"/>
      <point x="1136" y="0" type="line"/>
      <point x="1136" y="1100" type="line"/>
      <point x="1094" y="1100" type="line"/>
      <point x="640" y="329" type="line"/>
      <point x="658" y="329" type="line"/>
      <point x="204" y="1100" type="line"/>
      <point x="162" y="1100" type="line"/>
    </contour>
  </outline>
</glyph>
<glyph name="en-cy" format="2">
  <advance width="1174"/>
  <unicode hex="043D"/>
  <outline>
    <contour>
      <point x="162" y="0" type="line"/>
      <point x="216" y="0" type="line"/>
      <point x="216" y="537" type="line"/>
      <point x="958" y="537" type="line"/>
      <point x="958" y="0" type="line"/>
      <point x="1012" y="0" type="line"/>
      <point x="1012" y="1100" type="line"/>
      <point x="958" y="1100" type="line"/>
      <point x="958" y="585" type="line"/>
      <point x="216" y="585" type="line"/>
      <point x="216" y="1100" type="line"/>
      <point x="162" y="1100" type="line"/>
    </contour>
  </outline>
</glyph>
<glyph name="pe-cy" format="2">
  <advance width="1158"/>
  <unicode hex="043F"/>
  <outline>
    <contour>
      <point x="162" y="0" type="line"/>
      <point x="216" y="0" type="line"/>
      <point x="216" y="1052" type="line"/>
      <point x="942" y="1052" type="line"/>
      <point x="942" y="0" type="line"/>
      <point x="996" y="0" type="line"/>
      <point x="996" y="1100" type="line"/>
      <point x="162" y="1100" type="line"/>
    </contour>
  </outline>
</glyph>
<glyph name="te-cy" format="2">
  <advance width="966"/>
  <unicode hex="0442"/>
  <outline>
    <contour>
      <point x="456" y="0" type="line"/>
      <point x="510" y="0" type="line"/>
      <point x="510" y="1052" type="line"/>
      <point x="932" y="1052" type="line"/>
      <point x="932" y="1100" type="line"/>
      <point x="34" y="1100" type="line"/>
      <point x="34" y="1052" type="line"/>
      <point x="456" y="1052" type="line"/>
    </contour>
  </outline>
</glyph>
<glyph name="u-cy" format="2">
  <advance width="1040"/>
  <unicode hex="0443"/>
  <guideline x="291" y="1550" angle="85"/>
  <guideline x="457" y="-186" angle="66.88211529199481"/>
  <guideline x="493" y="21" angle="246.9875549636962"/>
  <outline>
    <contour>
      <point x="116" y="-451" type="line"/>
      <point x="120" y="-452"/>
      <point x="142" y="-462"/>
      <point x="198" y="-462" type="curve" smooth="yes"/>
      <point x="299" y="-462"/>
      <point x="355" y="-425"/>
      <point x="431" y="-247" type="curve" smooth="yes"/>
      <point x="457" y="-186" type="line"/>
      <point x="1006" y="1100" type="line"/>
      <point x="951" y="1100" type="line"/>
      <point x="497" y="32" type="line"/>
      <point x="529" y="32" type="line"/>
      <point x="90" y="1100" type="line"/>
      <point x="34" y="1100" type="line"/>
      <point x="504" y="-37" type="line"/>
      <point x="493" y="21" type="line"/>
      <point x="414" y="-165" type="line"/>
      <point x="378" y="-250" type="line" smooth="yes"/>
      <point x="329" y="-365"/>
      <point x="286" y="-414"/>
      <point x="200" y="-414" type="curve" smooth="yes"/>
      <point x="153" y="-414"/>
      <point x="124" y="-406"/>
      <point x="120" y="-404" type="curve"/>
    </contour>
  </outline>
</glyph>
<glyph name="ef-cy" format="2">
  <advance width="1486"/>
  <unicode hex="0444"/>
  <outline>
    <contour>
      <point x="716" y="-450" type="line"/>
      <point x="770" y="-450" type="line"/>
      <point x="770" y="1550" type="line"/>
      <point x="716" y="1550" type="line"/>
    </contour>
    <contour>
      <point x="743" y="-9" type="line"/>
      <point x="770" y="-14" type="line" smooth="yes"/>
      <point x="1076" y="-71"/>
      <point x="1358" y="120"/>
      <point x="1358" y="550" type="curve" smooth="yes"/>
      <point x="1358" y="980"/>
      <point x="1076" y="1171"/>
      <point x="770" y="1114" type="curve" smooth="yes"/>
      <point x="743" y="1109" type="line"/>
      <point x="716" y="1114" type="line" smooth="yes"/>
      <point x="410" y="1171"/>
      <point x="128" y="980"/>
      <point x="128" y="550" type="curve" smooth="yes"/>
      <point x="128" y="120"/>
      <point x="410" y="-71"/>
      <point x="716" y="-14" type="curve" smooth="yes"/>
    </contour>
    <contour>
      <point x="743" y="39" type="line"/>
      <point x="716" y="34" type="line" smooth="yes"/>
      <point x="439" y="-17"/>
      <point x="182" y="140"/>
      <point x="182" y="550" type="curve" smooth="yes"/>
      <point x="182" y="960"/>
      <point x="439" y="1117"/>
      <point x="716" y="1066" type="curve" smooth="yes"/>
      <point x="743" y="1061" type="line"/>
      <point x="770" y="1066" type="line" smooth="yes"/>
      <point x="1047" y="1117"/>
      <point x="1304" y="960"/>
      <point x="1304" y="550" type="curve" smooth="yes"/>
      <point x="1304" y="140"/>
      <point x="1047" y="-17"/>
      <point x="770" y="34" type="curve" smooth="yes"/>
    </contour>
  </outline>
</glyph>
<glyph name="tse-cy" format="2">
  <advance width="1174"/>
  <unicode hex="0446"/>
  <outline>
    <contour>
      <point x="969" y="0" type="line"/>
      <point x="1092" y="0" type="line"/>
      <point x="1097" y="-322" type="line"/>
      <point x="1140" y="-322" type="line"/>
      <point x="1140" y="48" type="line"/>
      <point x="969" y="48" type="line"/>
    </contour>
    <contour>
      <point x="162" y="0" type="line"/>
      <point x="996" y="0" type="line"/>
      <point x="996" y="1100" type="line"/>
      <point x="942" y="1100" type="line"/>
      <point x="942" y="48" type="line"/>
      <point x="216" y="48" type="line"/>
      <point x="216" y="1100" type="line"/>
      <point x="162" y="1100" type="line"/>
    </contour>
  </outline>
</glyph>
<glyph name="che-cy" format="2">
  <advance width="1120"/>
  <unicode hex="0447"/>
  <outline>
    <contour>
      <point x="613" y="471" type="curve" smooth="yes"/>
      <point x="774" y="471"/>
      <point x="920" y="506"/>
      <point x="923" y="508" type="curve"/>
      <point x="891" y="523" type="line"/>
      <point x="891" y="0" type="line"/>
      <point x="945" y="0" type="line"/>
      <point x="945" y="1100" type="line"/>
      <point x="891" y="1100" type="line"/>
      <point x="891" y="531" type="line"/>
      <point x="923" y="556" type="line"/>
      <point x="920" y="554"/>
      <point x="783" y="519"/>
      <point x="613" y="519" type="curve" smooth="yes"/>
      <point x="287" y="519"/>
      <point x="203" y="594"/>
      <point x="203" y="851" type="curve" smooth="yes"/>
      <point x="203" y="1100" type="line"/>
      <point x="149" y="1100" type="line"/>
      <point x="149" y="848" type="line" smooth="yes"/>
      <point x="149" y="568"/>
      <point x="273" y="471"/>
    </contour>
  </outline>
</glyph>
<glyph name="sha-cy" format="2">
  <advance width="1560"/>
  <unicode hex="0448"/>
  <outline>
    <contour>
      <point x="162" y="0" type="line"/>
      <point x="1398" y="0" type="line"/>
      <point x="1398" y="1100" type="line"/>
      <point x="1344" y="1100" type="line"/>
      <point x="1344" y="48" type="line"/>
      <point x="807" y="48" type="line"/>
      <point x="807" y="1100" type="line"/>
      <point x="753" y="1100" type="line"/>
      <point x="753" y="48" type="line"/>
      <point x="216" y="48" type="line"/>
      <point x="216" y="1100" type="line"/>
      <point x="162" y="1100" type="line"/>
    </contour>
  </outline>
</glyph>
<glyph name="shcha-cy" format="2">
  <advance width="1576"/>
  <unicode hex="0449"/>
  <outline>
    <contour>
      <point x="1371" y="0" type="line"/>
      <point x="1494" y="0" type="line"/>
      <point x="1499" y="-322" type="line"/>
      <point x="1542" y="-322" type="line"/>
      <point x="1542" y="48" type="line"/>
      <point x="1371" y="48" type="line"/>
    </contour>
    <component base="sha-cy"/>
  </outline>
</glyph>
<glyph name="hardsign-cy" format="2">
  <advance width="1193"/>
  <unicode hex="044A"/>
  <outline>
    <contour>
      <point x="34" y="1052" type="line"/>
      <point x="344" y="1052" type="line"/>
      <point x="344" y="1100" type="line"/>
      <point x="34" y="1100" type="line"/>
    </contour>
    <component base="softsign-cy" xOffset="155"/>
  </outline>
</glyph>
<glyph name="yeru-cy" format="2">
  <advance width="1356"/>
  <unicode hex="044B"/>
  <outline>
    <contour>
      <point x="1140" y="0" type="line"/>
      <point x="1194" y="0" type="line"/>
      <point x="1194" y="1100" type="line"/>
      <point x="1140" y="1100" type="line"/>
    </contour>
    <component base="softsign-cy"/>
  </outline>
</glyph>
<glyph name="softsign-cy" format="2">
  <advance width="1038"/>
  <unicode hex="044C"/>
  <outline>
    <contour>
      <point x="162" y="0" type="line"/>
      <point x="565" y="0" type="line" smooth="yes"/>
      <point x="782" y="0"/>
      <point x="948" y="97"/>
      <point x="948" y="317" type="curve" smooth="yes"/>
      <point x="948" y="537"/>
      <point x="785" y="624"/>
      <point x="553" y="624" type="curve" smooth="yes"/>
      <point x="216" y="624" type="line"/>
      <point x="216" y="1100" type="line"/>
      <point x="162" y="1100" type="line"/>
    </contour>
    <contour>
      <point x="216" y="48" type="line"/>
      <point x="216" y="576" type="line"/>
      <point x="565" y="576" type="line" smooth="yes"/>
      <point x="811" y="576"/>
      <point x="894" y="467"/>
      <point x="894" y="317" type="curve" smooth="yes"/>
      <point x="894" y="127"/>
      <point x="764" y="48"/>
      <point x="565" y="48" type="curve" smooth="yes"/>
    </contour>
  </outline>
</glyph>
<glyph name="ereversed-cy" format="2">
  <advance width="1163"/>
  <unicode hex="044D"/>
  <outline>
    <contour>
      <point x="337" y="531" type="line"/>
      <point x="993" y="531" type="line"/>
      <point x="993" y="579" type="line"/>
      <point x="337" y="579" type="line"/>
    </contour>
    <contour>
      <point x="535" y="-24" type="curve" smooth="yes"/>
      <point x="785" y="-24"/>
      <point x="1035" y="134"/>
      <point x="1035" y="550" type="curve" smooth="yes"/>
      <point x="1035" y="966"/>
      <point x="785" y="1124"/>
      <point x="535" y="1124" type="curve" smooth="yes"/>
      <point x="235" y="1124"/>
      <point x="115" y="912"/>
      <point x="115" y="912" type="curve"/>
      <point x="155" y="888" type="line"/>
      <point x="155" y="888"/>
      <point x="255" y="1076"/>
      <point x="535" y="1076" type="curve" smooth="yes"/>
      <point x="765" y="1076"/>
      <point x="981" y="930"/>
      <point x="981" y="550" type="curve" smooth="yes"/>
      <point x="981" y="170"/>
      <point x="765" y="24"/>
      <point x="535" y="24" type="curve" smooth="yes"/>
      <point x="255" y="24"/>
      <point x="155" y="212"/>
      <point x="155" y="212" type="curve"/>
      <point x="115" y="188" type="line"/>
      <point x="115" y="188"/>
      <point x="235" y="-24"/>
    </contour>
  </outline>
</glyph>
<glyph name="yu-cy" format="2">
  <advance width="1553"/>
  <unicode hex="044E"/>
  <outline>
    <contour>
      <point x="175" y="-6" type="line"/>
      <point x="229" y="-6" type="line"/>
      <point x="229" y="532" type="line"/>
      <point x="490" y="532" type="line"/>
      <point x="490" y="580" type="line"/>
      <point x="229" y="580" type="line"/>
      <point x="229" y="1100" type="line"/>
      <point x="175" y="1100" type="line"/>
    </contour>
    <contour>
      <point x="950" y="-24" type="curve" smooth="yes"/>
      <point x="1228" y="-24"/>
      <point x="1425" y="163"/>
      <point x="1425" y="551" type="curve" smooth="yes"/>
      <point x="1425" y="940"/>
      <point x="1228" y="1127"/>
      <point x="950" y="1127" type="curve" smooth="yes"/>
      <point x="673" y="1127"/>
      <point x="474" y="940"/>
      <point x="474" y="551" type="curve" smooth="yes"/>
      <point x="474" y="163"/>
      <point x="673" y="-24"/>
    </contour>
    <contour>
      <point x="950" y="24" type="curve" smooth="yes"/>
      <point x="696" y="24"/>
      <point x="528" y="185"/>
      <point x="528" y="551" type="curve" smooth="yes"/>
      <point x="528" y="917"/>
      <point x="696" y="1079"/>
      <point x="950" y="1079" type="curve" smooth="yes"/>
      <point x="1203" y="1079"/>
      <point x="1371" y="917"/>
      <point x="1371" y="551" type="curve" smooth="yes"/>
      <point x="1371" y="185"/>
      <point x="1203" y="24"/>
    </contour>
  </outline>
</glyph>
<glyph name="ya-cy" format="2">
  <advance width="1075"/>
  <unicode hex="044F"/>
  <outline>
    <contour>
      <point x="913" y="0" type="line"/>
      <point x="859" y="0" type="line"/>
      <point x="859" y="480" type="line"/>
      <point x="612" y="480" type="line"/>
      <point x="436" y="480"/>
      <point x="334" y="398"/>
      <point x="269" y="241" type="curve" smooth="yes"/>
      <point x="170" y="0" type="line"/>
      <point x="115" y="0" type="line"/>
      <point x="217" y="248" type="line" smooth="yes"/>
      <point x="298" y="447"/>
      <point x="442" y="507"/>
      <point x="588" y="507" type="curve"/>
      <point x="548" y="498" type="line"/>
      <point x="295" y="491"/>
      <point x="153" y="599"/>
      <point x="153" y="792" type="curve" smooth="yes"/>
      <point x="153" y="978"/>
      <point x="294" y="1100"/>
      <point x="540" y="1100" type="curve" smooth="yes"/>
      <point x="913" y="1100" type="line"/>
    </contour>
    <contour>
      <point x="859" y="1052" type="line"/>
      <point x="536" y="1052" type="line" smooth="yes"/>
      <point x="326" y="1052"/>
      <point x="207" y="963"/>
      <point x="207" y="792" type="curve" smooth="yes"/>
      <point x="207" y="614"/>
      <point x="323" y="528"/>
      <point x="536" y="528" type="curve"/>
      <point x="859" y="528" type="line"/>
    </contour>
  </outline>
</glyph>
<glyph name="dje-cy" format="2">
  <advance width="1252"/>
  <unicode hex="0452"/>
  <outline>
    <contour>
      <point x="782" y="-454" type="curve" smooth="yes"/>
      <point x="949" y="-454"/>
      <point x="1103" y="-386"/>
      <point x="1103" y="-96" type="curve" smooth="yes"/>
      <point x="1103" y="20" type="line"/>
      <point x="1049" y="20" type="line"/>
      <point x="1049" y="-72" type="line" smooth="yes"/>
      <point x="1049" y="-359"/>
      <point x="921" y="-406"/>
      <point x="773" y="-406" type="curve" smooth="yes"/>
      <point x="683" y="-406"/>
      <point x="623" y="-388"/>
      <point x="620" y="-386" type="curve"/>
      <point x="615" y="-434" type="line"/>
      <point x="619" y="-436"/>
      <point x="664" y="-454"/>
    </contour>
    <component base="tshe-cy"/>
  </outline>
</glyph>
<glyph name="e-cy" format="2">
  <advance width="1163"/>
  <unicode hex="0454"/>
  <outline>
    <contour>
      <point x="170" y="531" type="line"/>
      <point x="826" y="531" type="line"/>
      <point x="826" y="579" type="line"/>
      <point x="170" y="579" type="line"/>
    </contour>
    <contour>
      <point x="628" y="-24" type="curve" smooth="yes"/>
      <point x="928" y="-24"/>
      <point x="1048" y="188"/>
      <point x="1048" y="188" type="curve"/>
      <point x="1008" y="212" type="line"/>
      <point x="1008" y="212"/>
      <point x="908" y="24"/>
      <point x="628" y="24" type="curve" smooth="yes"/>
      <point x="398" y="24"/>
      <point x="182" y="170"/>
      <point x="182" y="550" type="curve" smooth="yes"/>
      <point x="182" y="930"/>
      <point x="398" y="1076"/>
      <point x="628" y="1076" type="curve" smooth="yes"/>
      <point x="908" y="1076"/>
      <point x="1008" y="888"/>
      <point x="1008" y="888" type="curve"/>
      <point x="1048" y="912" type="line"/>
      <point x="1048" y="912"/>
      <point x="928" y="1124"/>
      <point x="628" y="1124" type="curve" smooth="yes"/>
      <point x="378" y="1124"/>
      <point x="128" y="966"/>
      <point x="128" y="550" type="curve" smooth="yes"/>
      <point x="128" y="134"/>
      <point x="378" y="-24"/>
    </contour>
  </outline>
</glyph>
<glyph name="lje-cy" format="2">
  <advance width="1632"/>
  <unicode hex="0459"/>
  <outline>
    <contour>
      <point x="0" y="-6" type="line"/>
      <point x="175" y="-6"/>
      <point x="252" y="105"/>
      <point x="310" y="818" type="curve" smooth="yes"/>
      <point x="329" y="1052" type="line"/>
      <point x="816" y="1052" type="line"/>
      <point x="816" y="0" type="line"/>
      <point x="1159" y="0" type="line"/>
      <point x="1376" y="0"/>
      <point x="1542" y="73"/>
      <point x="1542" y="293" type="curve" smooth="yes"/>
      <point x="1542" y="513"/>
      <point x="1379" y="585"/>
      <point x="1147" y="585" type="curve" smooth="yes"/>
      <point x="870" y="585" type="line"/>
      <point x="870" y="1100" type="line"/>
      <point x="280" y="1100" type="line"/>
      <point x="259" y="840" type="line" smooth="yes"/>
      <point x="204" y="163"/>
      <point x="149" y="42"/>
      <point x="0" y="42" type="curve"/>
    </contour>
    <contour>
      <point x="870" y="48" type="line"/>
      <point x="870" y="537" type="line"/>
      <point x="1159" y="537" type="line" smooth="yes"/>
      <point x="1405" y="537"/>
      <point x="1488" y="443"/>
      <point x="1488" y="293" type="curve" smooth="yes"/>
      <point x="1488" y="103"/>
      <point x="1358" y="48"/>
      <point x="1159" y="48" type="curve" smooth="yes"/>
    </contour>
  </outline>
</glyph>
<glyph name="nje-cy" format="2">
  <advance width="1714"/>
  <unicode hex="045A"/>
  <outline>
    <contour>
      <point x="898" y="0" type="line"/>
      <point x="1241" y="0" type="line"/>
      <point x="1458" y="0"/>
      <point x="1624" y="73"/>
      <point x="1624" y="293" type="curve" smooth="yes"/>
      <point x="1624" y="513"/>
      <point x="1461" y="585"/>
      <point x="1229" y="585" type="curve" smooth="yes"/>
      <point x="952" y="585" type="line"/>
      <point x="952" y="1100" type="line"/>
      <point x="898" y="1100" type="line"/>
      <point x="898" y="585" type="line"/>
      <point x="216" y="585" type="line"/>
      <point x="216" y="1100" type="line"/>
      <point x="162" y="1100" type="line"/>
      <point x="162" y="0" type="line"/>
      <point x="216" y="0" type="line"/>
      <point x="216" y="537" type="line"/>
      <point x="898" y="537" type="line"/>
    </contour>
    <contour>
      <point x="952" y="48" type="line"/>
      <point x="952" y="537" type="line"/>
      <point x="1241" y="537" type="line" smooth="yes"/>
      <point x="1487" y="537"/>
      <point x="1570" y="443"/>
      <point x="1570" y="293" type="curve" smooth="yes"/>
      <point x="1570" y="103"/>
      <point x="1440" y="48"/>
      <point x="1241" y="48" type="curve" smooth="yes"/>
    </contour>
  </outline>
</glyph>
<glyph name="tshe-cy" format="2">
  <advance width="1252"/>
  <unicode hex="045B"/>
  <outline>
    <contour>
      <point x="24" y="1283" type="line"/>
      <point x="798" y="1283" type="line"/>
      <point x="798" y="1331" type="line"/>
      <point x="24" y="1331" type="line"/>
    </contour>
    <component base="h"/>
  </outline>
</glyph>
<glyph name="dzhe-cy" format="2">
  <advance width="1158"/>
  <unicode hex="045F"/>
  <outline>
    <contour>
      <point x="555" y="48" type="line"/>
      <point x="557" y="-322" type="line"/>
      <point x="601" y="-322" type="line"/>
      <point x="603" y="48" type="line"/>
    </contour>
    <contour>
      <point x="162" y="0" type="line"/>
      <point x="996" y="0" type="line"/>
      <point x="996" y="1100" type="line"/>
      <point x="942" y="1100" type="line"/>
      <point x="942" y="48" type="line"/>
      <point x="216" y="48" type="line"/>
      <point x="216" y="1100" type="line"/>
      <point x="162" y="1100" type="line"/>
    </contour>
  </outline>
</glyph>
<glyph name="Geupturn-cy" format="2">
  <advance width="1083"/>
  <unicode hex="0490"/>
  <outline>
    <contour>
      <point x="989" y="1454" type="line"/>
      <point x="1043" y="1454" type="line"/>
      <point x="1043" y="1780" type="line"/>
      <point x="989" y="1780" type="line"/>
    </contour>
    <component base="Ge-cy"/>
  </outline>
</glyph>
<glyph name="geupturn-cy" format="2">
  <advance width="1000"/>
  <unicode hex="0491"/>
  <outline>
    <contour>
      <point x="829" y="1076" type="line"/>
      <point x="883" y="1076" type="line"/>
      <point x="883" y="1480" type="line"/>
      <point x="829" y="1480" type="line"/>
    </contour>
    <component base="ge-cy"/>
  </outline>
</glyph>
<glyph name="Gestroke-cy" format="2">
  <advance width="1253"/>
  <unicode hex="0492"/>
  <outline>
    <contour>
      <point x="96" y="782" type="line"/>
      <point x="950" y="782" type="line"/>
      <point x="950" y="834" type="line"/>
      <point x="96" y="834" type="line"/>
    </contour>
    <component base="Ge-cy" xOffset="170"/>
  </outline>
</glyph>
<glyph name="gestroke-cy" format="2">
  <advance width="1057"/>
  <unicode hex="0493"/>
  <outline>
    <contour>
      <point x="90" y="598" type="line"/>
      <point x="90" y="550" type="line"/>
      <point x="800" y="550" type="line"/>
      <point x="800" y="598" type="line"/>
    </contour>
    <component base="ge-cy" xOffset="140"/>
  </outline>
</glyph>
<glyph name="Zhedescender-cy" format="2">
  <advance width="1868"/>
  <unicode hex="0496"/>
  <outline>
    <contour>
      <point x="1731" y="0" type="line"/>
      <point x="1771" y="0" type="line"/>
      <point x="1771" y="-322" type="line"/>
      <point x="1822" y="-322" type="line"/>
      <point x="1828" y="52" type="line"/>
      <point x="1731" y="52" type="line"/>
    </contour>
    <component base="Zhe-cy"/>
  </outline>
</glyph>
<glyph name="zhedescender-cy" format="2">
  <advance width="1441"/>
  <unicode hex="0497"/>
  <outline>
    <contour>
      <point x="1323" y="0" type="line"/>
      <point x="1359" y="0" type="line"/>
      <point x="1359" y="-322" type="line"/>
      <point x="1402" y="-322" type="line"/>
      <point x="1407" y="48" type="line"/>
      <point x="1323" y="48" type="line"/>
    </contour>
    <component base="zhe-cy"/>
  </outline>
</glyph>
<glyph name="Kadescender-cy" format="2">
  <advance width="1310"/>
  <unicode hex="049A"/>
  <outline>
    <contour>
      <point x="1163" y="0" type="line"/>
      <point x="1213" y="0" type="line"/>
      <point x="1213" y="-322" type="line"/>
      <point x="1264" y="-322" type="line"/>
      <point x="1270" y="52" type="line"/>
      <point x="1163" y="52" type="line"/>
    </contour>
    <component base="Ka-cy"/>
  </outline>
</glyph>
<glyph name="kadescender-cy" format="2">
  <advance width="1055"/>
  <unicode hex="049B"/>
  <outline>
    <contour>
      <point x="937" y="0" type="line"/>
      <point x="973" y="0" type="line"/>
      <point x="973" y="-322" type="line"/>
      <point x="1016" y="-322" type="line"/>
      <point x="1021" y="48" type="line"/>
      <point x="937" y="48" type="line"/>
    </contour>
    <component base="ka-cy"/>
  </outline>
</glyph>
<glyph name="Endescender-cy" format="2">
  <advance width="1466"/>
  <unicode hex="04A2"/>
  <outline>
    <contour>
      <point x="1245" y="0" type="line"/>
      <point x="1345" y="0" type="line"/>
      <point x="1345" y="-322" type="line"/>
      <point x="1396" y="-322" type="line"/>
      <point x="1402" y="52" type="line"/>
      <point x="1245" y="52" type="line"/>
    </contour>
    <component base="En-cy"/>
  </outline>
</glyph>
<glyph name="endescender-cy" format="2">
  <advance width="1174"/>
  <unicode hex="04A3"/>
  <outline>
    <contour>
      <point x="985" y="0" type="line"/>
      <point x="1061" y="0" type="line"/>
      <point x="1061" y="-322" type="line"/>
      <point x="1104" y="-322" type="line"/>
      <point x="1109" y="48" type="line"/>
      <point x="985" y="48" type="line"/>
    </contour>
    <component base="en-cy"/>
  </outline>
</glyph>
<glyph name="ustraight-cy" format="2">
  <advance width="1040"/>
  <unicode hex="04AF"/>
  <outline>
    <contour>
      <point x="493" y="55" type="line"/>
      <point x="493" y="-450" type="line"/>
      <point x="547" y="-450" type="line"/>
      <point x="547" y="55" type="line"/>
    </contour>
    <component base="v"/>
  </outline>
</glyph>
<glyph name="Ustraightstroke-cy" format="2">
  <advance width="1240"/>
  <unicode hex="04B0"/>
  <outline>
    <contour>
      <point x="181" y="540" type="line"/>
      <point x="1059" y="540" type="line"/>
      <point x="1059" y="592" type="line"/>
      <point x="181" y="592" type="line"/>
    </contour>
    <component base="Ustraight-cy"/>
  </outline>
</glyph>
<glyph name="Hadescender-cy" format="2">
  <advance width="1337"/>
  <unicode hex="04B2"/>
  <outline>
    <contour>
      <point x="1190" y="0" type="line"/>
      <point x="1240" y="0" type="line"/>
      <point x="1240" y="-322" type="line"/>
      <point x="1291" y="-322" type="line"/>
      <point x="1297" y="52" type="line"/>
      <point x="1190" y="52" type="line"/>
    </contour>
    <component base="Ha-cy"/>
  </outline>
</glyph>
<glyph name="hadescender-cy" format="2">
  <advance width="1060"/>
  <unicode hex="04B3"/>
  <outline>
    <contour>
      <point x="932" y="0" type="line"/>
      <point x="978" y="0" type="line"/>
      <point x="978" y="-322" type="line"/>
      <point x="1021" y="-322" type="line"/>
      <point x="1026" y="48" type="line"/>
      <point x="932" y="48" type="line"/>
    </contour>
    <component base="ha-cy"/>
  </outline>
</glyph>
<glyph name="Chedescender-cy" format="2">
  <advance width="1323"/>
  <unicode hex="04B6"/>
  <outline>
    <contour>
      <point x="1102" y="0" type="line"/>
      <point x="1202" y="0" type="line"/>
      <point x="1202" y="-322" type="line"/>
      <point x="1253" y="-322" type="line"/>
      <point x="1259" y="52" type="line"/>
      <point x="1102" y="52" type="line"/>
    </contour>
    <component base="Che-cy"/>
  </outline>
</glyph>
<glyph name="chedescender-cy" format="2">
  <advance width="1120"/>
  <unicode hex="04B7"/>
  <outline>
    <contour>
      <point x="918" y="0" type="line"/>
      <point x="994" y="0" type="line"/>
      <point x="994" y="-322" type="line"/>
      <point x="1037" y="-322" type="line"/>
      <point x="1042" y="48" type="line"/>
      <point x="918" y="48" type="line"/>
    </contour>
    <component base="che-cy"/>
  </outline>
</glyph>
<glyph name="Shha-cy" format="2">
  <advance width="1323"/>
  <unicode hex="04BA"/>
  <outline>
    <contour>
      <point x="623" y="830" type="curve" smooth="yes"/>
      <point x="419" y="830"/>
      <point x="225" y="769"/>
      <point x="221" y="768" type="curve"/>
      <point x="250" y="753" type="line"/>
      <point x="250" y="1480" type="line"/>
      <point x="193" y="1480" type="line"/>
      <point x="193" y="0" type="line"/>
      <point x="250" y="0" type="line"/>
      <point x="250" y="742" type="line"/>
      <point x="221" y="716" type="line"/>
      <point x="225" y="717"/>
      <point x="409" y="778"/>
      <point x="623" y="778" type="curve" smooth="yes"/>
      <point x="988" y="778"/>
      <point x="1126" y="681"/>
      <point x="1126" y="315" type="curve" smooth="yes"/>
      <point x="1126" y="0" type="line"/>
      <point x="1183" y="0" type="line"/>
      <point x="1183" y="325" type="line" smooth="yes"/>
      <point x="1183" y="715"/>
      <point x="1005" y="830"/>
    </contour>
  </outline>
</glyph>
<glyph name="Schwa-cy" format="2">
  <advance width="1428"/>
  <unicode hex="04D8"/>
  <outline>
    <contour>
      <point x="194" y="1176" type="line"/>
      <point x="195" y="1179"/>
      <point x="312" y="1464"/>
      <point x="693" y="1464" type="curve" smooth="yes"/>
      <point x="973" y="1464"/>
      <point x="1251" y="1276"/>
      <point x="1251" y="746" type="curve" smooth="yes"/>
      <point x="1251" y="216"/>
      <point x="1008" y="28"/>
      <point x="718" y="28" type="curve" smooth="yes"/>
      <point x="418" y="28"/>
      <point x="165" y="224"/>
      <point x="165" y="617" type="curve" smooth="yes"/>
      <point x="165" y="691"/>
      <point x="171" y="750"/>
      <point x="172" y="754" type="curve"/>
      <point x="140" y="730" type="line"/>
      <point x="1280" y="730" type="line"/>
      <point x="1280" y="782" type="line"/>
      <point x="115" y="782" type="line"/>
      <point x="114" y="778"/>
      <point x="108" y="711"/>
      <point x="108" y="646" type="curve" smooth="yes"/>
      <point x="108" y="186"/>
      <point x="394" y="-24"/>
      <point x="718" y="-24" type="curve" smooth="yes"/>
      <point x="1032" y="-24"/>
      <point x="1308" y="196"/>
      <point x="1308" y="746" type="curve" smooth="yes"/>
      <point x="1308" y="1296"/>
      <point x="997" y="1516"/>
      <point x="693" y="1516" type="curve" smooth="yes"/>
      <point x="286" y="1516"/>
      <point x="147" y="1202"/>
      <point x="146" y="1199" type="curve"/>
    </contour>
  </outline>
</glyph>
<glyph name="schwa-cy" format="2">
  <advance width="1179"/>
  <unicode hex="04D9"/>
  <anchor x="544" y="1100" name="bottom"/>
  <outline>
    <contour>
      <point x="568" y="1124" type="curve" smooth="yes"/>
      <point x="256" y="1124"/>
      <point x="151" y="902"/>
      <point x="151" y="902" type="curve"/>
      <point x="193" y="876" type="line"/>
      <point x="193" y="876"/>
      <point x="296" y="1076"/>
      <point x="558" y="1076" type="curve" smooth="yes"/>
      <point x="807" y="1076"/>
      <point x="997" y="942"/>
      <point x="997" y="582" type="curve" smooth="yes"/>
      <point x="997" y="560" type="line" smooth="yes"/>
      <point x="997" y="182"/>
      <point x="816" y="24"/>
      <point x="586" y="24" type="curve" smooth="yes"/>
      <point x="322" y="24"/>
      <point x="169" y="217"/>
      <point x="169" y="464" type="curve" smooth="yes"/>
      <point x="169" y="504"/>
      <point x="172" y="537"/>
      <point x="173" y="541" type="curve"/>
      <point x="149" y="521" type="line"/>
      <point x="1017" y="521" type="line"/>
      <point x="1017" y="569" type="line"/>
      <point x="120" y="569" type="line"/>
      <point x="120" y="567"/>
      <point x="115" y="541"/>
      <point x="115" y="477" type="curve" smooth="yes"/>
      <point x="115" y="185"/>
      <point x="302" y="-24"/>
      <point x="586" y="-24" type="curve" smooth="yes"/>
      <point x="824" y="-24"/>
      <point x="1051" y="135"/>
      <point x="1051" y="565" type="curve" smooth="yes"/>
      <point x="1051" y="985"/>
      <point x="811" y="1124"/>
    </contour>
  </outline>
</glyph>
<glyph name="Obarred-cy" format="2">
  <advance width="1500"/>
  <unicode hex="04E8"/>
  <guideline x="-18" y="746" angle="0"/>
  <outline>
    <contour>
      <point x="152" y="730" type="line"/>
      <point x="1349" y="730" type="line"/>
      <point x="1349" y="782" type="line"/>
      <point x="152" y="782" type="line"/>
    </contour>
    <component base="O-cy"/>
  </outline>
</glyph>
<glyph name="obarred-cy" format="2">
  <advance width="1256"/>
  <unicode hex="04E9"/>
  <outline>
    <contour>
      <point x="161" y="532" type="line"/>
      <point x="1095" y="532" type="line"/>
      <point x="1095" y="579" type="line"/>
      <point x="161" y="579" type="line"/>
    </contour>
    <component base="o-cy"/>
  </outline>
</glyph>
<glyph name="Germandbls" format="2">
  <advance width="1290"/>
  <unicode hex="1E9E"/>
  <outline>
    <contour>
      <point x="145" y="1480" type="line"/>
      <point x="145" y="0" type="line"/>
      <point x="325" y="0" type="line"/>
      <point x="325" y="1480" type="line"/>
    </contour>
    <contour>
      <point x="287" y="1100" type="move"/>
      <point x="285" y="1100" type="line"/>
    </contour>
    <contour>
      <point x="287" y="947" type="move"/>
    </contour>
    <contour>
      <point x="495" y="14" type="line"/>
      <point x="499" y="13"/>
      <point x="612" y="-27"/>
      <point x="760" y="-27" type="curve" smooth="yes"/>
      <point x="1083" y="-27"/>
      <point x="1235" y="212"/>
      <point x="1235" y="407" type="curve" smooth="yes"/>
      <point x="1235" y="637"/>
      <point x="1027" y="869"/>
      <point x="723" y="849" type="curve"/>
      <point x="763" y="806" type="line"/>
      <point x="1103" y="1310" type="line"/>
      <point x="1103" y="1480" type="line"/>
      <point x="287" y="1480" type="line"/>
      <point x="287" y="1317" type="line"/>
      <point x="890" y="1317" type="line"/>
      <point x="555" y="806" type="line"/>
      <point x="555" y="676" type="line"/>
      <point x="561" y="676"/>
      <point x="621" y="702"/>
      <point x="728" y="702" type="curve" smooth="yes"/>
      <point x="971" y="702"/>
      <point x="1055" y="536"/>
      <point x="1055" y="404" type="curve" smooth="yes"/>
      <point x="1055" y="280"/>
      <point x="959" y="126"/>
      <point x="750" y="126" type="curve" smooth="yes"/>
      <point x="596" y="126"/>
      <point x="496" y="169"/>
      <point x="495" y="170" type="curve"/>
    </contour>
    <contour>
      <point x="197" y="-119" type="line"/>
      <point x="243" y="-278" type="line"/>
      <point x="271" y="-283" type="line"/>
      <point x="309" y="-157" type="line"/>
      <point x="319" y="-155" type="line"/>
      <point x="347" y="-289" type="line"/>
      <point x="394" y="-296" type="line"/>
      <point x="436" y="-127" type="line"/>
      <point x="395" y="-125" type="line"/>
      <point x="370" y="-269" type="line"/>
      <point x="359" y="-269" type="line"/>
      <point x="327" y="-132" type="line"/>
      <point x="301" y="-131" type="line"/>
      <point x="267" y="-256" type="line"/>
      <point x="260" y="-254" type="line"/>
      <point x="226" y="-116" type="line"/>
    </contour>
    <contour>
      <point x="492" y="-129" type="line"/>
      <point x="490" y="-141" type="line"/>
      <point x="541" y="-152" type="line"/>
      <point x="531" y="-294" type="line"/>
      <point x="474" y="-282" type="line"/>
      <point x="476" y="-301" type="line"/>
      <point x="602" y="-317" type="line"/>
      <point x="609" y="-304" type="line"/>
      <point x="555" y="-297" type="line"/>
      <point x="565" y="-159" type="line"/>
      <point x="625" y="-165" type="line"/>
      <point x="623" y="-154" type="line"/>
    </contour>
    <contour>
      <point x="666" y="-129" type="line"/>
      <point x="679" y="-310" type="line"/>
      <point x="707" y="-316" type="line"/>
      <point x="699" y="-239" type="line"/>
      <point x="780" y="-247" type="line"/>
      <point x="809" y="-235" type="line"/>
      <point x="823" y="-195" type="line"/>
      <point x="799" y="-146" type="line"/>
      <point x="757" y="-126" type="line"/>
      <point x="716" y="-122" type="line"/>
    </contour>
    <contour>
      <point x="691" y="-153" type="line"/>
      <point x="735" y="-151" type="line"/>
      <point x="771" y="-158" type="line"/>
      <point x="793" y="-184" type="line"/>
      <point x="791" y="-212" type="line"/>
      <point x="751" y="-221" type="line"/>
      <point x="694" y="-208" type="line"/>
    </contour>
  </outline>
</glyph>
<glyph name="endash" format="2">
  <advance width="996"/>
  <unicode hex="2013"/>
  <outline>
    <contour>
      <point x="34" y="550" type="line"/>
      <point x="962" y="550" type="line"/>
      <point x="962" y="598" type="line"/>
      <point x="34" y="598" type="line"/>
    </contour>
  </outline>
</glyph>
<glyph name="emdash" format="2">
  <advance width="1744"/>
  <unicode hex="2014"/>
  <outline>
    <contour>
      <point x="80" y="599" type="line"/>
      <point x="80" y="551" type="line"/>
      <point x="1664" y="551" type="line"/>
      <point x="1664" y="599" type="line"/>
    </contour>
  </outline>
</glyph>
<glyph name="euro" format="2">
  <advance width="1416"/>
  <unicode hex="20AC"/>
  <outline>
    <contour>
      <point x="831" y="-19" type="curve" smooth="yes"/>
      <point x="1181" y="-19"/>
      <point x="1295" y="297"/>
      <point x="1296" y="300" type="curve"/>
      <point x="1250" y="326" type="line"/>
      <point x="1248" y="321"/>
      <point x="1146" y="28"/>
      <point x="831" y="28" type="curve" smooth="yes"/>
      <point x="538" y="28"/>
      <point x="348" y="241"/>
      <point x="348" y="741" type="curve" smooth="yes"/>
      <point x="348" y="1241"/>
      <point x="548" y="1465"/>
      <point x="831" y="1464" type="curve" smooth="yes"/>
      <point x="1136" y="1463"/>
      <point x="1228" y="1172"/>
      <point x="1230" y="1167" type="curve"/>
      <point x="1276" y="1191" type="line"/>
      <point x="1275" y="1194"/>
      <point x="1171" y="1515"/>
      <point x="831" y="1516" type="curve" smooth="yes"/>
      <point x="522" y="1517"/>
      <point x="291" y="1284"/>
      <point x="291" y="746" type="curve" smooth="yes"/>
      <point x="291" y="208"/>
      <point x="512" y="-19"/>
    </contour>
    <contour>
      <point x="96" y="596" type="line"/>
      <point x="1035" y="596" type="line"/>
      <point x="1035" y="648" type="line"/>
      <point x="96" y="648" type="line"/>
    </contour>
    <contour>
      <point x="96" y="834" type="line"/>
      <point x="1035" y="834" type="line"/>
      <point x="1035" y="886" type="line"/>
      <point x="96" y="886" type="line"/>
    </contour>
  </outline>
</glyph>
<glyph name="trademark" format="2">
  <advance width="855"/>
  <unicode hex="2122"/>
  <outline>
    <contour>
      <point x="186" y="1100" type="line"/>
      <point x="234" y="1100" type="line"/>
      <point x="234" y="1437" type="line"/>
      <point x="379" y="1437" type="line"/>
      <point x="379" y="1480" type="line"/>
      <point x="34" y="1480" type="line"/>
      <point x="34" y="1437" type="line"/>
      <point x="186" y="1437" type="line"/>
    </contour>
    <contour>
      <point x="444" y="1100" type="line"/>
      <point x="492" y="1100" type="line"/>
      <point x="492" y="1262" type="line" smooth="yes"/>
      <point x="492" y="1340"/>
      <point x="483" y="1468"/>
      <point x="482" y="1472" type="curve"/>
      <point x="471" y="1417" type="line"/>
      <point x="610" y="1155" type="line"/>
      <point x="655" y="1155" type="line"/>
      <point x="798" y="1417" type="line"/>
      <point x="782" y="1472" type="line"/>
      <point x="781" y="1468"/>
      <point x="773" y="1340"/>
      <point x="773" y="1262" type="curve" smooth="yes"/>
      <point x="773" y="1100" type="line"/>
      <point x="821" y="1100" type="line"/>
      <point x="821" y="1480" type="line"/>
      <point x="777" y="1480" type="line"/>
      <point x="676" y="1292" type="line"/>
      <point x="623" y="1191" type="line"/>
      <point x="640" y="1191" type="line"/>
      <point x="589" y="1292" type="line"/>
      <point x="487" y="1480" type="line"/>
      <point x="444" y="1480" type="line"/>
    </contour>
  </outline>
</glyph>
<glyph name="minus" format="2">
  <advance width="1250" />
  <unicode hex="2212" />
  <outline>
    <contour>
      <point x="195" y="718" type="line" />
      <point x="1055" y="718" type="line" />
      <point x="1055" y="670" type="line" />
      <point x="195" y="670" type="line" />
    </contour>
  </outline>
</glyph>
<glyph name="germandbls.antiqua" format="2">
  <advance width="1255"/>
  <guideline x="643" y="1408" angle="80.27242144859838"/>
  <guideline x="738" y="1408" angle="80.27242144859838"/>
  <outline>
    <contour>
      <point x="489" y="1586" type="curve" smooth="yes"/>
      <point x="275" y="1586"/>
      <point x="155" y="1470"/>
      <point x="155" y="1226" type="curve"/>
      <point x="155" y="0" type="line"/>
      <point x="325" y="0" type="line"/>
      <point x="325" y="1230" type="line"/>
      <point x="325" y="1390"/>
      <point x="391" y="1433"/>
      <point x="500" y="1433" type="curve" smooth="yes"/>
      <point x="594" y="1433"/>
      <point x="642" y="1400"/>
      <point x="642" y="1400" type="curve"/>
      <point x="667" y="1548" type="line"/>
      <point x="667" y="1548"/>
      <point x="607" y="1586"/>
    </contour>
    <contour>
      <point x="287" y="1100" type="move"/>
      <point x="285" y="1100" type="line"/>
    </contour>
    <contour>
      <point x="287" y="947" type="move"/>
    </contour>
    <contour>
      <point x="471" y="-146" type="line"/>
      <point x="475" y="-148"/>
      <point x="576" y="-197"/>
      <point x="744" y="-197" type="curve" smooth="yes"/>
      <point x="1030" y="-197"/>
      <point x="1195" y="-23"/>
      <point x="1195" y="212" type="curve" smooth="yes"/>
      <point x="1195" y="462"/>
      <point x="989" y="629"/>
      <point x="723" y="599" type="curve"/>
      <point x="763" y="576" type="line"/>
      <point x="1143" y="970" type="line"/>
      <point x="1143" y="1100" type="line"/>
      <point x="287" y="1100" type="line"/>
      <point x="287" y="947" type="line"/>
      <point x="998" y="947" type="line"/>
      <point x="998" y="1003" type="line"/>
      <point x="565" y="576" type="line"/>
      <point x="565" y="463" type="line"/>
      <point x="566" y="464"/>
      <point x="601" y="481"/>
      <point x="698" y="483" type="curve" smooth="yes"/>
      <point x="921" y="488"/>
      <point x="1025" y="401"/>
      <point x="1025" y="224" type="curve" smooth="yes"/>
      <point x="1025" y="55"/>
      <point x="923" y="-44"/>
      <point x="735" y="-44" type="curve" smooth="yes"/>
      <point x="580" y="-44"/>
      <point x="496" y="-1"/>
      <point x="495" y="0" type="curve"/>
    </contour>
    <contour>
      <point x="566" y="1345" type="line"/>
      <point x="612" y="1186" type="line"/>
      <point x="640" y="1181" type="line"/>
      <point x="678" y="1307" type="line"/>
      <point x="688" y="1309" type="line"/>
      <point x="716" y="1175" type="line"/>
      <point x="763" y="1168" type="line"/>
      <point x="805" y="1337" type="line"/>
      <point x="764" y="1339" type="line"/>
      <point x="739" y="1195" type="line"/>
      <point x="728" y="1195" type="line"/>
      <point x="696" y="1332" type="line"/>
      <point x="670" y="1333" type="line"/>
      <point x="636" y="1208" type="line"/>
      <point x="629" y="1210" type="line"/>
      <point x="595" y="1348" type="line"/>
    </contour>
    <contour>
      <point x="861" y="1335" type="line"/>
      <point x="859" y="1323" type="line"/>
      <point x="910" y="1312" type="line"/>
      <point x="900" y="1170" type="line"/>
      <point x="843" y="1182" type="line"/>
      <point x="845" y="1163" type="line"/>
      <point x="971" y="1147" type="line"/>
      <point x="978" y="1160" type="line"/>
      <point x="924" y="1167" type="line"/>
      <point x="934" y="1305" type="line"/>
      <point x="994" y="1299" type="line"/>
      <point x="992" y="1310" type="line"/>
    </contour>
    <contour>
      <point x="1035" y="1335" type="line"/>
      <point x="1048" y="1154" type="line"/>
      <point x="1076" y="1148" type="line"/>
      <point x="1068" y="1225" type="line"/>
      <point x="1149" y="1217" type="line"/>
      <point x="1178" y="1229" type="line"/>
      <point x="1192" y="1269" type="line"/>
      <point x="1168" y="1318" type="line"/>
      <point x="1126" y="1338" type="line"/>
      <point x="1085" y="1342" type="line"/>
    </contour>
    <contour>
      <point x="1060" y="1311" type="line"/>
      <point x="1104" y="1313" type="line"/>
      <point x="1140" y="1306" type="line"/>
      <point x="1162" y="1280" type="line"/>
      <point x="1160" y="1252" type="line"/>
      <point x="1120" y="1243" type="line"/>
      <point x="1063" y="1256" type="line"/>
    </contour>
  </outline>
</glyph>
